<svg version="1.1" xmlns="http://www.w3.org/2000/svg" viewBox="0 0 511.1484375 275.1796875" width="1022.296875" height="550.359375">
  <!-- svg-source:excalidraw -->
  
  <defs>
    <style class="style-fonts">
      
    </style>
    
  </defs>
  <g transform="translate(26.20703125 13.28515625) rotate(0 229.3671875 124.3046875)" stroke="none"><path d="M1.41 -0.82 C1.61 -0.33, 3.66 -1.55, 1.91 3.15 C0.16 7.86, -5.71 18.32, -9.09 27.41 C-12.46 36.5, -16.77 47.97, -18.33 57.68 C-19.89 67.4, -18.94 79.38, -18.43 85.68 C-17.91 91.99, -15.92 91.68, -15.22 95.5 C-14.52 99.33, -14.81 103.63, -14.22 108.64 C-13.63 113.65, -12.96 119.5, -11.67 125.58 C-10.38 131.67, -9.43 135.53, -6.48 145.13 C-3.52 154.73, 2.6 171.7, 6.08 183.17 C9.55 194.64, 12.27 207.99, 14.36 213.94 C16.45 219.89, 16.48 216.6, 18.62 218.88 C20.76 221.15, 23.3 223.89, 27.21 227.57 C31.12 231.26, 38.08 238.01, 42.07 240.99 C46.07 243.98, 46.63 244.08, 51.18 245.51 C55.74 246.94, 62.46 249.22, 69.38 249.59 C76.3 249.97, 86.01 248.76, 92.7 247.77 C99.39 246.78, 103.27 245.97, 109.54 243.65 C115.8 241.33, 124.53 235.7, 130.29 233.84 C136.05 231.98, 135 233.26, 144.11 232.49 C153.22 231.72, 174.39 229.78, 184.95 229.2 C195.51 228.63, 198.24 228.02, 207.47 229.03 C216.7 230.04, 229.3 234.13, 240.32 235.25 C251.33 236.38, 263.63 235.41, 273.54 235.78 C283.45 236.15, 292.28 236.64, 299.75 237.48 C307.23 238.31, 313.7 238.33, 318.39 240.78 C323.07 243.23, 324.66 250.61, 327.85 252.2 C331.05 253.79, 327.9 250.46, 337.56 250.31 C347.22 250.16, 375.06 251.52, 385.81 251.31 C396.55 251.1, 397.36 249.87, 402.03 249.04 C406.7 248.21, 409.46 248.8, 413.84 246.32 C418.23 243.84, 424.22 237.61, 428.33 234.16 C432.44 230.71, 434.02 230.16, 438.49 225.62 C442.96 221.08, 451.6 210.56, 455.14 206.92 C458.67 203.28, 458.64 206.6, 459.69 203.78 C460.74 200.97, 459.95 194.85, 461.46 190.03 C462.96 185.21, 467.22 181.08, 468.74 174.86 C470.26 168.65, 474.08 167.02, 470.57 152.75 C467.06 138.48, 452.54 102.45, 447.67 89.22 C442.8 75.99, 442.01 82.74, 441.35 73.37 C440.68 63.99, 442.59 40.77, 443.71 32.96 C444.82 25.15, 443.14 30.12, 448.03 26.52 C452.92 22.91, 468.39 13.86, 473.05 11.32 C477.71 8.78, 477.04 11.79, 476 11.28 C474.97 10.77, 471.92 9.02, 466.85 8.26 C461.77 7.51, 462.24 7.11, 445.54 6.75 C428.84 6.39, 382.82 5.92, 366.66 6.1 C350.51 6.28, 355.62 5.76, 348.6 7.82 C341.58 9.87, 338.47 15.95, 324.56 18.43 C310.65 20.92, 278.85 21.71, 265.14 22.72 C251.43 23.73, 250.75 25, 242.32 24.49 C233.88 23.98, 223.39 21.27, 214.53 19.68 C205.66 18.09, 205.61 16.92, 189.12 14.97 C172.64 13.02, 133.25 10.69, 115.61 7.99 C97.98 5.29, 91.2 0.56, 83.3 -1.22 C75.41 -3.01, 76.25 -2.12, 68.25 -2.71 C60.26 -3.29, 43.68 -5.84, 35.36 -4.73 C27.03 -3.62, 25.11 2.36, 18.32 3.94 C11.54 5.51, -2.61 5.17, -5.35 4.71 C-8.09 4.24, 0.77 1.56, 1.87 1.12" stroke="none" stroke-width="0" fill="#ffec99" fill-rule="evenodd"></path><path fill="#1e1e1e" d="M 2.56,0.42 Q 2.56,0.42 2.38,1.61 2.20,2.80 2.03,3.86 1.87,4.92 1.54,6.16 1.22,7.40 0.71,9.12 0.21,10.84 -0.14,11.99 -0.51,13.13 -0.89,14.24 -1.28,15.35 -1.65,16.36 -2.02,17.36 -2.58,19.04 -3.15,20.72 -3.65,22.17 -4.14,23.62 -4.58,25.23 -5.02,26.85 -5.29,27.91 -5.57,28.98 -5.84,30.20 -6.12,31.43 -6.60,32.90 -7.08,34.37 -7.60,36.05 -8.12,37.74 -8.68,39.52 -9.23,41.30 -9.65,42.97 -10.06,44.63 -10.59,46.25 -11.11,47.87 -11.57,49.50 -12.03,51.13 -12.26,52.18 -12.49,53.22 -12.63,54.32 -12.77,55.41 -12.79,56.98 -12.80,58.56 -12.81,60.03 -12.81,61.50 -12.82,63.09 -12.82,64.67 -12.83,66.32 -12.84,67.98 -12.84,69.54 -12.84,71.09 -12.83,72.43 -12.82,73.76 -12.85,75.62 -12.87,77.49 -12.86,78.94 -12.85,80.40 -12.84,81.60 -12.82,82.81 -12.72,84.18 -12.62,85.54 -12.24,86.89 -11.86,88.24 -11.43,89.60 -10.99,90.96 -10.54,92.04 -10.10,93.12 -10.06,94.41 -10.03,95.71 -10.01,96.98 -10.00,98.24 -9.98,99.38 -9.96,100.51 -9.96,101.66 -9.97,102.81 -9.99,104.13 -10.00,105.45 -9.95,106.77 -9.89,108.09 -9.70,109.93 -9.52,111.78 -9.36,113.42 -9.20,115.06 -9.02,117.32 -8.83,119.58 -8.53,121.43 -8.23,123.28 -8.14,124.38 -8.05,125.48 -7.78,126.80 -7.52,128.11 -7.17,129.63 -6.83,131.16 -6.48,132.56 -6.14,133.97 -5.79,135.33 -5.44,136.70 -4.98,137.97 -4.52,139.24 -3.98,141.01 -3.43,142.77 -2.87,144.22 -2.30,145.66 -1.82,147.11 -1.33,148.56 -0.89,149.91 -0.45,151.26 -0.05,152.32 0.33,153.38 0.66,154.49 0.98,155.60 1.63,157.36 2.28,159.12 3.01,160.95 3.74,162.78 4.48,164.61 5.22,166.45 5.96,168.29 6.70,170.14 7.44,171.98 8.18,173.82 8.90,175.44 9.62,177.06 10.23,178.72 10.84,180.38 11.19,181.65 11.53,182.92 11.79,184.00 12.05,185.08 12.46,186.63 12.87,188.19 13.25,189.80 13.63,191.41 14.00,192.98 14.38,194.55 14.61,196.05 14.85,197.55 15.11,199.27 15.36,200.99 15.63,202.40 15.90,203.82 16.25,205.57 16.59,207.32 16.99,208.79 17.38,210.26 17.88,211.38 18.39,212.50 19.07,213.98 19.75,215.46 20.34,216.43 20.94,217.41 22.07,218.98 23.20,220.55 23.80,221.48 24.41,222.40 25.63,223.74 26.85,225.09 28.37,226.71 29.89,228.33 30.82,229.15 31.75,229.98 32.72,230.79 33.68,231.60 35.54,233.16 37.41,234.71 38.59,235.60 39.78,236.49 40.75,237.18 41.73,237.87 42.71,238.44 43.68,239.00 45.22,239.86 46.76,240.73 48.48,241.69 50.19,242.66 51.27,243.05 52.35,243.45 53.76,243.88 55.17,244.32 57.26,244.74 59.35,245.17 60.48,245.35 61.62,245.53 62.79,245.71 63.96,245.89 65.01,246.06 66.06,246.23 67.99,246.28 69.93,246.33 71.59,246.29 73.25,246.25 74.72,246.20 76.20,246.15 77.28,246.15 78.37,246.15 80.71,246.18 83.04,246.20 84.47,246.24 85.90,246.28 88.36,246.30 90.82,246.33 92.01,246.23 93.19,246.14 94.37,245.98 95.55,245.83 97.98,245.37 100.41,244.90 101.87,244.56 103.32,244.23 104.80,243.85 106.27,243.48 107.67,243.00 109.07,242.52 110.32,241.98 111.56,241.44 114.19,240.15 116.82,238.86 117.90,238.30 118.97,237.74 120.11,237.16 121.24,236.58 122.29,236.07 123.34,235.56 124.42,235.03 125.50,234.49 126.43,233.95 127.37,233.42 128.97,232.75 130.57,232.09 131.75,231.58 132.92,231.06 134.87,230.38 136.82,229.71 138.53,229.25 140.25,228.79 142.04,228.44 143.84,228.09 145.33,227.91 146.81,227.72 148.43,227.59 150.06,227.47 151.62,227.43 153.17,227.38 155.11,227.23 157.04,227.07 158.18,227.06 159.33,227.05 162.60,226.99 165.88,226.92 167.83,226.85 169.79,226.78 171.74,226.76 173.69,226.75 175.77,226.81 177.84,226.87 179.70,226.77 181.55,226.67 183.65,226.67 185.75,226.68 187.17,226.58 188.58,226.49 190.89,226.56 193.19,226.64 194.56,226.56 195.93,226.48 197.36,226.43 198.80,226.37 200.09,226.31 201.39,226.26 202.62,226.20 203.86,226.15 205.89,226.04 207.93,225.93 209.71,226.10 211.50,226.27 212.74,226.37 213.98,226.48 215.89,226.90 217.80,227.31 219.83,227.68 221.86,228.05 222.94,228.24 224.02,228.43 225.16,228.63 226.31,228.83 227.62,229.06 228.94,229.28 230.35,229.53 231.76,229.77 233.21,230.01 234.67,230.26 236.14,230.50 237.61,230.74 239.15,230.87 240.70,231.01 242.23,231.07 243.76,231.14 245.26,231.17 246.76,231.20 247.93,231.17 249.10,231.15 250.84,231.21 252.57,231.27 253.71,231.23 254.84,231.20 256.00,231.17 257.17,231.14 258.35,231.11 259.53,231.09 261.09,231.12 262.65,231.15 264.54,231.08 266.44,231.00 267.82,230.90 269.21,230.80 270.36,230.71 271.51,230.62 272.99,230.70 274.48,230.78 275.58,230.92 276.68,231.07 278.91,231.46 281.14,231.84 283.45,232.25 285.76,232.65 287.84,233.03 289.92,233.40 292.04,233.77 294.15,234.13 295.63,234.30 297.10,234.47 298.57,234.65 300.03,234.84 302.14,235.34 304.25,235.84 305.68,236.06 307.11,236.28 308.48,236.59 309.85,236.90 311.27,237.26 312.69,237.63 314.01,238.00 315.33,238.36 316.55,238.86 317.78,239.35 319.77,240.25 321.76,241.14 323.35,242.01 324.95,242.87 326.09,243.55 327.24,244.23 328.44,245.13 329.63,246.03 330.51,246.76 331.39,247.48 333.05,247.78 334.71,248.07 335.83,248.28 336.96,248.50 339.49,248.69 342.01,248.89 343.89,249.04 345.77,249.20 348.03,249.38 350.30,249.56 352.50,249.69 354.71,249.83 357.11,249.93 359.50,250.03 361.98,250.10 364.46,250.18 366.98,250.23 369.50,250.28 371.81,250.32 374.12,250.36 377.58,250.26 381.03,250.16 383.74,249.99 386.44,249.82 387.94,249.55 389.45,249.28 390.94,249.01 392.44,248.74 393.92,248.47 395.40,248.21 396.53,247.94 397.66,247.67 398.76,247.50 399.87,247.33 401.28,246.94 402.69,246.54 403.92,245.97 405.15,245.39 406.42,244.61 407.68,243.83 408.78,243.13 409.87,242.44 410.88,241.70 411.89,240.96 413.02,240.19 414.14,239.41 415.21,238.71 416.29,238.01 417.47,237.26 418.65,236.52 420.73,235.12 422.81,233.71 424.43,232.43 426.04,231.15 427.59,229.79 429.15,228.42 430.05,227.69 430.96,226.96 432.10,225.85 433.24,224.74 434.28,223.73 435.32,222.72 436.11,221.89 436.89,221.06 437.73,220.18 438.58,219.29 439.55,218.20 440.53,217.11 441.38,216.20 442.22,215.30 443.05,214.41 443.89,213.53 444.70,212.56 445.51,211.59 446.85,210.45 448.18,209.32 449.08,208.59 449.97,207.86 450.81,207.03 451.66,206.21 452.46,205.41 453.25,204.61 454.10,203.48 454.94,202.35 455.55,201.42 456.15,200.49 456.52,199.48 456.89,198.46 457.13,196.92 457.36,195.37 457.68,193.84 458.00,192.31 458.22,191.22 458.43,190.14 458.95,188.43 459.47,186.71 460.18,185.06 460.89,183.41 461.63,181.86 462.36,180.31 462.93,179.41 463.49,178.51 464.00,177.42 464.51,176.33 465.03,175.26 465.55,174.18 466.01,172.50 466.47,170.82 466.71,169.16 466.95,167.51 467.19,165.28 467.43,163.06 467.44,160.22 467.45,157.39 466.01,151.93 464.57,146.47 463.43,142.83 462.30,139.20 460.95,135.14 459.60,131.07 458.19,127.14 456.79,123.20 455.35,119.30 453.91,115.41 452.66,111.79 451.40,108.16 450.26,104.93 449.12,101.70 448.20,98.85 447.27,95.99 446.56,93.03 445.85,90.08 445.26,87.37 444.67,84.66 444.13,82.04 443.59,79.42 443.22,77.04 442.84,74.65 442.68,72.35 442.52,70.05 442.32,67.87 442.11,65.68 441.92,64.20 441.72,62.72 441.62,61.03 441.52,59.34 441.44,57.76 441.36,56.19 441.30,54.67 441.23,53.14 441.19,51.64 441.14,50.13 441.16,48.28 441.18,46.42 441.12,45.10 441.06,43.78 440.99,42.69 440.92,41.60 440.80,39.98 440.67,38.37 440.58,37.13 440.48,35.89 440.37,34.36 440.27,32.82 440.66,31.25 441.05,29.67 442.19,28.27 443.33,26.88 444.47,25.83 445.61,24.78 447.44,23.47 449.26,22.16 450.59,21.37 451.92,20.57 453.10,19.95 454.29,19.33 455.23,18.79 456.18,18.26 457.22,17.75 458.26,17.25 459.95,16.44 461.64,15.62 463.03,14.78 464.42,13.94 465.84,13.17 467.26,12.40 468.26,11.87 469.27,11.34 470.38,10.67 471.49,10.00 472.49,9.52 473.49,9.05 472.99,11.51 472.49,13.97 471.25,13.82 470.01,13.67 468.40,13.14 466.79,12.61 464.96,12.14 463.12,11.68 460.89,11.23 458.66,10.78 456.25,10.38 453.84,9.98 451.36,9.62 448.87,9.26 446.41,9.08 443.94,8.89 441.43,8.79 438.92,8.69 436.61,8.63 434.29,8.57 431.02,8.53 427.76,8.49 424.08,8.47 420.40,8.44 418.31,8.43 416.21,8.42 414.47,8.49 412.72,8.55 411.30,8.64 409.87,8.73 408.58,8.82 407.29,8.90 405.69,9.15 404.09,9.40 402.97,9.58 401.86,9.75 400.75,10.02 399.64,10.29 398.28,10.38 396.91,10.47 395.40,10.42 393.89,10.38 392.39,10.34 390.89,10.30 389.01,10.19 387.13,10.08 385.08,9.96 383.04,9.83 380.71,9.71 378.38,9.59 375.93,9.50 373.47,9.41 370.97,9.34 368.46,9.28 365.75,9.38 363.03,9.48 360.45,9.80 357.87,10.12 355.53,10.51 353.20,10.91 351.00,11.48 348.80,12.04 346.58,12.56 344.37,13.08 342.91,13.51 341.46,13.94 340.02,14.40 338.59,14.85 337.13,15.31 335.67,15.77 334.58,16.21 333.49,16.66 332.42,17.02 331.36,17.38 329.85,17.96 328.34,18.53 327.04,19.00 325.73,19.47 324.62,19.59 323.50,19.71 321.52,19.95 319.53,20.18 317.30,20.45 315.07,20.72 313.41,20.85 311.75,20.98 309.99,21.11 308.24,21.24 306.44,21.39 304.65,21.54 302.63,21.66 300.60,21.78 298.55,22.03 296.50,22.28 293.09,22.78 289.67,23.28 286.95,23.60 284.23,23.93 281.82,24.18 279.42,24.44 277.36,24.68 275.30,24.91 273.17,25.13 271.04,25.35 269.10,25.61 267.17,25.86 265.44,26.03 263.72,26.19 262.46,26.33 261.20,26.47 259.79,26.56 258.39,26.65 256.94,26.70 255.48,26.76 254.18,26.82 252.88,26.87 251.47,26.91 250.06,26.94 248.93,26.99 247.80,27.05 246.63,27.09 245.47,27.13 243.73,26.84 242.00,26.55 240.91,26.38 239.82,26.21 237.80,25.61 235.78,25.02 233.23,24.33 230.67,23.65 227.10,22.79 223.53,21.92 221.14,21.28 218.75,20.64 215.01,19.99 211.27,19.33 207.44,18.70 203.62,18.06 199.75,17.26 195.88,16.46 193.03,15.98 190.18,15.50 186.47,14.94 182.76,14.37 178.71,13.95 174.67,13.53 170.73,13.18 166.79,12.82 162.62,12.49 158.45,12.16 154.47,11.85 150.48,11.54 146.83,11.24 143.19,10.94 139.69,10.65 136.19,10.36 132.76,10.07 129.33,9.79 124.94,9.37 120.55,8.95 117.19,8.48 113.84,8.01 109.69,7.23 105.54,6.45 102.70,5.73 99.87,5.00 97.45,4.42 95.02,3.84 92.91,3.19 90.79,2.54 88.88,2.04 86.97,1.54 85.27,1.14 83.57,0.73 81.64,0.26 79.71,-0.20 77.88,-0.50 76.05,-0.80 74.23,-1.04 72.41,-1.28 70.66,-1.36 68.90,-1.45 66.91,-1.52 64.92,-1.58 63.04,-1.59 61.15,-1.60 59.10,-1.64 57.05,-1.68 55.14,-1.67 53.23,-1.66 51.03,-1.70 48.83,-1.75 47.04,-1.70 45.25,-1.66 43.27,-1.67 41.29,-1.67 40.06,-1.57 38.83,-1.47 37.42,-1.31 36.02,-1.15 34.89,-1.00 33.76,-0.85 32.85,-0.28 31.94,0.27 30.69,0.80 29.44,1.33 27.39,2.07 25.34,2.81 23.71,3.53 22.08,4.24 20.84,4.81 19.61,5.38 18.41,5.54 17.21,5.71 15.72,5.76 14.24,5.82 12.87,6.05 11.51,6.29 10.24,6.44 8.98,6.60 6.68,6.97 4.37,7.34 2.19,7.75 0.00,8.15 -1.30,8.32 -2.61,8.49 -2.98,8.49 -3.36,8.49 -3.72,8.39 -4.08,8.30 -4.41,8.12 -4.73,7.94 -5.01,7.69 -5.29,7.44 -5.49,7.13 -5.70,6.83 -5.83,6.48 -5.96,6.13 -6.00,5.75 -6.04,5.38 -5.99,5.01 -5.94,4.65 -5.81,4.30 -5.67,3.95 -5.45,3.65 -5.24,3.34 -4.96,3.10 -4.68,2.86 -4.34,2.69 -4.01,2.52 -3.65,2.43 -3.29,2.35 -2.79,0.54 -2.30,-1.25 -2.04,-1.59 -1.78,-1.92 -1.43,-2.16 -1.07,-2.39 -0.66,-2.50 -0.25,-2.61 0.16,-2.58 0.59,-2.55 0.98,-2.39 1.37,-2.23 1.69,-1.95 2.02,-1.67 2.23,-1.31 2.45,-0.94 2.53,-0.52 2.62,-0.11 2.57,0.30 2.52,0.73 2.33,1.11 2.15,1.49 1.86,1.80 1.56,2.10 1.18,2.30 0.81,2.49 0.39,2.56 -0.02,2.62 -0.44,2.55 -0.86,2.47 -1.23,2.27 -1.61,2.07 -1.90,1.76 -2.19,1.44 -2.36,1.06 -2.53,0.67 -2.57,0.25 -2.62,-0.17 -2.52,-0.58 -2.42,-0.99 -2.20,-1.36 -1.98,-1.72 -1.65,-1.99 -1.32,-2.26 -0.93,-2.41 -0.53,-2.57 -0.11,-2.58 0.31,-2.60 0.72,-2.48 1.12,-2.37 1.47,-2.12 1.82,-1.88 2.08,-1.54 2.33,-1.20 2.46,-0.79 2.59,-0.39 2.59,0.02 2.58,0.45 2.44,0.85 2.30,1.25 2.30,1.25 2.30,1.25 -0.15,4.87 -2.61,8.49 -2.98,8.49 -3.36,8.49 -3.72,8.39 -4.08,8.30 -4.41,8.12 -4.73,7.94 -5.01,7.69 -5.29,7.44 -5.49,7.13 -5.70,6.83 -5.83,6.48 -5.96,6.13 -6.00,5.76 -6.04,5.38 -5.99,5.02 -5.94,4.65 -5.81,4.30 -5.67,3.95 -5.45,3.65 -5.24,3.34 -4.96,3.10 -4.68,2.86 -4.34,2.69 -4.01,2.52 -3.65,2.43 -3.29,2.35 -2.15,2.29 -1.01,2.22 0.03,2.04 1.09,1.85 2.17,1.62 3.26,1.39 5.64,0.84 8.02,0.29 10.13,-0.08 12.23,-0.45 13.81,-0.56 15.39,-0.66 16.66,-0.56 17.93,-0.46 18.97,-0.85 20.00,-1.24 21.75,-1.91 23.49,-2.58 24.69,-3.01 25.89,-3.45 27.29,-3.90 28.70,-4.36 29.88,-4.68 31.06,-4.99 32.36,-5.35 33.66,-5.71 34.84,-5.56 36.02,-5.42 37.42,-5.25 38.83,-5.09 40.06,-4.99 41.29,-4.89 43.27,-4.89 45.25,-4.90 47.04,-4.85 48.83,-4.81 51.03,-4.85 53.23,-4.89 55.15,-4.87 57.07,-4.86 59.12,-4.88 61.18,-4.89 63.09,-4.86 65.00,-4.83 67.06,-4.80 69.11,-4.77 71.00,-4.62 72.89,-4.48 74.74,-4.17 76.60,-3.87 78.52,-3.51 80.43,-3.14 82.41,-2.65 84.39,-2.17 86.05,-1.63 87.70,-1.10 89.63,-0.53 91.57,0.03 93.60,0.65 95.64,1.28 98.08,1.87 100.52,2.45 103.27,3.16 106.02,3.87 110.11,4.63 114.20,5.40 117.50,5.86 120.79,6.33 125.17,6.74 129.55,7.15 132.98,7.44 136.41,7.72 139.91,8.01 143.40,8.29 147.04,8.59 150.68,8.88 154.67,9.18 158.66,9.49 162.85,9.81 167.03,10.13 170.99,10.47 174.94,10.81 179.06,11.22 183.17,11.63 186.90,12.17 190.63,12.71 193.54,13.17 196.45,13.62 200.26,14.36 204.08,15.09 207.93,15.66 211.77,16.23 215.65,16.81 219.53,17.40 221.91,17.90 224.28,18.41 227.90,19.10 231.52,19.80 234.14,20.25 236.75,20.70 239.78,21.27 242.80,21.83 244.14,22.06 245.48,22.29 246.64,22.34 247.80,22.38 248.93,22.43 250.06,22.48 251.46,22.51 252.87,22.54 254.17,22.60 255.46,22.65 256.90,22.69 258.34,22.73 259.70,22.78 261.07,22.83 262.30,22.88 263.53,22.94 265.17,22.91 266.81,22.88 268.76,22.66 270.70,22.44 272.81,22.17 274.92,21.89 276.97,21.61 279.03,21.34 281.39,20.99 283.76,20.64 286.41,20.20 289.07,19.76 292.44,19.09 295.81,18.43 297.96,17.93 300.10,17.43 302.08,17.09 304.06,16.74 305.83,16.45 307.60,16.15 309.33,15.85 311.07,15.55 312.70,15.27 314.34,14.98 315.74,14.76 317.15,14.53 318.95,14.39 320.75,14.25 322.11,14.17 323.47,14.10 324.57,14.18 325.67,14.27 327.12,13.88 328.58,13.49 330.40,13.16 332.22,12.84 333.46,12.52 334.69,12.19 336.20,11.84 337.71,11.48 339.24,11.17 340.76,10.85 342.24,10.62 343.72,10.39 345.90,9.85 348.08,9.31 350.38,8.68 352.68,8.05 355.07,7.60 357.47,7.14 360.16,6.74 362.85,6.34 365.66,6.14 368.46,5.93 370.97,5.87 373.47,5.80 375.93,5.71 378.38,5.62 380.71,5.50 383.04,5.38 385.08,5.25 387.13,5.12 389.01,5.02 390.89,4.91 392.39,4.87 393.88,4.83 395.39,4.78 396.90,4.74 397.97,4.80 399.03,4.86 400.10,4.85 401.17,4.84 402.36,4.92 403.55,5.00 405.42,5.06 407.29,5.11 408.58,5.20 409.87,5.28 411.30,5.37 412.72,5.47 414.47,5.53 416.22,5.60 418.31,5.59 420.41,5.58 424.08,5.57 427.76,5.55 431.04,5.53 434.32,5.50 436.65,5.48 438.98,5.46 441.54,5.46 444.10,5.45 446.68,5.49 449.26,5.53 451.78,5.69 454.29,5.85 456.76,5.98 459.23,6.11 461.61,6.23 463.98,6.34 466.10,6.51 468.22,6.67 470.04,6.98 471.87,7.28 473.02,7.58 474.18,7.87 475.68,8.85 477.17,9.82 476.36,12.49 475.54,15.16 474.31,15.91 473.08,16.65 472.06,17.12 471.04,17.59 469.88,18.10 468.72,18.62 467.36,19.31 466.00,20.00 464.21,20.91 462.42,21.81 460.75,22.58 459.07,23.36 458.05,23.94 457.04,24.52 456.10,25.02 455.16,25.52 453.98,26.37 452.80,27.22 451.86,27.91 450.91,28.61 449.71,29.54 448.50,30.47 447.24,31.66 445.99,32.84 445.88,34.37 445.77,35.89 445.68,37.13 445.58,38.37 445.46,39.98 445.34,41.60 445.27,42.69 445.20,43.78 445.14,45.10 445.08,46.42 445.10,48.27 445.13,50.13 445.08,51.62 445.04,53.12 444.99,54.64 444.94,56.16 444.90,57.71 444.85,59.26 444.82,60.90 444.80,62.54 444.77,63.99 444.75,65.44 444.96,67.65 445.17,69.86 445.32,72.05 445.48,74.24 445.85,76.56 446.21,78.88 446.76,81.48 447.31,84.08 447.91,86.75 448.50,89.43 449.20,92.28 449.90,95.13 450.84,97.94 451.78,100.75 452.96,103.97 454.13,107.20 455.43,110.77 456.72,114.35 458.22,118.23 459.73,122.11 461.23,126.04 462.74,129.98 464.22,134.01 465.70,138.05 467.03,141.73 468.36,145.40 470.11,151.27 471.85,157.15 472.16,160.15 472.46,163.15 472.61,165.48 472.76,167.82 472.80,170.01 472.83,172.21 472.58,173.44 472.32,174.68 471.96,175.83 471.60,176.98 470.85,178.77 470.09,180.57 469.30,181.91 468.50,183.26 467.86,184.64 467.23,186.01 466.62,187.51 466.01,189.01 465.66,190.14 465.31,191.27 465.17,192.35 465.03,193.44 464.67,195.44 464.32,197.43 464.12,198.84 463.92,200.26 463.43,201.53 462.93,202.80 462.12,204.25 461.30,205.70 460.62,206.55 459.93,207.40 459.09,208.49 458.24,209.58 457.41,210.41 456.58,211.23 455.63,212.15 454.68,213.07 453.39,214.09 452.11,215.12 451.18,215.91 450.24,216.69 449.50,217.53 448.76,218.36 447.88,219.20 447.00,220.04 446.12,220.88 445.24,221.72 444.31,222.62 443.38,223.53 442.51,224.35 441.63,225.17 440.72,226.01 439.82,226.86 438.58,227.96 437.35,229.07 435.97,230.27 434.60,231.47 432.98,232.77 431.36,234.06 430.47,234.85 429.58,235.64 428.64,236.38 427.70,237.11 426.77,237.80 425.83,238.49 424.74,239.23 423.65,239.96 422.76,240.65 421.87,241.33 420.73,242.14 419.59,242.95 418.65,243.59 417.72,244.23 415.90,245.60 414.08,246.96 412.95,247.61 411.82,248.26 410.74,248.81 409.67,249.37 408.63,249.79 407.60,250.22 406.31,250.64 405.02,251.06 403.54,251.30 402.07,251.53 400.20,251.60 398.33,251.68 397.12,251.80 395.92,251.92 394.40,252.07 392.89,252.21 391.36,252.34 389.82,252.47 388.23,252.57 386.64,252.66 383.89,252.88 381.14,253.10 377.63,253.26 374.12,253.42 371.81,253.45 369.50,253.49 366.98,253.55 364.46,253.60 361.98,253.68 359.50,253.75 357.10,253.85 354.70,253.95 352.49,254.08 350.28,254.20 348.01,254.37 345.73,254.54 343.80,254.66 341.88,254.78 340.25,254.82 338.63,254.85 337.29,254.78 335.95,254.70 334.65,254.52 333.36,254.34 331.60,253.90 329.84,253.47 328.48,252.70 327.13,251.93 325.96,250.82 324.79,249.70 323.94,248.97 323.08,248.24 321.89,247.36 320.71,246.48 319.26,245.56 317.81,244.63 315.89,243.68 313.98,242.74 312.74,242.32 311.50,241.90 310.12,241.49 308.74,241.08 307.54,240.70 306.34,240.33 304.94,240.02 303.54,239.70 301.48,239.44 299.42,239.18 297.96,238.95 296.50,238.72 295.10,238.48 293.71,238.25 291.58,238.15 289.44,238.05 287.38,238.00 285.32,237.95 282.77,237.94 280.22,237.94 278.93,237.78 277.63,237.62 275.88,237.36 274.13,237.09 272.82,236.91 271.51,236.73 270.36,236.65 269.21,236.56 267.82,236.46 266.44,236.36 264.54,236.28 262.65,236.20 261.09,236.24 259.52,236.27 258.35,236.24 257.17,236.22 256.00,236.19 254.83,236.16 253.70,236.12 252.57,236.08 250.82,236.13 249.07,236.19 247.89,236.15 246.71,236.11 245.17,236.11 243.63,236.11 242.03,236.09 240.43,236.08 238.65,236.04 236.86,236.00 235.38,235.82 233.89,235.64 232.43,235.46 230.96,235.28 229.52,235.11 228.08,234.94 226.70,234.76 225.33,234.57 224.17,234.38 223.00,234.19 220.90,233.79 218.79,233.39 217.67,233.17 216.54,232.95 214.73,232.48 212.92,232.00 211.72,231.74 210.52,231.48 209.22,231.18 207.92,230.87 205.89,230.76 203.86,230.65 202.63,230.60 201.39,230.55 200.10,230.49 198.81,230.44 197.37,230.39 195.94,230.34 194.57,230.27 193.21,230.20 190.93,230.29 188.65,230.39 187.26,230.35 185.86,230.31 183.86,230.44 181.85,230.56 179.88,230.76 177.92,230.95 175.91,231.08 173.90,231.22 172.09,231.37 170.28,231.53 168.29,231.87 166.30,232.21 164.16,232.59 162.02,232.97 160.73,233.12 159.45,233.27 157.53,233.35 155.61,233.42 154.41,233.55 153.21,233.69 151.73,233.67 150.25,233.66 148.96,233.68 147.68,233.70 146.06,233.82 144.45,233.94 143.01,234.13 141.57,234.31 139.89,234.64 138.20,234.97 136.57,235.39 134.94,235.80 133.79,236.27 132.64,236.75 131.26,237.40 129.89,238.06 128.82,238.61 127.74,239.17 126.59,239.71 125.43,240.24 124.44,240.65 123.46,241.05 122.29,241.61 121.12,242.16 120.00,242.67 118.88,243.18 117.34,244.00 115.80,244.83 114.68,245.42 113.56,246.02 112.17,246.62 110.79,247.23 109.21,247.83 107.64,248.43 106.14,248.88 104.65,249.32 103.12,249.76 101.60,250.19 100.04,250.59 98.49,250.98 97.38,251.15 96.27,251.32 94.98,251.49 93.68,251.66 92.25,251.79 90.82,251.93 88.36,251.95 85.90,251.98 84.47,252.01 83.04,252.05 80.71,252.08 78.37,252.10 76.56,252.07 74.75,252.05 73.08,251.98 71.42,251.92 69.52,251.81 67.62,251.70 65.34,251.36 63.07,251.02 61.88,250.79 60.69,250.57 59.50,250.32 58.31,250.07 57.12,249.78 55.92,249.49 54.87,249.15 53.83,248.80 52.19,248.32 50.55,247.84 49.36,247.31 48.16,246.77 46.37,246.00 44.57,245.23 42.76,244.47 40.94,243.70 39.74,242.99 38.54,242.28 37.60,241.59 36.67,240.90 35.36,240.02 34.04,239.15 32.05,237.58 30.05,236.00 29.03,235.18 28.00,234.36 26.95,233.48 25.89,232.61 24.19,230.87 22.48,229.14 21.73,228.32 20.98,227.50 20.21,226.55 19.45,225.61 18.35,223.97 17.26,222.33 16.63,221.40 16.01,220.47 15.30,219.35 14.59,218.23 13.70,216.77 12.80,215.31 11.69,212.87 10.57,210.42 10.20,208.62 9.83,206.83 9.50,205.16 9.16,203.49 8.98,201.95 8.79,200.41 8.49,198.72 8.19,197.04 7.99,195.67 7.78,194.31 7.45,192.80 7.12,191.30 6.78,189.75 6.44,188.20 6.02,186.41 5.59,184.63 4.94,182.70 4.29,180.76 3.75,179.28 3.21,177.80 2.47,176.03 1.74,174.26 1.00,172.42 0.27,170.57 -0.46,168.72 -1.19,166.88 -1.92,165.02 -2.65,163.16 -3.38,161.24 -4.11,159.33 -4.70,157.43 -5.29,155.53 -5.72,154.43 -6.15,153.34 -6.65,152.11 -7.14,150.88 -7.79,149.48 -8.44,148.08 -9.14,146.28 -9.84,144.49 -10.37,142.85 -10.90,141.22 -11.40,139.76 -11.89,138.30 -12.23,136.91 -12.56,135.52 -12.90,134.01 -13.24,132.51 -13.57,130.98 -13.90,129.45 -14.20,127.73 -14.50,126.00 -14.75,124.24 -15.00,122.49 -15.19,121.40 -15.38,120.31 -15.77,117.90 -16.16,115.49 -16.36,113.88 -16.56,112.27 -16.79,110.65 -17.02,109.03 -17.16,107.24 -17.30,105.45 -17.32,104.13 -17.33,102.81 -17.34,101.66 -17.35,100.51 -17.32,99.17 -17.30,97.83 -16.72,96.79 -16.14,95.74 -16.94,94.17 -17.75,92.60 -18.23,91.16 -18.72,89.72 -19.06,88.18 -19.39,86.64 -19.49,84.72 -19.58,82.81 -19.57,81.60 -19.55,80.40 -19.54,78.94 -19.53,77.49 -19.56,75.62 -19.58,73.76 -19.57,72.43 -19.56,71.09 -19.56,69.54 -19.56,67.98 -19.57,66.32 -19.58,64.66 -19.58,63.08 -19.59,61.49 -19.58,59.98 -19.58,58.47 -19.53,57.05 -19.49,55.63 -19.32,54.55 -19.15,53.47 -18.93,52.06 -18.72,50.64 -18.25,49.05 -17.79,47.45 -17.33,45.91 -16.86,44.36 -16.42,42.80 -15.97,41.25 -15.44,39.42 -14.90,37.59 -14.39,35.86 -13.87,34.13 -13.39,32.39 -12.92,30.65 -12.56,29.63 -12.20,28.61 -11.94,27.57 -11.69,26.53 -11.20,25.30 -10.72,24.06 -10.31,22.90 -9.89,21.74 -9.32,20.33 -8.74,18.91 -8.05,17.12 -7.37,15.32 -6.63,13.39 -5.89,11.47 -5.51,10.18 -5.12,8.90 -4.56,7.43 -4.01,5.96 -3.50,3.95 -2.99,1.94 -2.77,0.75 -2.56,-0.42 -2.47,-0.72 -2.38,-1.02 -2.23,-1.29 -2.07,-1.56 -1.85,-1.79 -1.63,-2.01 -1.37,-2.18 -1.10,-2.35 -0.80,-2.45 -0.51,-2.54 -0.19,-2.57 0.11,-2.59 0.42,-2.54 0.73,-2.49 1.01,-2.37 1.30,-2.24 1.55,-2.05 1.80,-1.86 2.00,-1.62 2.20,-1.38 2.33,-1.09 2.46,-0.81 2.53,-0.50 2.59,-0.20 2.57,0.11 2.56,0.42 2.56,0.42 L 2.56,0.42 Z"></path></g></svg>