<svg version="1.1" xmlns="http://www.w3.org/2000/svg" viewBox="0 0 515.9921875 246.6328125" width="1031.984375"
     height="493.265625">
    <g transform="translate(10 111.0859375) rotate(0 247.99609375 12.23046875)" stroke="none">
        <path d="M-1.82 -1.38 C-1.11 -3.04, 1.6 -8.92, 2.29 -11.27 C2.97 -13.63, 0.89 -13.31, 2.31 -15.52 C3.73 -17.73, 8.27 -22.09, 10.81 -24.53 C13.36 -26.96, 14.29 -28.75, 17.58 -30.14 C20.87 -31.52, 24.13 -32.59, 30.56 -32.86 C36.99 -33.13, 49.71 -32.2, 56.15 -31.75 C62.6 -31.3, 64.6 -31.2, 69.22 -30.16 C73.84 -29.11, 79.84 -26.13, 83.89 -25.48 C87.94 -24.83, 87.14 -22.2, 93.51 -26.26 C99.88 -30.32, 113.24 -43.61, 122.14 -49.83 C131.03 -56.06, 141.12 -60.13, 146.89 -63.63 C152.65 -67.13, 152.31 -68.89, 156.72 -70.84 C161.14 -72.79, 163.67 -73.29, 173.38 -75.34 C183.09 -77.39, 204.25 -81.3, 215 -83.14 C225.75 -84.98, 229.37 -84.38, 237.88 -86.37 C246.39 -88.36, 258.76 -92.86, 266.08 -95.07 C273.4 -97.28, 271.7 -98.82, 281.8 -99.63 C291.9 -100.44, 302.1 -100.11, 326.7 -99.95 C351.3 -99.8, 408.91 -99.64, 429.39 -98.69 C449.87 -97.74, 444.33 -95.93, 449.58 -94.27 C454.83 -92.6, 458.08 -91.25, 460.88 -88.72 C463.68 -86.19, 464.31 -82.37, 466.37 -79.09 C468.42 -75.8, 470.71 -73.04, 473.21 -69.01 C475.72 -64.97, 479.42 -62.41, 481.41 -54.87 C483.4 -47.33, 482.59 -35.38, 485.16 -23.77 C487.72 -12.15, 495.22 5.99, 496.78 14.84 C498.35 23.69, 496.71 21.76, 494.53 29.34 C492.35 36.91, 487.84 50.25, 483.69 60.31 C479.54 70.36, 472.81 83.56, 469.63 89.66 C466.45 95.75, 467.53 93.65, 464.6 96.89 C461.67 100.14, 456.85 105.5, 452.05 109.11 C447.26 112.72, 440.1 116.22, 435.85 118.53 C431.59 120.85, 430.51 122.01, 426.54 123 C422.57 123.99, 422.43 124.42, 412.01 124.49 C401.6 124.57, 373.84 123.18, 364.05 123.44 C354.26 123.7, 361.46 126.7, 353.29 126.05 C345.12 125.4, 325.39 121.87, 315.03 119.54 C304.68 117.21, 299.44 114.25, 291.17 112.08 C282.9 109.91, 281.33 111.25, 265.4 106.53 C249.47 101.82, 208.84 88.27, 195.59 83.79 C182.34 79.3, 189.25 80.28, 185.9 79.62 C182.55 78.96, 189.03 75.39, 175.49 79.85 C161.94 84.3, 120.94 100.14, 104.62 106.35 C88.31 112.55, 84.35 114.25, 77.59 117.1 C70.83 119.94, 67.08 122.13, 64.05 123.42 C61.02 124.71, 62.03 124.33, 59.4 124.83 C56.78 125.32, 51.43 126.67, 48.3 126.38 C45.18 126.09, 45.92 126.27, 40.64 123.11 C35.35 119.94, 21.25 110.68, 16.6 107.39 C11.96 104.09, 14.09 105.03, 12.77 103.33 C11.45 101.64, 9.93 103.43, 8.67 97.2 C7.42 90.97, 6.88 77.87, 5.25 65.95 C3.63 54.03, -0.7 36.91, -1.08 25.7 C-1.46 14.49, 3.06 3.22, 2.98 -1.32 C2.91 -5.87, -0.9 -1.49, -1.53 -1.56 C-2.16 -1.62, -0.83 -1.95, -0.81 -1.69"
              stroke="none" stroke-width="0" fill="#a5d8ff" fill-rule="evenodd">

        </path>
        <path fill="#1e1e1e"
              d="M -1.89,0 Q -1.89,0 -1.94,-1.51 -1.99,-3.02 -2.06,-4.19 -2.13,-5.36 -2.18,-6.55 -2.24,-7.74 -1.60,-10.17 -0.97,-12.60 -0.05,-14.48 0.86,-16.36 2.16,-18.14 3.47,-19.91 4.88,-21.59 6.30,-23.28 7.87,-24.72 9.45,-26.17 10.81,-27.39 12.17,-28.62 13.73,-29.73 15.29,-30.83 17.35,-31.62 19.41,-32.40 21.77,-32.97 24.12,-33.55 26.18,-33.93 28.24,-34.31 30.88,-34.46 33.53,-34.60 37.44,-34.65 41.35,-34.69 44.04,-34.71 46.74,-34.72 49.58,-34.72 52.43,-34.72 57.09,-34.25 61.76,-33.78 64.47,-33.23 67.17,-32.68 69.38,-32.04 71.60,-31.41 73.59,-30.76 75.58,-30.11 77.31,-29.51 79.05,-28.92 80.47,-28.51 81.89,-28.10 83.06,-27.76 84.23,-27.42 85.84,-27.11 87.44,-26.80 88.52,-26.69 89.60,-26.59 90.56,-27.26 91.53,-27.92 92.55,-28.61 93.58,-29.31 95.95,-30.89 98.33,-32.48 100.55,-34.12 102.76,-35.76 105.11,-37.35 107.45,-38.93 110.08,-40.70 112.71,-42.48 115.44,-44.49 118.16,-46.50 121.25,-48.56 124.33,-50.63 127.26,-52.62 130.18,-54.61 132.99,-56.39 135.80,-58.17 138.60,-60.04 141.40,-61.91 144.44,-63.55 147.48,-65.19 150.27,-66.79 153.07,-68.38 156.02,-69.71 158.97,-71.04 161.68,-72.18 164.38,-73.32 167.50,-74.46 170.62,-75.61 173.69,-76.41 176.76,-77.22 180.02,-77.89 183.28,-78.55 186.61,-79.16 189.94,-79.77 193.08,-80.18 196.22,-80.60 200.95,-81.09 205.68,-81.57 209.12,-82.07 212.55,-82.56 215.47,-83.07 218.39,-83.57 220.86,-84.06 223.33,-84.55 225.63,-85.03 227.92,-85.51 230.14,-86.00 232.35,-86.48 234.50,-87.09 236.65,-87.70 239.03,-88.41 241.42,-89.11 244.14,-89.87 246.86,-90.63 249.71,-91.42 252.56,-92.21 256.57,-93.29 260.58,-94.37 264.82,-95.20 269.07,-96.02 273.37,-96.73 277.67,-97.44 282.32,-97.93 286.97,-98.42 292.04,-99.01 297.10,-99.61 302.41,-99.87 307.72,-100.12 313.07,-100.43 318.41,-100.73 323.82,-100.86 329.22,-100.99 334.63,-101.04 340.04,-101.10 346.83,-101.12 353.62,-101.15 358.98,-101.33 364.34,-101.52 369.13,-101.60 373.93,-101.68 378.16,-101.89 382.38,-102.09 386.42,-102.18 390.45,-102.27 394.11,-102.30 397.78,-102.34 401.03,-102.36 404.28,-102.37 407.36,-102.38 410.44,-102.38 413.44,-102.39 416.44,-102.39 419.18,-102.39 421.92,-102.39 424.33,-102.39 426.73,-102.39 429.30,-102.10 431.86,-101.80 434.23,-101.25 436.60,-100.70 438.66,-100.07 440.72,-99.45 442.87,-98.61 445.02,-97.78 447.08,-96.71 449.14,-95.65 450.95,-94.54 452.76,-93.44 454.71,-92.07 456.65,-90.71 459.33,-88.29 462.00,-85.87 464.69,-82.73 467.37,-79.59 469.21,-77.14 471.04,-74.69 472.46,-72.75 473.88,-70.81 474.82,-69.46 475.75,-68.10 476.57,-66.43 477.39,-64.76 478.22,-62.81 479.05,-60.86 479.73,-59.15 480.40,-57.44 480.86,-56.34 481.33,-55.24 481.70,-53.83 482.07,-52.42 482.36,-51.17 482.66,-49.91 482.92,-48.51 483.19,-47.10 483.52,-45.53 483.85,-43.96 484.14,-42.37 484.43,-40.79 484.70,-39.45 484.96,-38.11 485.29,-36.55 485.63,-34.99 485.91,-33.40 486.20,-31.82 486.58,-29.07 486.97,-26.32 487.35,-24.12 487.73,-21.93 488.14,-19.95 488.56,-17.98 489.00,-16.11 489.45,-14.23 489.90,-12.39 490.35,-10.55 490.81,-8.73 491.26,-6.91 491.65,-5.61 492.03,-4.31 492.44,-2.94 492.86,-1.58 493.20,-0.26 493.54,1.05 493.91,2.20 494.29,3.35 495.02,5.37 495.74,7.38 496.23,8.91 496.72,10.44 497.11,11.45 497.50,12.45 497.82,13.47 498.14,14.49 498.43,16.02 498.72,17.54 498.87,19.23 499.01,20.91 499.06,22.48 499.10,24.06 499.14,25.52 499.17,26.98 499.19,28.36 499.22,29.75 498.91,31.22 498.60,32.70 498.24,33.85 497.87,35.00 497.48,36.13 497.09,37.26 496.49,38.66 495.88,40.05 495.23,41.47 494.57,42.90 493.85,44.48 493.12,46.06 492.20,47.82 491.27,49.58 489.88,52.22 488.50,54.85 487.49,56.96 486.48,59.07 485.49,60.93 484.49,62.80 483.71,64.56 482.92,66.33 482.04,68.06 481.17,69.80 480.48,71.35 479.79,72.91 479.34,74.12 478.90,75.33 478.35,76.71 477.80,78.09 477.24,79.40 476.67,80.71 476.11,81.96 475.54,83.21 474.98,84.44 474.41,85.66 473.84,86.88 473.27,88.09 472.71,89.19 472.15,90.29 471.61,91.30 471.07,92.31 470.50,93.24 469.94,94.16 468.68,96.00 467.43,97.83 466.53,98.89 465.62,99.96 464.43,101.16 463.25,102.36 461.93,103.61 460.60,104.86 459.45,105.90 458.29,106.95 457.23,107.96 456.17,108.97 455.11,110.01 454.05,111.05 452.76,112.06 451.47,113.08 450.18,113.99 448.90,114.91 447.62,115.78 446.34,116.65 445.37,117.29 444.41,117.93 442.90,118.70 441.38,119.47 439.86,120.16 438.33,120.85 437.04,121.49 435.75,122.13 434.22,122.69 432.70,123.25 431.20,123.72 429.69,124.19 428.11,124.54 426.53,124.88 424.79,125.13 423.05,125.37 421.48,125.60 419.90,125.83 417.95,126.00 416.01,126.17 412.81,126.17 409.61,126.17 406.81,126.13 404.02,126.09 401.37,126.05 398.71,126.01 395.89,125.97 393.07,125.93 390.17,125.91 387.27,125.88 382.93,125.85 378.59,125.83 374.24,125.82 369.90,125.80 364.91,125.59 359.93,125.38 354.32,124.68 348.71,123.97 342.54,123.04 336.38,122.10 329.96,121.07 323.55,120.04 317.38,118.99 311.21,117.94 305.12,116.68 299.03,115.42 293.32,114.10 287.62,112.79 281.74,111.21 275.85,109.63 270.23,107.99 264.62,106.34 259.28,104.46 253.95,102.59 248.60,100.83 243.25,99.07 236.57,96.70 229.90,94.34 224.57,92.45 219.24,90.55 214.78,89.07 210.31,87.58 207.72,86.72 205.13,85.86 202.58,85.06 200.03,84.26 197.92,83.66 195.80,83.06 194.07,82.76 192.33,82.46 190.34,82.02 188.34,81.58 186.87,81.50 185.39,81.41 184.10,81.43 182.81,81.44 181.58,81.49 180.36,81.54 178.98,81.58 177.61,81.62 176.27,81.76 174.92,81.91 173.66,82.31 172.39,82.70 170.77,83.23 169.15,83.75 168.12,84.22 167.09,84.69 165.71,85.17 164.33,85.65 162.57,86.28 160.81,86.91 158.48,87.82 156.16,88.73 154.25,89.39 152.35,90.05 150.52,90.70 148.69,91.36 146.68,92.13 144.66,92.89 141.52,93.91 138.38,94.92 136.03,95.72 133.68,96.51 130.98,97.45 128.28,98.40 125.44,99.41 122.59,100.42 119.93,101.43 117.26,102.43 114.67,103.44 112.07,104.44 109.51,105.45 106.94,106.46 104.62,107.44 102.30,108.41 100.28,109.34 98.26,110.26 96.37,111.18 94.47,112.09 93.32,112.78 92.17,113.47 90.11,114.46 88.04,115.44 86.28,116.39 84.51,117.33 82.86,118.27 81.21,119.21 79.24,120.15 77.27,121.08 75.75,121.80 74.24,122.52 72.91,123.10 71.59,123.69 70.53,124.19 69.48,124.69 67.69,125.50 65.91,126.31 64.40,126.83 62.90,127.35 61.49,127.72 60.09,128.10 58.08,128.21 56.07,128.33 54.81,128.33 53.55,128.33 52.15,128.31 50.76,128.29 49.09,128.00 47.42,127.70 45.62,127.10 43.83,126.50 42.06,125.80 40.29,125.10 38.34,123.98 36.40,122.86 34.33,121.62 32.26,120.38 30.27,119.12 28.28,117.86 25.33,115.75 22.37,113.64 20.69,112.29 19.01,110.95 17.62,109.79 16.23,108.64 14.97,107.40 13.72,106.15 12.80,105.23 11.89,104.31 11.10,103.35 10.32,102.39 9.11,100.53 7.90,98.66 7.43,97.35 6.96,96.04 6.73,94.68 6.50,93.32 6.31,91.99 6.12,90.65 5.94,89.02 5.77,87.39 5.67,85.21 5.58,83.02 5.45,80.85 5.32,78.68 5.29,76.23 5.27,73.79 5.14,71.34 5.01,68.89 4.78,67.19 4.55,65.48 4.26,62.66 3.97,59.84 3.73,57.79 3.49,55.74 3.20,54.02 2.92,52.30 2.57,50.36 2.21,48.42 1.88,46.71 1.55,45.01 1.25,43.43 0.95,41.85 0.68,40.32 0.40,38.80 0.13,37.66 -0.14,36.51 -0.39,35.14 -0.65,33.77 -0.80,32.43 -0.94,31.08 -1.26,29.03 -1.57,26.97 -1.85,25.24 -2.12,23.51 -2.22,21.51 -2.31,19.50 -2.27,16.92 -2.22,14.34 -2.13,12.53 -2.04,10.71 -2.04,9.26 -2.04,7.80 -1.96,6.54 -1.88,5.27 -1.76,4.18 -1.63,3.08 -1.52,1.72 -1.41,0.36 -2.16,0.09 -2.92,-0.18 -2.86,-0.53 -2.79,-0.87 -2.65,-1.19 -2.50,-1.52 -2.28,-1.79 -2.06,-2.07 -1.79,-2.29 -1.51,-2.51 -1.18,-2.65 -0.86,-2.80 -0.51,-2.86 -0.17,-2.92 0.18,-2.90 0.53,-2.88 0.87,-2.77 1.20,-2.67 1.51,-2.48 1.81,-2.30 2.06,-2.05 2.31,-1.80 2.49,-1.50 2.67,-1.19 2.78,-0.86 2.88,-0.52 2.90,-0.16 2.92,0.18 2.65,0.94 2.38,1.70 2.04,2.04 1.71,2.37 1.28,2.58 0.86,2.80 0.39,2.86 -0.07,2.93 -0.54,2.84 -1.00,2.75 -1.41,2.52 -1.83,2.28 -2.15,1.93 -2.46,1.58 -2.65,1.14 -2.84,0.71 -2.88,0.23 -2.92,-0.23 -2.80,-0.69 -2.69,-1.15 -2.44,-1.55 -2.18,-1.95 -1.81,-2.25 -1.44,-2.54 -1.00,-2.71 -0.55,-2.87 -0.08,-2.89 0.39,-2.90 0.84,-2.76 1.29,-2.62 1.68,-2.35 2.06,-2.07 2.34,-1.69 2.62,-1.30 2.76,-0.85 2.90,-0.40 2.89,0.07 2.88,0.54 2.71,0.99 2.55,1.43 2.25,1.80 1.96,2.17 1.56,2.43 1.16,2.69 0.70,2.80 0.24,2.92 -0.23,2.88 -0.70,2.84 -1.13,2.65 -1.57,2.47 -1.92,2.15 -2.28,1.84 -2.51,1.42 -2.75,1.01 -2.84,0.54 -2.93,0.08 -2.86,-0.38 -2.80,-0.85 -2.86,-0.51 -2.92,-0.18 -2.86,-0.53 -2.79,-0.87 -2.65,-1.19 -2.50,-1.52 -2.28,-1.79 -2.06,-2.07 -1.79,-2.29 -1.51,-2.51 -1.18,-2.65 -0.86,-2.80 -0.51,-2.86 -0.17,-2.92 0.18,-2.90 0.53,-2.88 0.87,-2.77 1.20,-2.67 1.51,-2.48 1.81,-2.30 2.06,-2.05 2.31,-1.80 2.49,-1.50 2.67,-1.19 2.78,-0.86 2.88,-0.52 2.90,-0.16 2.92,0.18 3.46,0.82 4.01,1.47 3.76,2.66 3.51,3.84 3.20,5.82 2.89,7.80 2.89,9.26 2.90,10.71 2.99,12.52 3.07,14.34 3.16,16.06 3.25,17.78 3.21,19.64 3.17,21.51 3.16,23.04 3.15,24.57 3.25,26.52 3.35,28.47 3.44,29.62 3.54,30.76 3.57,31.94 3.60,33.12 3.76,34.47 3.92,35.81 4.05,37.03 4.19,38.24 4.36,39.77 4.54,41.30 4.72,42.87 4.91,44.45 5.14,46.13 5.38,47.82 5.78,49.84 6.19,51.86 6.37,53.60 6.56,55.34 6.86,57.39 7.15,59.45 7.55,62.28 7.95,65.10 8.11,66.87 8.27,68.64 8.52,71.14 8.78,73.64 8.95,75.95 9.13,78.26 9.48,80.40 9.83,82.55 10.21,84.66 10.58,86.77 10.82,88.37 11.07,89.97 11.24,91.34 11.42,92.70 11.71,94.59 12.00,96.48 12.47,97.47 12.94,98.46 13.86,100.14 14.78,101.81 15.50,102.78 16.23,103.75 17.31,104.96 18.40,106.17 19.65,107.33 20.91,108.49 22.57,109.72 24.23,110.95 27.14,112.90 30.05,114.84 32.06,115.93 34.07,117.02 36.20,118.05 38.34,119.07 40.09,119.84 41.84,120.61 43.56,121.12 45.28,121.62 46.80,122.01 48.32,122.40 49.54,122.59 50.76,122.79 52.14,122.76 53.52,122.74 54.75,122.73 55.99,122.72 57.69,122.74 59.38,122.77 60.51,122.63 61.64,122.50 63.13,122.23 64.62,121.95 66.34,121.48 68.06,121.01 69.19,120.67 70.33,120.32 71.65,119.91 72.97,119.51 74.47,118.96 75.96,118.42 77.84,117.46 79.72,116.50 81.41,115.60 83.10,114.69 84.90,113.72 86.71,112.76 88.75,111.70 90.80,110.65 92.06,110.17 93.31,109.69 95.23,108.77 97.15,107.84 99.20,106.89 101.25,105.94 103.60,104.95 105.95,103.95 108.51,102.93 111.08,101.90 113.68,100.87 116.28,99.85 118.95,98.81 121.63,97.77 124.47,96.72 127.31,95.68 130.00,94.68 132.69,93.69 135.03,92.82 137.38,91.95 140.38,90.89 143.39,89.83 145.42,88.92 147.44,88.01 149.26,87.30 151.07,86.60 152.84,85.91 154.61,85.22 156.90,84.09 159.20,82.95 161.05,82.12 162.91,81.28 164.17,80.90 165.44,80.52 166.61,80.12 167.78,79.71 169.49,79.11 171.21,78.50 172.89,78.06 174.56,77.63 176.11,77.55 177.65,77.46 179.06,77.53 180.46,77.60 181.74,77.71 183.02,77.83 184.40,78.00 185.78,78.18 187.37,78.46 188.96,78.75 190.95,79.19 192.94,79.63 194.73,80.08 196.52,80.54 198.67,81.14 200.82,81.75 203.39,82.56 205.96,83.37 208.55,84.23 211.14,85.09 215.63,86.58 220.12,88.07 225.45,89.97 230.78,91.86 237.42,94.21 244.07,96.57 249.45,98.33 254.82,100.10 260.09,101.96 265.36,103.81 270.95,105.45 276.53,107.08 282.37,108.64 288.21,110.21 293.89,111.51 299.57,112.82 305.61,114.07 311.65,115.32 317.81,116.36 323.97,117.40 330.38,118.42 336.78,119.44 342.91,120.36 349.05,121.27 354.54,121.95 360.04,122.63 364.97,122.81 369.90,122.99 374.24,122.98 378.59,122.96 382.93,122.93 387.27,122.91 390.16,122.87 393.06,122.84 395.88,122.79 398.69,122.73 401.33,122.66 403.96,122.58 406.72,122.45 409.48,122.33 412.48,122.13 415.48,121.93 417.35,121.62 419.23,121.31 420.78,121.07 422.33,120.84 423.93,120.55 425.53,120.27 426.90,119.98 428.27,119.69 429.67,119.24 431.08,118.79 432.38,118.32 433.68,117.86 435.01,117.22 436.33,116.59 437.74,115.91 439.14,115.22 441.40,113.98 443.65,112.75 444.89,111.89 446.13,111.03 447.32,110.18 448.51,109.32 449.60,108.47 450.68,107.61 451.76,106.55 452.84,105.49 453.94,104.43 455.04,103.37 456.09,102.42 457.13,101.47 458.31,100.15 459.49,98.84 460.50,97.69 461.52,96.55 462.98,94.82 464.44,93.10 465.59,91.45 466.74,89.81 467.32,88.88 467.91,87.95 468.49,86.97 469.07,86.00 469.69,84.82 470.32,83.64 470.94,82.46 471.56,81.28 472.19,80.09 472.81,78.90 473.44,77.68 474.06,76.47 474.69,75.12 475.32,73.77 475.92,72.58 476.52,71.40 477.29,69.81 478.06,68.23 478.89,66.59 479.72,64.96 480.49,63.07 481.26,61.19 482.09,59.38 482.92,57.57 483.76,55.30 484.59,53.04 485.70,50.29 486.82,47.55 487.48,45.83 488.14,44.11 488.70,42.40 489.26,40.69 489.78,39.28 490.30,37.86 490.74,36.60 491.18,35.33 491.52,34.23 491.85,33.13 492.31,31.43 492.76,29.72 492.78,28.35 492.81,26.98 492.83,25.54 492.86,24.09 492.87,22.61 492.89,21.13 492.85,19.80 492.82,18.46 492.66,16.77 492.49,15.08 492.20,14.04 491.91,13.01 491.63,11.63 491.35,10.25 491.01,8.52 490.68,6.80 490.35,5.67 490.03,4.54 489.72,3.23 489.41,1.92 489.21,0.67 489.01,-0.56 488.68,-2.02 488.36,-3.47 488.14,-4.78 487.93,-6.09 487.48,-7.91 487.03,-9.74 486.58,-11.58 486.13,-13.43 485.66,-15.31 485.20,-17.20 484.69,-19.18 484.18,-21.17 483.62,-23.38 483.05,-25.59 482.42,-28.31 481.80,-31.04 481.54,-32.53 481.28,-34.02 480.90,-35.69 480.52,-37.35 480.33,-38.69 480.13,-40.03 479.88,-41.54 479.63,-43.05 479.26,-44.74 478.88,-46.42 478.71,-47.79 478.53,-49.15 478.37,-50.39 478.21,-51.63 478.03,-52.87 477.85,-54.11 477.60,-55.22 477.35,-56.32 476.80,-57.96 476.25,-59.60 475.35,-61.51 474.46,-63.42 473.80,-64.98 473.15,-66.54 472.45,-67.90 471.76,-69.25 470.34,-71.18 468.93,-73.11 467.14,-75.49 465.36,-77.87 462.79,-80.88 460.22,-83.90 457.67,-86.21 455.12,-88.52 453.23,-89.84 451.35,-91.15 449.64,-92.23 447.93,-93.31 445.99,-94.32 444.06,-95.32 442.00,-96.12 439.95,-96.92 437.97,-97.53 436.00,-98.14 433.77,-98.67 431.55,-99.19 429.14,-99.48 426.73,-99.77 424.33,-99.77 421.92,-99.77 419.18,-99.76 416.45,-99.76 413.44,-99.76 410.44,-99.76 407.37,-99.75 404.29,-99.74 401.05,-99.73 397.80,-99.71 394.16,-99.68 390.51,-99.64 386.51,-99.55 382.51,-99.47 378.24,-99.26 373.97,-99.06 369.20,-98.98 364.43,-98.90 359.03,-98.71 353.63,-98.52 346.85,-98.50 340.07,-98.47 334.68,-98.42 329.29,-98.36 323.92,-98.23 318.56,-98.11 313.21,-97.80 307.85,-97.50 302.63,-97.25 297.41,-97.00 292.33,-96.40 287.25,-95.81 282.67,-95.33 278.09,-94.85 273.83,-94.15 269.57,-93.44 265.42,-92.64 261.26,-91.83 257.26,-90.75 253.26,-89.68 250.41,-88.89 247.57,-88.10 244.86,-87.35 242.16,-86.59 239.76,-85.88 237.37,-85.18 235.14,-84.54 232.91,-83.91 230.69,-83.43 228.46,-82.94 226.15,-82.45 223.84,-81.97 221.34,-81.47 218.83,-80.98 215.88,-80.47 212.93,-79.96 209.44,-79.46 205.95,-78.95 201.26,-78.47 196.57,-77.99 193.49,-77.58 190.42,-77.17 187.12,-76.56 183.81,-75.96 180.62,-75.31 177.44,-74.65 174.49,-73.88 171.54,-73.11 168.48,-71.98 165.43,-70.86 162.75,-69.72 160.08,-68.58 157.25,-67.30 154.43,-66.02 151.61,-64.40 148.79,-62.77 145.88,-61.18 142.97,-59.58 140.16,-57.67 137.36,-55.75 134.61,-53.96 131.87,-52.17 128.98,-50.12 126.08,-48.08 123.12,-45.99 120.15,-43.90 117.45,-41.76 114.74,-39.62 112.23,-37.73 109.72,-35.84 107.60,-34.16 105.48,-32.47 103.37,-30.55 101.27,-28.63 98.99,-26.66 96.71,-24.69 94.97,-23.54 93.23,-22.39 92.09,-21.95 90.95,-21.51 89.67,-21.66 88.40,-21.81 87.32,-22.20 86.24,-22.58 84.58,-23.26 82.92,-23.94 81.84,-24.45 80.77,-24.96 79.38,-25.55 78.00,-26.15 76.36,-26.84 74.72,-27.53 72.79,-28.18 70.86,-28.84 68.75,-29.44 66.64,-30.04 64.06,-30.55 61.49,-31.07 56.96,-31.52 52.44,-31.96 49.60,-31.94 46.77,-31.91 44.09,-31.86 41.40,-31.82 37.56,-31.73 33.72,-31.63 31.27,-31.45 28.82,-31.27 26.88,-30.88 24.93,-30.50 22.77,-29.88 20.61,-29.26 18.92,-28.62 17.23,-27.97 15.82,-27.02 14.40,-26.07 13.04,-24.92 11.68,-23.76 10.30,-22.47 8.93,-21.19 7.69,-19.51 6.44,-17.83 5.40,-16.24 4.35,-14.65 3.63,-13.18 2.92,-11.72 2.58,-9.72 2.24,-7.72 2.18,-6.54 2.13,-5.36 2.06,-4.19 1.99,-3.02 1.94,-1.51 1.89,0 1.87,0.22 1.84,0.45 1.76,0.66 1.68,0.88 1.55,1.07 1.42,1.25 1.25,1.41 1.07,1.56 0.87,1.66 0.67,1.77 0.45,1.83 0.22,1.88 -0.00,1.88 -0.22,1.88 -0.45,1.83 -0.67,1.77 -0.87,1.66 -1.07,1.56 -1.25,1.41 -1.42,1.25 -1.55,1.07 -1.68,0.88 -1.76,0.66 -1.84,0.45 -1.87,0.22 -1.89,-0.00 -1.89,-0.00 L -1.89,0 Z">

        </path>
    </g>
</svg>