<svg version="1.1" xmlns="http://www.w3.org/2000/svg" viewBox="0 0 590.31640625 308.28125" width="1180.6328125" height="616.5625">
  <!-- svg-source:excalidraw -->
  
  <defs>
    <style class="style-fonts">
      
    </style>
    
  </defs>
  <g transform="translate(62.625 22.47265625) rotate(0 232.533203125 131.66796875)" stroke="none"><path d="M0.93 -1.26 C1.4 -3.24, 1.67 -12.34, 0.98 -13.09 C0.29 -13.85, -2.74 -7.57, -3.22 -5.79 C-3.69 -4.01, -0.94 -4.57, -1.87 -2.42 C-2.81 -0.27, -1.73 -6.43, -8.84 7.13 C-15.95 20.69, -39.37 67.61, -44.54 78.95 C-49.7 90.29, -39.09 67.76, -39.83 75.17 C-40.57 82.59, -46.74 112.71, -48.96 123.44 C-51.18 134.17, -52.44 136.16, -53.13 139.55 C-53.83 142.95, -53.81 142.77, -53.14 143.8 C-52.48 144.83, -53.72 147.68, -49.14 145.72 C-44.56 143.75, -30.27 134.2, -25.67 132.01 C-21.07 129.83, -21.78 131.86, -21.52 132.61 C-21.26 133.36, -22.13 128.49, -24.12 136.5 C-26.1 144.52, -31.36 168.71, -33.43 180.7 C-35.51 192.7, -36.4 200.99, -36.56 208.48 C-36.73 215.98, -35.41 222.31, -34.4 225.64 C-33.39 228.97, -33.01 228.97, -30.48 228.46 C-27.94 227.96, -24.67 225.78, -19.18 222.62 C-13.69 219.46, -0.67 210.23, 2.49 209.52 C5.65 208.81, 1.88 211.08, -0.2 218.36 C-2.29 225.63, -11.13 247.77, -10.01 253.16 C-8.88 258.55, 1.66 251.49, 6.52 250.69 C11.38 249.9, 2.54 249.12, 19.16 248.38 C35.79 247.64, 71.63 246.34, 106.26 246.26 C140.9 246.18, 188.34 246.52, 226.98 247.89 C265.61 249.27, 320.95 254.79, 338.05 254.52 C355.16 254.24, 334.67 249.2, 329.6 246.25 C324.52 243.31, 314.41 238.89, 307.59 236.83 C300.78 234.78, 295.45 234.41, 288.71 233.93 C281.98 233.45, 271.43 233.37, 267.18 233.96 C262.93 234.55, 263.69 235.64, 263.23 237.47 C262.77 239.3, 265.33 240.49, 264.43 244.93 C263.54 249.37, 258.95 258.96, 257.86 264.11 C256.77 269.25, 256.56 274.23, 257.88 275.81 C259.21 277.39, 260.99 275.53, 265.8 273.57 C270.62 271.61, 271.06 270.27, 286.75 264.02 C302.44 257.78, 344.51 242.9, 359.96 236.11 C375.41 229.32, 372.81 227.82, 379.46 223.29 C386.11 218.75, 391.64 216.25, 399.87 208.9 C408.09 201.56, 421.02 186.55, 428.79 179.19 C436.56 171.84, 444.25 166.83, 446.48 164.77 C448.7 162.72, 444.15 166.08, 442.15 166.86 C440.14 167.64, 437.47 167.28, 434.45 169.46 C431.43 171.63, 429.04 173.65, 424.02 179.89 C419.01 186.14, 409.25 201.07, 404.37 206.91 C399.49 212.76, 390.72 218.54, 394.73 214.95 C398.73 211.37, 414.85 197.15, 428.41 185.39 C441.97 173.64, 462.56 156.73, 476.09 144.4 C489.62 132.07, 502.89 118.83, 509.59 111.4 C516.3 103.97, 514.63 102.53, 516.32 99.81 C518 97.1, 520.78 95.92, 519.68 95.11 C518.59 94.31, 513.19 94.85, 509.75 94.95 C506.32 95.06, 502.86 95.48, 499.08 95.74 C495.3 96.01, 489.5 97.36, 487.08 96.55 C484.67 95.75, 485.44 92.89, 484.59 90.9 C483.74 88.91, 483.33 87.59, 481.98 84.63 C480.64 81.66, 476.68 80.69, 476.52 73.09 C476.37 65.5, 479.66 49.81, 481.06 39.05 C482.45 28.29, 488.06 13.3, 484.92 8.54 C481.78 3.79, 470.75 9.21, 462.24 10.52 C453.74 11.83, 438.62 16.85, 433.9 16.4 C429.18 15.94, 434.82 9.17, 433.91 7.8 C433 6.43, 439.12 5.36, 428.43 8.16 C417.74 10.96, 379.59 23.14, 369.77 24.61 C359.95 26.08, 367.71 20.97, 369.53 17 C371.35 13.03, 378.68 4.6, 380.67 0.81 C382.67 -2.99, 437.06 -4.69, 381.5 -5.79 C325.93 -6.89, 108.05 -6.25, 47.29 -5.8 C-13.46 -5.36, 24.99 -3.85, 16.99 -3.1 C8.98 -2.35, 3.23 -0.84, -0.72 -1.29 C-4.67 -1.73, -5.39 -5.13, -6.71 -5.78 C-8.03 -6.42, -9.84 -4.99, -8.63 -5.16 C-7.41 -5.32, -0.7 -8, 0.58 -6.78 C1.86 -5.57, -1.04 0.95, -0.95 2.15" stroke="none" stroke-width="0" fill="#9c36b5" fill-rule="evenodd"></path><path fill="#1e1e1e" d="M -2.42,0 Q -2.42,0 -2.27,-2.34 -2.13,-4.69 -2.10,-6.49 -2.07,-8.29 -2.20,-9.93 -2.34,-11.57 -2.36,-11.76 -2.39,-11.95 -2.35,-12.24 -2.32,-12.53 -2.22,-12.79 -2.11,-13.06 -1.95,-13.30 -1.79,-13.54 -1.57,-13.73 -1.35,-13.92 -1.10,-14.06 -0.84,-14.19 -0.56,-14.26 -0.28,-14.33 0.00,-14.33 0.28,-14.33 0.56,-14.26 0.84,-14.19 1.10,-14.06 1.35,-13.92 1.57,-13.73 1.79,-13.54 1.95,-13.30 2.11,-13.06 2.22,-12.79 2.32,-12.52 2.35,-12.24 2.39,-11.95 2.33,-10.78 2.27,-9.60 1.14,-7.19 0.01,-4.77 -1.20,-2.52 -2.41,-0.26 -3.86,2.75 -5.31,5.78 -8.49,11.77 -11.68,17.76 -15.70,25.78 -19.73,33.79 -22.20,38.52 -24.67,43.25 -26.80,47.55 -28.93,51.86 -30.91,56.00 -32.89,60.14 -34.25,62.66 -35.61,65.18 -36.75,67.66 -37.89,70.14 -38.92,72.14 -39.95,74.15 -40.66,75.71 -41.36,77.27 -41.79,78.36 -42.21,79.45 -42.59,80.55 -42.97,81.64 -43.03,81.92 -43.08,82.19 -43.22,82.40 -43.37,82.62 -43.56,82.79 -43.75,82.96 -43.97,83.09 -44.20,83.21 -44.45,83.28 -44.70,83.34 -44.95,83.35 -45.21,83.35 -45.46,83.29 -45.71,83.23 -45.94,83.12 -46.17,83.00 -46.37,82.83 -46.56,82.67 -46.71,82.46 -46.86,82.25 -46.96,82.01 -47.05,81.77 -47.09,81.51 -47.12,81.26 -47.09,81.00 -47.07,80.75 -46.98,80.50 -46.89,80.26 -45.79,78.87 -44.68,77.48 -43.77,76.55 -42.87,75.62 -42.04,74.84 -41.21,74.05 -38.81,74.55 -36.41,75.05 -36.09,76.16 -35.76,77.27 -36.01,78.57 -36.25,79.88 -37.01,81.93 -37.77,83.98 -38.62,86.52 -39.48,89.05 -40.93,94.79 -42.38,100.53 -44.00,106.66 -45.61,112.80 -46.64,117.31 -47.67,121.82 -48.25,124.59 -48.83,127.35 -49.39,130.00 -49.95,132.64 -50.28,134.61 -50.62,136.57 -50.68,138.04 -50.73,139.52 -50.70,140.67 -50.66,141.82 -48.85,140.93 -47.03,140.05 -45.63,139.28 -44.22,138.52 -41.60,137.39 -38.98,136.27 -37.53,135.55 -36.08,134.84 -34.58,134.15 -33.08,133.47 -31.80,132.83 -30.52,132.19 -28.72,131.28 -26.92,130.37 -25.63,130.04 -24.34,129.71 -22.81,130.11 -21.28,130.52 -20.53,132.06 -19.79,133.60 -20.36,136.76 -20.93,139.92 -21.57,142.11 -22.20,144.30 -23.03,147.20 -23.85,150.10 -24.57,153.48 -25.29,156.86 -26.72,163.62 -28.16,170.38 -28.94,174.67 -29.71,178.97 -30.43,183.59 -31.14,188.20 -31.63,192.36 -32.11,196.51 -32.50,200.49 -32.89,204.46 -33.05,206.82 -33.22,209.18 -33.30,211.63 -33.37,214.08 -33.40,216.16 -33.43,218.24 -33.35,219.81 -33.27,221.38 -33.16,222.44 -33.06,223.50 -32.90,224.86 -32.74,226.22 -32.02,225.15 -31.30,224.07 -29.43,222.99 -27.56,221.90 -26.21,221.20 -24.87,220.51 -23.18,219.73 -21.48,218.95 -19.44,218.16 -17.41,217.36 -15.51,216.55 -13.62,215.74 -12.29,215.09 -10.96,214.44 -9.55,213.69 -8.13,212.93 -6.83,212.23 -5.52,211.52 -4.42,210.95 -3.31,210.38 -1.67,209.44 -0.03,208.49 1.12,207.88 2.28,207.26 4.21,207.68 6.15,208.10 6.48,209.80 6.81,211.50 6.28,212.55 5.75,213.60 5.35,214.58 4.94,215.56 4.02,217.78 3.10,220.00 2.58,221.43 2.06,222.86 1.46,224.68 0.86,226.49 0.23,228.50 -0.38,230.50 -1.21,233.29 -2.04,236.08 -2.55,238.24 -3.06,240.40 -3.49,242.24 -3.93,244.08 -4.16,245.52 -4.39,246.95 -4.55,248.11 -4.71,249.27 -4.84,250.74 -4.97,252.21 -6.32,252.19 -7.67,252.16 -6.84,251.45 -6.01,250.74 -2.28,250.22 1.44,249.70 7.20,249.29 12.96,248.88 21.19,248.51 29.41,248.14 37.44,247.80 45.46,247.45 55.12,247.33 64.78,247.21 76.52,246.90 88.26,246.58 100.92,246.46 113.59,246.35 128.22,246.31 142.84,246.27 157.76,246.26 172.67,246.25 187.70,246.25 202.74,246.25 217.31,246.55 231.89,246.84 241.54,247.38 251.20,247.91 261.51,248.40 271.82,248.88 278.42,249.26 285.02,249.64 291.98,250.02 298.94,250.40 306.06,250.89 313.18,251.37 318.90,251.73 324.62,252.08 327.73,252.23 330.84,252.38 332.68,252.38 334.53,252.39 336.05,252.22 337.56,252.06 338.72,252.17 339.88,252.28 340.26,253.68 340.65,255.08 339.74,255.76 338.83,256.45 337.78,256.12 336.73,255.80 335.16,254.57 333.59,253.35 331.39,251.83 329.19,250.32 327.47,249.12 325.74,247.92 323.71,246.62 321.67,245.32 319.30,243.98 316.93,242.64 314.29,241.45 311.64,240.26 308.62,239.26 305.60,238.26 302.37,237.33 299.14,236.40 296.13,235.85 293.11,235.31 289.93,235.07 286.75,234.83 284.69,234.73 282.64,234.64 280.53,234.58 278.43,234.53 276.49,234.54 274.55,234.56 272.87,234.62 271.19,234.68 269.61,234.84 268.02,234.99 266.59,235.54 265.16,236.09 265.34,237.47 265.51,238.85 265.52,240.08 265.53,241.31 264.85,244.00 264.16,246.69 263.70,248.72 263.24,250.74 262.41,254.57 261.58,258.39 261.08,260.67 260.58,262.95 260.29,264.77 259.99,266.59 259.92,268.15 259.84,269.72 259.77,270.87 259.70,272.03 259.75,273.33 259.81,274.63 261.24,273.72 262.66,272.80 264.63,272.30 266.59,271.80 269.52,270.79 272.44,269.77 276.31,268.25 280.18,266.73 284.42,264.82 288.66,262.91 293.42,260.92 298.19,258.94 303.11,256.76 308.04,254.58 315.97,250.94 323.89,247.30 328.74,245.17 333.59,243.04 338.26,241.02 342.93,239.00 347.14,237.28 351.36,235.57 355.16,233.84 358.96,232.11 362.37,230.55 365.79,229.00 368.53,227.62 371.27,226.25 373.75,224.93 376.23,223.62 377.65,222.69 379.06,221.75 381.16,220.43 383.27,219.11 384.68,218.05 386.09,217.00 387.07,216.16 388.05,215.33 388.86,214.61 389.67,213.90 390.99,212.74 392.31,211.59 393.75,210.25 395.19,208.91 396.84,207.48 398.49,206.05 400.27,204.68 402.05,203.32 403.84,201.93 405.63,200.53 407.19,199.06 408.75,197.59 410.65,195.90 412.56,194.22 414.59,192.31 416.63,190.40 418.51,188.45 420.39,186.50 422.45,184.43 424.51,182.35 426.58,180.43 428.64,178.51 430.48,176.75 432.31,174.99 433.64,173.72 434.97,172.44 436.25,171.26 437.53,170.08 438.63,168.97 439.72,167.85 440.61,166.97 441.51,166.10 442.59,164.97 443.68,163.84 444.05,163.50 444.42,163.15 444.66,162.99 444.90,162.84 445.17,162.74 445.44,162.65 445.73,162.62 446.01,162.60 446.29,162.64 446.58,162.68 446.84,162.79 447.10,162.90 447.33,163.07 447.57,163.24 447.75,163.46 447.93,163.68 448.06,163.93 448.18,164.19 448.24,164.47 448.30,164.75 448.30,165.03 448.29,165.32 448.21,165.60 448.14,165.87 448.00,166.12 447.86,166.37 447.66,166.58 447.47,166.79 446.07,166.83 444.68,166.87 444.06,167.85 443.45,168.83 442.23,169.64 441.00,170.45 440.11,171.24 439.22,172.02 438.36,172.76 437.51,173.49 436.44,174.56 435.37,175.63 433.75,177.19 432.14,178.76 430.41,180.17 428.68,181.59 427.10,183.07 425.52,184.54 423.80,186.13 422.09,187.73 420.53,189.31 418.97,190.89 417.02,192.81 415.07,194.73 413.22,196.67 411.38,198.61 409.56,200.60 407.74,202.58 406.55,204.02 405.36,205.45 403.99,207.01 402.63,208.57 401.66,209.85 400.69,211.12 400.02,212.12 399.35,213.12 398.53,214.35 397.71,215.58 396.19,214.37 394.66,213.17 395.80,212.32 396.94,211.47 399.38,209.87 401.82,208.28 409.61,202.03 417.39,195.79 424.48,189.86 431.58,183.94 438.86,177.43 446.15,170.92 451.23,166.38 456.30,161.83 462.22,156.39 468.14,150.95 473.82,145.26 479.49,139.57 484.75,134.09 490.01,128.62 493.27,125.13 496.53,121.63 499.77,117.93 503.01,114.22 504.87,111.93 506.72,109.64 508.39,107.49 510.06,105.35 511.41,103.54 512.77,101.72 513.59,100.26 514.42,98.80 514.95,97.11 515.49,95.43 516.18,96.36 516.88,97.29 515.09,97.27 513.30,97.25 511.70,97.43 510.10,97.60 508.75,97.87 507.40,98.14 506.07,98.40 504.73,98.66 503.29,98.89 501.85,99.12 500.57,99.34 499.29,99.56 498.11,99.70 496.94,99.83 495.37,99.85 493.79,99.87 492.42,99.89 491.05,99.91 489.32,99.35 487.58,98.78 486.14,97.81 484.69,96.84 483.51,95.56 482.32,94.29 481.39,92.51 480.45,90.74 479.73,88.44 479.02,86.14 478.39,82.57 477.76,79.00 477.53,75.49 477.31,71.99 477.24,69.27 477.17,66.55 477.16,60.66 477.15,54.78 477.16,49.79 477.17,44.80 477.51,40.68 477.85,36.55 478.33,32.84 478.80,29.14 479.12,26.88 479.44,24.63 479.72,22.44 480.00,20.25 480.14,18.61 480.28,16.96 480.40,15.57 480.52,14.17 480.46,12.75 480.40,11.33 477.88,11.82 475.36,12.31 473.18,12.17 471.00,12.02 468.37,11.92 465.75,11.81 461.35,12.34 456.95,12.88 454.38,13.30 451.81,13.73 448.63,14.42 445.44,15.10 442.99,15.59 440.53,16.09 439.26,16.50 438.00,16.91 436.19,16.86 434.37,16.80 433.68,15.48 432.99,14.15 432.83,12.93 432.68,11.71 432.86,10.44 433.03,9.16 434.07,10.19 435.11,11.22 432.69,11.09 430.27,10.96 427.97,11.07 425.67,11.19 422.79,11.81 419.91,12.43 416.42,13.34 412.94,14.25 409.98,15.05 407.02,15.85 403.54,16.85 400.07,17.84 396.37,18.94 392.68,20.03 390.24,20.72 387.81,21.42 385.31,22.15 382.81,22.87 380.90,23.45 378.98,24.03 377.47,24.48 375.95,24.92 374.30,25.47 372.65,26.01 371.05,25.43 369.44,24.84 369.23,22.72 369.02,20.59 369.64,18.60 370.26,16.60 371.17,14.59 372.07,12.59 372.88,10.56 373.69,8.53 374.17,7.08 374.65,5.63 375.25,3.98 375.86,2.33 376.27,1.07 376.68,-0.18 377.05,-2.01 377.42,-3.85 376.20,-3.58 374.98,-3.32 372.80,-3.49 370.62,-3.66 365.26,-3.78 359.90,-3.91 354.83,-4.00 349.75,-4.09 340.71,-4.16 331.66,-4.22 320.23,-4.27 308.80,-4.32 300.15,-4.36 291.50,-4.39 283.67,-4.42 275.84,-4.45 268.72,-4.46 261.60,-4.48 254.03,-4.50 246.47,-4.51 239.10,-4.52 231.73,-4.53 224.06,-4.54 216.39,-4.55 208.97,-4.55 201.56,-4.56 196.71,-4.56 191.86,-4.56 186.00,-4.57 180.15,-4.57 172.32,-4.57 164.48,-4.57 159.69,-4.57 154.90,-4.58 150.07,-4.58 145.23,-4.58 138.17,-4.58 131.10,-4.58 125.89,-4.58 120.67,-4.58 114.56,-4.58 108.44,-4.58 101.95,-4.58 95.46,-4.58 91.00,-4.58 86.55,-4.58 83.19,-4.58 79.84,-4.58 77.88,-4.55 75.92,-4.51 73.84,-4.51 71.77,-4.50 69.84,-4.47 67.92,-4.44 65.40,-4.46 62.89,-4.48 61.29,-4.39 59.69,-4.31 58.32,-4.21 56.96,-4.12 55.52,-4.06 54.09,-3.99 52.94,-3.91 51.80,-3.83 49.96,-3.69 48.12,-3.55 46.92,-3.23 45.71,-2.91 44.15,-2.64 42.60,-2.38 41.38,-2.11 40.15,-1.84 38.83,-1.60 37.51,-1.36 35.80,-1.15 34.09,-0.93 32.46,-0.73 30.84,-0.53 29.73,-0.51 28.62,-0.49 26.58,-0.34 24.54,-0.18 22.70,-0.05 20.86,0.07 18.91,0.24 16.97,0.41 15.35,0.52 13.73,0.63 12.60,0.69 11.48,0.75 10.36,0.81 9.24,0.87 8.10,0.92 6.97,0.96 5.59,0.99 4.21,1.02 2.92,1.04 1.62,1.06 0.32,0.92 -0.98,0.79 -2.17,0.66 -3.36,0.52 -4.87,0.26 -6.39,0.00 -7.48,-0.18 -8.57,-0.37 -10.26,-1.41 -11.96,-2.44 -11.86,-4.15 -11.77,-5.85 -11.18,-7.19 -10.60,-8.52 -9.36,-9.06 -8.13,-9.60 -6.80,-9.91 -5.47,-10.21 -4.29,-10.41 -3.11,-10.60 -1.83,-10.63 -0.56,-10.66 0.60,-10.67 1.77,-10.68 2.22,-10.62 2.67,-10.57 3.10,-10.41 3.52,-10.25 3.90,-9.99 4.27,-9.73 4.57,-9.39 4.87,-9.05 5.09,-8.65 5.30,-8.24 5.41,-7.80 5.52,-7.36 5.52,-6.91 5.52,-6.45 5.41,-6.01 5.30,-5.57 5.09,-5.16 4.87,-4.76 4.57,-4.42 4.27,-4.08 3.90,-3.82 3.52,-3.56 3.10,-3.40 2.67,-3.24 2.22,-3.19 1.77,-3.13 3.14,-4.21 4.50,-5.28 3.83,-2.24 3.16,0.80 2.95,1.28 2.74,1.77 2.39,2.16 2.03,2.55 1.57,2.81 1.11,3.07 0.59,3.17 0.07,3.26 -0.44,3.19 -0.97,3.12 -1.44,2.88 -1.91,2.64 -2.29,2.27 -2.66,1.89 -2.89,1.42 -3.12,0.94 -3.19,0.42 -3.26,-0.10 -3.16,-0.62 -3.06,-1.14 -2.80,-1.59 -2.53,-2.05 -2.14,-2.41 -1.74,-2.76 -1.26,-2.96 -0.77,-3.17 -0.24,-3.21 0.27,-3.25 0.79,-3.12 1.30,-2.99 1.74,-2.71 2.19,-2.42 2.52,-2.01 2.85,-1.59 3.03,-1.09 3.21,-0.60 3.22,-0.07 3.23,0.45 3.07,0.96 2.92,1.46 2.61,1.89 2.30,2.32 1.87,2.62 1.43,2.93 0.93,3.08 0.42,3.24 -0.10,3.22 -0.63,3.20 -1.12,3.02 -1.62,2.83 -2.03,2.50 -2.44,2.17 -2.72,1.72 -3.00,1.27 -3.13,0.76 -3.25,0.25 -3.21,-0.27 -3.16,-0.80 -3.16,-0.80 -3.16,-0.80 -2.08,-4.66 -1.01,-8.53 0.38,-9.60 1.77,-10.68 2.22,-10.62 2.67,-10.57 3.10,-10.41 3.52,-10.25 3.90,-9.99 4.27,-9.73 4.57,-9.39 4.87,-9.05 5.09,-8.65 5.30,-8.24 5.41,-7.80 5.51,-7.36 5.52,-6.91 5.52,-6.45 5.41,-6.01 5.30,-5.57 5.09,-5.16 4.87,-4.76 4.57,-4.42 4.27,-4.08 3.90,-3.82 3.52,-3.56 3.10,-3.40 2.67,-3.24 2.22,-3.19 1.77,-3.13 0.61,-3.14 -0.55,-3.15 -1.85,-3.15 -3.16,-3.15 -4.61,-3.25 -6.07,-3.35 -6.00,-5.28 -5.94,-7.21 -4.77,-6.95 -3.60,-6.68 -2.12,-6.51 -0.65,-6.33 0.50,-6.17 1.66,-6.01 2.93,-5.99 4.21,-5.97 5.31,-5.95 6.42,-5.93 7.63,-5.89 8.83,-5.84 9.96,-5.79 11.10,-5.73 12.32,-5.68 13.55,-5.64 14.93,-5.68 16.32,-5.71 18.22,-5.87 20.13,-6.04 21.23,-6.16 22.34,-6.28 24.29,-6.35 26.24,-6.42 28.36,-6.56 30.47,-6.71 32.09,-6.86 33.71,-7.00 35.37,-7.15 37.04,-7.30 38.29,-7.41 39.54,-7.52 40.73,-7.65 41.91,-7.77 43.32,-7.85 44.72,-7.94 46.42,-8.09 48.12,-8.24 49.96,-8.10 51.80,-7.96 52.94,-7.89 54.09,-7.81 55.52,-7.74 56.96,-7.67 58.32,-7.58 59.69,-7.49 61.29,-7.40 62.89,-7.32 65.40,-7.34 67.92,-7.36 69.84,-7.32 71.77,-7.29 73.84,-7.29 75.92,-7.29 77.88,-7.25 79.84,-7.21 83.19,-7.21 86.55,-7.21 91.00,-7.21 95.46,-7.21 101.95,-7.21 108.44,-7.21 114.56,-7.21 120.67,-7.21 125.89,-7.21 131.10,-7.21 138.17,-7.22 145.23,-7.22 150.07,-7.22 154.90,-7.22 159.69,-7.22 164.48,-7.22 172.32,-7.22 180.15,-7.23 186.00,-7.23 191.86,-7.23 196.71,-7.23 201.56,-7.24 208.97,-7.24 216.39,-7.25 224.06,-7.26 231.73,-7.26 239.10,-7.27 246.47,-7.28 254.03,-7.30 261.60,-7.31 268.72,-7.33 275.84,-7.35 283.67,-7.37 291.50,-7.40 300.15,-7.44 308.80,-7.47 320.23,-7.52 331.66,-7.57 340.71,-7.63 349.76,-7.70 354.83,-7.79 359.91,-7.88 365.27,-7.99 370.64,-8.11 372.84,-8.26 375.04,-8.41 376.86,-8.45 378.68,-8.49 380.38,-7.37 382.08,-6.24 382.14,-5.05 382.21,-3.85 381.74,-2.40 381.27,-0.96 380.86,0.15 380.46,1.26 379.93,2.46 379.39,3.66 378.77,5.30 378.15,6.94 377.56,8.32 376.98,9.71 376.30,11.85 375.61,13.99 374.96,15.93 374.30,17.87 373.70,19.96 373.09,22.05 374.15,21.90 375.21,21.75 376.69,21.50 378.17,21.24 380.08,20.70 382.00,20.16 384.49,19.39 386.97,18.63 389.38,17.88 391.79,17.13 395.47,15.97 399.15,14.81 402.61,13.71 406.07,12.61 409.00,11.68 411.93,10.75 415.42,9.64 418.91,8.54 422.03,7.62 425.14,6.70 427.78,6.24 430.42,5.79 433.32,6.01 436.22,6.23 437.00,8.68 437.78,11.13 437.50,12.39 437.22,13.64 438.57,13.43 439.92,13.22 442.34,12.67 444.77,12.12 448.00,11.35 451.22,10.58 453.86,10.03 456.49,9.48 461.12,8.79 465.75,8.09 468.39,8.00 471.02,7.91 473.24,7.79 475.45,7.67 477.24,7.66 479.03,7.65 481.24,8.31 483.45,8.97 484.00,10.27 484.55,11.58 484.24,13.14 483.93,14.69 483.63,16.04 483.32,17.39 483.01,18.99 482.70,20.58 482.44,22.79 482.18,25.00 481.88,27.24 481.59,29.48 481.15,33.13 480.71,36.77 480.43,40.78 480.14,44.79 480.19,49.77 480.25,54.75 480.34,60.57 480.44,66.40 480.62,69.04 480.80,71.69 481.16,74.96 481.52,78.24 482.27,81.45 483.02,84.65 483.87,86.55 484.72,88.45 485.40,89.68 486.08,90.91 486.86,91.80 487.64,92.68 489.38,93.74 491.11,94.80 492.39,94.79 493.66,94.78 496.07,94.68 498.48,94.58 499.77,94.39 501.06,94.19 502.45,93.97 503.83,93.75 505.12,93.53 506.41,93.30 508.00,92.97 509.60,92.63 511.58,92.66 513.56,92.69 515.70,93.12 517.84,93.55 518.02,95.93 518.20,98.30 517.56,99.34 516.93,100.38 515.92,101.84 514.90,103.31 513.54,105.15 512.17,106.99 510.49,109.16 508.82,111.32 506.94,113.66 505.06,116.01 501.80,119.75 498.54,123.50 495.29,127.02 492.03,130.55 486.77,136.06 481.52,141.58 475.83,147.34 470.14,153.10 464.24,158.60 458.35,164.10 453.33,168.70 448.30,173.31 441.05,179.93 433.80,186.55 426.77,192.61 419.75,198.67 411.99,205.15 404.23,211.63 401.90,213.46 399.57,215.30 398.30,216.11 397.02,216.92 395.41,216.04 393.79,215.15 394.01,214.06 394.22,212.97 395.33,211.88 396.43,210.80 397.28,209.89 398.12,208.98 399.21,207.78 400.31,206.58 401.64,204.99 402.97,203.40 404.22,201.98 405.47,200.56 407.25,198.51 409.03,196.46 410.83,194.42 412.63,192.37 414.43,190.40 416.24,188.43 417.70,186.66 419.17,184.90 420.66,183.17 422.15,181.45 423.57,179.66 424.99,177.87 426.42,176.16 427.84,174.45 429.44,172.82 431.03,171.19 432.26,170.04 433.49,168.90 434.60,168.08 435.71,167.27 436.87,166.45 438.03,165.63 439.23,165.00 440.44,164.38 441.89,163.62 443.34,162.87 445.15,162.88 446.97,162.90 445.70,163.02 444.42,163.15 444.66,162.99 444.90,162.84 445.17,162.74 445.44,162.65 445.73,162.62 446.01,162.60 446.29,162.64 446.58,162.68 446.84,162.79 447.10,162.90 447.33,163.07 447.57,163.24 447.75,163.46 447.93,163.68 448.06,163.93 448.18,164.19 448.24,164.47 448.30,164.75 448.30,165.03 448.29,165.32 448.21,165.59 448.14,165.87 448.00,166.12 447.86,166.37 447.66,166.58 447.47,166.79 446.93,167.08 446.39,167.37 445.19,168.20 444.00,169.03 443.05,169.71 442.11,170.40 440.87,171.46 439.64,172.53 438.31,173.60 436.98,174.67 435.61,175.83 434.25,176.98 432.42,178.78 430.59,180.58 428.59,182.48 426.60,184.38 424.59,186.48 422.59,188.57 420.72,190.63 418.84,192.68 416.86,194.69 414.87,196.70 413.12,198.42 411.37,200.14 409.83,201.86 408.28,203.58 406.68,205.15 405.07,206.71 403.41,208.40 401.75,210.09 400.11,211.33 398.47,212.57 397.59,213.28 396.72,214.00 395.82,214.62 394.92,215.24 393.44,216.13 391.96,217.02 391.03,217.59 390.10,218.16 388.98,218.84 387.87,219.52 386.34,220.53 384.82,221.53 382.70,222.92 380.58,224.30 379.03,225.13 377.48,225.96 374.97,227.29 372.47,228.63 369.69,230.03 366.90,231.44 363.49,233.00 360.09,234.56 356.24,236.33 352.39,238.10 348.21,239.81 344.04,241.53 339.38,243.57 334.73,245.61 329.92,247.77 325.11,249.92 317.19,253.62 309.26,257.31 304.34,259.56 299.42,261.82 294.74,263.86 290.06,265.91 285.81,267.97 281.55,270.03 277.70,271.72 273.86,273.41 270.91,274.68 267.96,275.96 265.71,276.84 263.47,277.72 261.72,278.00 259.97,278.28 257.89,277.47 255.80,276.67 255.62,274.98 255.43,273.29 255.82,271.36 256.21,269.43 256.39,267.73 256.57,266.03 256.88,264.18 257.20,262.33 257.55,260.01 257.90,257.68 258.52,253.88 259.15,250.08 259.36,247.93 259.58,245.78 259.87,243.54 260.16,241.29 260.21,239.19 260.26,237.10 260.54,235.63 260.81,234.16 261.93,233.27 263.05,232.39 264.31,232.13 265.56,231.86 266.69,231.72 267.82,231.58 269.51,231.54 271.21,231.51 272.89,231.59 274.58,231.67 276.53,231.71 278.48,231.76 280.63,231.79 282.77,231.82 284.86,231.92 286.94,232.02 290.28,232.24 293.61,232.46 296.77,232.99 299.93,233.52 303.24,234.40 306.54,235.28 309.74,236.25 312.94,237.21 315.76,238.35 318.59,239.49 321.10,240.71 323.61,241.94 325.80,243.06 327.98,244.18 330.01,245.22 332.03,246.25 333.34,247.13 334.64,248.00 335.62,248.70 336.59,249.39 338.13,250.87 339.66,252.35 338.54,252.89 337.43,253.44 337.46,254.59 337.49,255.74 335.96,255.50 334.43,255.25 332.57,255.13 330.71,255.01 327.58,254.86 324.46,254.72 318.73,254.37 313.00,254.01 305.90,253.53 298.80,253.05 291.83,252.68 284.87,252.30 278.28,251.93 271.69,251.56 261.37,251.09 251.05,250.61 241.44,250.09 231.84,249.57 217.29,249.30 202.74,249.02 187.71,249.05 172.67,249.07 157.76,249.12 142.85,249.17 128.24,249.26 113.63,249.35 100.99,249.54 88.35,249.73 76.60,250.14 64.84,250.55 55.25,250.80 45.65,251.05 37.65,251.57 29.65,252.09 21.52,252.69 13.39,253.30 7.85,253.99 2.31,254.69 -0.42,255.37 -3.17,256.05 -4.26,256.18 -5.36,256.31 -6.42,256.45 -7.48,256.59 -8.88,255.20 -10.28,253.82 -9.95,252.71 -9.62,251.60 -9.19,250.03 -8.76,248.45 -8.45,247.32 -8.14,246.19 -7.78,244.72 -7.42,243.25 -7.00,241.49 -6.58,239.72 -6.22,237.42 -5.86,235.11 -5.27,232.30 -4.67,229.49 -4.33,227.38 -3.99,225.27 -3.63,223.25 -3.27,221.23 -2.82,219.49 -2.37,217.75 -1.90,216.51 -1.43,215.26 -1.02,214.16 -0.62,213.06 0.39,211.81 1.41,210.56 2.24,211.62 3.07,212.68 1.90,213.07 0.72,213.46 -0.35,213.97 -1.42,214.49 -2.49,214.92 -3.56,215.35 -4.87,215.98 -6.19,216.62 -7.72,217.42 -9.24,218.22 -10.56,218.77 -11.87,219.32 -13.70,220.32 -15.53,221.33 -17.35,222.36 -19.17,223.39 -20.71,224.29 -22.24,225.20 -23.60,226.01 -24.95,226.82 -26.78,227.80 -28.61,228.78 -30.28,229.42 -31.95,230.05 -33.07,229.93 -34.20,229.80 -35.17,229.27 -36.15,228.73 -36.55,227.47 -36.94,226.22 -36.78,224.85 -36.61,223.48 -36.50,222.42 -36.38,221.36 -36.28,219.78 -36.17,218.20 -36.14,216.10 -36.11,214.00 -36.06,211.50 -36.00,209.00 -35.86,206.60 -35.72,204.20 -35.37,200.20 -35.02,196.19 -34.59,191.97 -34.15,187.76 -33.50,183.10 -32.86,178.44 -32.18,174.07 -31.50,169.70 -30.20,162.95 -28.91,156.19 -28.36,152.68 -27.81,149.16 -27.25,146.26 -26.69,143.35 -26.38,141.04 -26.06,138.73 -25.19,136.84 -24.33,134.95 -25.47,135.18 -26.62,135.40 -27.60,135.82 -28.58,136.23 -29.92,136.85 -31.25,137.46 -32.69,138.12 -34.13,138.78 -35.58,139.50 -37.03,140.22 -39.37,141.55 -41.72,142.88 -43.08,143.70 -44.44,144.52 -45.71,145.24 -46.98,145.95 -48.20,146.35 -49.42,146.75 -50.54,146.79 -51.65,146.84 -52.80,146.17 -53.94,145.50 -54.17,143.56 -54.40,141.62 -54.24,140.41 -54.07,139.20 -53.84,137.63 -53.60,136.05 -53.25,134.06 -52.90,132.06 -52.42,129.41 -51.94,126.76 -51.45,123.94 -50.96,121.12 -50.04,116.52 -49.13,111.92 -47.70,105.78 -46.28,99.63 -45.04,93.75 -43.81,87.88 -43.26,85.26 -42.72,82.65 -42.03,79.83 -41.33,77.00 -39.84,77.91 -38.35,78.82 -39.41,79.50 -40.47,80.19 -41.78,81.19 -43.08,82.19 -43.22,82.40 -43.37,82.62 -43.56,82.79 -43.75,82.96 -43.97,83.09 -44.20,83.21 -44.45,83.28 -44.70,83.34 -44.95,83.35 -45.21,83.35 -45.46,83.29 -45.71,83.23 -45.94,83.12 -46.17,83.00 -46.37,82.83 -46.56,82.67 -46.71,82.46 -46.86,82.25 -46.96,82.01 -47.05,81.77 -47.09,81.51 -47.12,81.26 -47.09,81.00 -47.07,80.75 -46.98,80.50 -46.89,80.26 -46.77,80.03 -46.64,79.79 -45.98,78.84 -45.32,77.88 -44.70,76.89 -44.08,75.90 -43.24,74.40 -42.40,72.91 -41.41,70.95 -40.42,68.99 -39.27,66.42 -38.12,63.85 -36.83,61.37 -35.54,58.89 -33.60,54.71 -31.66,50.53 -29.59,46.17 -27.52,41.80 -25.15,37.05 -22.78,32.29 -18.87,24.18 -14.95,16.08 -12.00,10.12 -9.04,4.17 -7.80,0.98 -6.56,-2.19 -4.88,-5.70 -3.20,-9.20 -2.80,-10.58 -2.39,-11.95 -2.35,-12.24 -2.32,-12.52 -2.22,-12.79 -2.11,-13.06 -1.95,-13.30 -1.79,-13.54 -1.57,-13.73 -1.35,-13.92 -1.10,-14.06 -0.84,-14.19 -0.56,-14.26 -0.28,-14.33 -0.00,-14.33 0.28,-14.33 0.56,-14.26 0.84,-14.19 1.10,-14.06 1.35,-13.92 1.57,-13.73 1.79,-13.54 1.95,-13.30 2.11,-13.06 2.22,-12.79 2.32,-12.53 2.35,-12.24 2.39,-11.95 2.36,-11.76 2.34,-11.57 2.20,-9.93 2.07,-8.29 2.10,-6.49 2.13,-4.69 2.27,-2.34 2.42,0 2.38,0.29 2.35,0.58 2.24,0.85 2.14,1.12 1.98,1.36 1.81,1.60 1.59,1.80 1.37,1.99 1.11,2.13 0.85,2.26 0.57,2.33 0.29,2.40 -0.00,2.40 -0.29,2.40 -0.57,2.33 -0.85,2.26 -1.11,2.13 -1.37,1.99 -1.59,1.80 -1.81,1.60 -1.98,1.36 -2.14,1.12 -2.24,0.85 -2.35,0.57 -2.38,0.28 -2.42,-0.00 -2.42,-0.00 L -2.42,0 Z"></path></g></svg>