<svg version="1.1" xmlns="http://www.w3.org/2000/svg" viewBox="0 0 568.41796875 331.203125" width="1136.8359375" height="662.40625">
  <!-- svg-source:excalidraw -->
  
  <defs>
    <style class="style-fonts">
      
    </style>
    
  </defs>
  <g transform="translate(52.6875 49.625) rotate(0 231.521484375 115.9765625)" stroke="none"><path d="M0.21 -0.07 C0.18 0.79, 6.42 -1.68, 1.89 6.01 C-2.64 13.7, -19.74 33.93, -26.98 46.06 C-34.22 58.19, -39.48 72.86, -41.54 78.78 C-43.6 84.7, -39.6 79.53, -39.33 81.57 C-39.07 83.61, -40.01 77.2, -39.95 91.02 C-39.89 104.85, -38.3 145.12, -38.98 164.51 C-39.66 183.9, -43.78 196.03, -44.03 207.36 C-44.29 218.69, -44.58 224.76, -40.5 232.48 C-36.42 240.2, -25.08 248.99, -19.55 253.66 C-14.01 258.34, -10.8 258.86, -7.31 260.54 C-3.82 262.22, -3.12 262.71, 1.37 263.76 C5.87 264.8, 7.9 265.91, 19.67 266.82 C31.44 267.73, 57.21 268.34, 71.98 269.24 C86.75 270.14, 97.26 272.8, 108.28 272.21 C119.29 271.61, 130.37 266.78, 138.05 265.65 C145.73 264.52, 132.37 265.51, 154.34 265.43 C176.31 265.35, 248.65 265.28, 269.85 265.19 C291.05 265.1, 275.11 266.25, 281.54 264.9 C287.97 263.55, 300.22 260.02, 308.44 257.09 C316.65 254.16, 323.32 250.26, 330.81 247.3 C338.3 244.34, 347.58 241.98, 353.39 239.34 C359.21 236.7, 360.62 233.22, 365.71 231.45 C370.8 229.67, 377.53 227.88, 383.91 228.7 C390.29 229.51, 398.35 235.12, 403.99 236.34 C409.63 237.56, 413.3 235.6, 417.73 236.03 C422.16 236.45, 426.34 239.26, 430.57 238.88 C434.81 238.49, 439.95 235.61, 443.14 233.73 C446.34 231.85, 447.01 231.17, 449.72 227.61 C452.44 224.05, 456.88 217.25, 459.44 212.36 C462 207.47, 464.23 202.61, 465.09 198.25 C465.95 193.9, 464.8 188.76, 464.61 186.23 C464.42 183.71, 466.66 184.16, 463.97 183.1 C461.28 182.05, 451.26 180.83, 448.47 179.9 C445.68 178.97, 445.28 180.22, 447.22 177.5 C449.16 174.79, 454.26 168.23, 460.13 163.59 C466.01 158.95, 476.55 155.49, 482.47 149.66 C488.38 143.83, 491.75 133.97, 495.62 128.63 C499.5 123.29, 503.79 120.96, 505.69 117.6 C507.6 114.24, 507.35 110.75, 507.07 108.46 C506.79 106.16, 509.04 106.62, 504.02 103.84 C499 101.06, 480.81 97.76, 476.95 91.8 C473.08 85.83, 480.78 73.07, 480.83 68.07 C480.87 63.08, 478.89 63.6, 477.2 61.82 C475.52 60.03, 474.17 60, 470.74 57.37 C467.31 54.74, 461.22 48.02, 456.64 46.04 C452.05 44.07, 446.97 46.04, 443.22 45.52 C439.48 45, 435.61 43.51, 434.18 42.94 C432.74 42.37, 434.44 43.09, 434.6 42.09 C434.76 41.1, 435.88 39.48, 435.14 36.95 C434.4 34.42, 433.26 32.62, 430.15 26.9 C427.04 21.17, 422.06 10.05, 416.48 2.6 C410.89 -4.86, 403.73 -12.09, 396.65 -17.83 C389.57 -23.57, 379.66 -28.11, 373.99 -31.86 C368.33 -35.6, 365.47 -39.18, 362.66 -40.32 C359.84 -41.46, 359.13 -38.96, 357.11 -38.67 C355.09 -38.38, 352.36 -40.54, 350.54 -38.59 C348.72 -36.64, 363.9 -28.36, 346.2 -26.98 C328.5 -25.6, 265.91 -30.82, 244.36 -30.29 C222.81 -29.76, 223.48 -24.92, 216.88 -23.8 C210.28 -22.67, 208.99 -24.8, 204.76 -23.54 C200.54 -22.28, 194.57 -17.68, 191.55 -16.25 C188.53 -14.82, 188.81 -16.03, 186.65 -14.95 C184.49 -13.88, 180.27 -11.74, 178.59 -9.77 C176.91 -7.8, 177.84 -7.7, 176.56 -3.11 C175.27 1.47, 172.39 13.69, 170.88 17.74 C169.36 21.78, 169.42 19.96, 167.47 21.16 C165.53 22.36, 166.98 24.55, 159.22 24.92 C151.45 25.29, 131.57 24.15, 120.9 23.37 C110.23 22.59, 101.99 20.25, 95.18 20.24 C88.38 20.23, 85.76 22.39, 80.08 23.31 C74.4 24.24, 67.94 25.88, 61.08 25.8 C54.23 25.72, 43.98 23.75, 38.93 22.85 C33.89 21.95, 32.68 21.15, 30.82 20.4 C28.96 19.64, 30.47 20.25, 27.77 18.33 C25.06 16.41, 18.3 11.24, 14.6 8.88 C10.9 6.52, 8.07 5.95, 5.57 4.17 C3.07 2.39, 0.83 -1, -0.4 -1.8 C-1.64 -2.6, -1.52 -0.56, -1.85 -0.63" stroke="none" stroke-width="0" fill="#228be6" fill-rule="evenodd"></path><path fill="#1e1e1e" d="M 1.49,0.49 Q 1.49,0.49 0.83,2.45 0.16,4.41 -0.65,6.34 -1.48,8.27 -2.76,10.45 -4.04,12.64 -6.69,16.95 -9.34,21.26 -11.80,25.69 -14.25,30.12 -16.51,33.91 -18.77,37.70 -20.65,40.84 -22.54,43.98 -24.10,46.83 -25.66,49.69 -27.06,52.23 -28.46,54.77 -29.60,57.06 -30.74,59.35 -31.21,60.74 -31.68,62.13 -32.39,63.56 -33.09,64.99 -33.52,66.19 -33.95,67.40 -34.31,68.48 -34.68,69.55 -35.18,70.58 -35.68,71.61 -36.27,73.15 -36.86,74.70 -37.27,75.72 -37.68,76.74 -38.39,77.83 -39.11,78.92 -38.60,77.88 -38.09,76.85 -37.55,77.85 -37.02,78.85 -36.80,80.41 -36.58,81.98 -36.58,83.27 -36.58,84.56 -36.63,86.71 -36.68,88.86 -36.78,91.57 -36.87,94.27 -36.97,97.91 -37.07,101.55 -37.15,109.04 -37.24,116.52 -37.30,123.14 -37.37,129.76 -37.42,136.02 -37.47,142.28 -37.50,148.38 -37.54,154.49 -37.77,160.55 -38.00,166.61 -38.26,170.65 -38.51,174.69 -38.82,179.52 -39.13,184.34 -39.45,188.89 -39.76,193.44 -40.08,197.87 -40.39,202.30 -40.53,206.10 -40.66,209.91 -40.72,212.21 -40.78,214.52 -40.95,216.77 -41.12,219.03 -41.12,220.81 -41.12,222.59 -41.05,224.03 -40.98,225.47 -40.90,226.61 -40.81,227.75 -40.67,228.98 -40.52,230.22 -38.95,231.46 -37.37,232.69 -36.63,233.64 -35.88,234.59 -34.38,236.34 -32.87,238.09 -31.89,239.08 -30.91,240.06 -29.70,241.36 -28.48,242.67 -27.11,244.07 -25.73,245.48 -24.23,246.97 -22.72,248.46 -21.21,249.72 -19.70,250.99 -18.10,252.02 -16.50,253.05 -14.84,254.19 -13.18,255.33 -11.51,256.30 -9.84,257.28 -8.74,257.68 -7.63,258.07 -6.29,258.60 -4.95,259.13 -3.72,259.54 -2.49,259.94 -1.15,260.34 0.19,260.74 1.26,260.96 2.34,261.19 3.45,261.37 4.56,261.55 6.12,261.93 7.69,262.31 9.95,262.82 12.21,263.33 14.22,263.71 16.23,264.09 18.32,264.43 20.40,264.77 22.74,265.09 25.08,265.40 27.53,265.70 29.99,266.00 32.49,266.28 35.00,266.57 37.52,266.84 40.04,267.12 42.81,267.40 45.57,267.68 48.44,267.95 51.31,268.23 54.23,268.51 57.14,268.78 59.85,269.05 62.55,269.31 65.39,269.58 68.23,269.85 70.87,269.96 73.50,270.08 76.08,270.13 78.66,270.18 81.22,270.20 83.78,270.22 86.33,270.23 88.87,270.24 91.20,270.24 93.53,270.25 95.97,270.25 98.42,270.25 101.93,270.12 105.43,269.98 108.15,269.78 110.87,269.59 113.45,269.21 116.03,268.84 118.40,268.54 120.77,268.24 123.21,267.82 125.64,267.41 128.18,267.08 130.71,266.75 133.21,266.32 135.71,265.89 138.51,265.55 141.32,265.21 144.00,265.06 146.68,264.91 149.48,264.70 152.28,264.48 155.21,264.39 158.13,264.29 161.07,264.26 164.00,264.22 166.95,264.20 169.89,264.18 172.61,264.18 175.32,264.17 177.93,264.17 180.54,264.16 183.12,264.16 185.69,264.16 188.03,264.16 190.36,264.16 192.60,264.16 194.83,264.16 196.83,264.13 198.82,264.10 200.91,264.10 203.00,264.10 205.97,264.10 208.94,264.11 211.05,264.12 213.17,264.12 215.16,264.22 217.15,264.31 218.99,264.32 220.83,264.33 222.47,264.29 224.10,264.24 225.84,264.21 227.57,264.19 229.35,264.17 231.13,264.15 232.92,264.14 234.72,264.13 236.73,264.16 238.74,264.20 240.63,264.20 242.52,264.20 244.57,264.23 246.62,264.27 248.95,264.32 251.28,264.36 253.52,264.40 255.75,264.43 257.94,264.45 260.14,264.48 262.53,264.50 264.92,264.51 267.36,264.38 269.80,264.25 273.51,263.77 277.22,263.29 281.26,262.53 285.31,261.78 288.28,261.18 291.25,260.59 293.76,260.06 296.26,259.53 298.53,258.90 300.80,258.27 302.83,257.73 304.86,257.19 306.50,256.55 308.15,255.91 309.36,255.35 310.56,254.79 311.90,254.17 313.24,253.55 314.52,253.00 315.80,252.46 316.94,251.88 318.09,251.31 319.24,250.71 320.40,250.10 321.65,249.56 322.89,249.01 323.91,248.55 324.93,248.09 326.35,247.44 327.78,246.80 328.95,246.24 330.13,245.69 331.89,244.65 333.66,243.61 335.30,242.74 336.94,241.87 338.80,240.97 340.66,240.07 341.90,239.33 343.15,238.58 344.61,237.86 346.07,237.14 347.33,236.49 348.59,235.84 350.01,235.19 351.44,234.53 352.90,233.89 354.37,233.25 355.51,232.72 356.65,232.19 358.47,231.61 360.28,231.02 361.70,230.51 363.13,230.00 364.70,229.62 366.28,229.24 367.53,229.03 368.79,228.82 370.54,228.67 372.28,228.51 373.45,228.37 374.62,228.23 376.01,228.17 377.40,228.11 379.03,228.12 380.66,228.13 381.74,228.08 382.82,228.03 385.38,228.55 387.93,229.08 389.56,229.45 391.19,229.83 392.96,230.43 394.73,231.03 396.29,231.49 397.85,231.96 399.37,232.39 400.89,232.83 402.39,233.25 403.89,233.67 406.11,234.18 408.33,234.69 410.16,235.02 412.00,235.34 413.34,235.51 414.68,235.68 415.83,235.71 416.98,235.74 418.32,235.74 419.65,235.74 420.90,235.72 422.16,235.69 423.37,235.66 424.59,235.63 425.79,235.60 426.99,235.57 428.18,235.54 429.36,235.51 431.50,234.87 433.63,234.24 435.36,233.58 437.09,232.91 438.76,232.14 440.44,231.36 441.63,230.57 442.82,229.79 443.88,229.07 444.95,228.36 446.29,227.46 447.62,226.57 448.51,225.69 449.40,224.81 451.20,222.89 452.99,220.98 454.76,218.73 456.53,216.48 457.47,215.22 458.41,213.97 459.09,212.80 459.77,211.63 460.41,210.33 461.05,209.03 461.51,207.83 461.97,206.62 462.41,205.30 462.84,203.97 463.27,202.55 463.71,201.13 464.12,198.43 464.54,195.72 464.56,194.38 464.58,193.04 464.55,191.94 464.52,190.85 464.44,189.24 464.35,187.63 463.53,186.63 462.71,185.63 461.36,185.17 460.01,184.70 458.63,184.39 457.24,184.09 455.57,183.74 453.90,183.40 452.35,183.06 450.81,182.71 449.41,182.38 448.00,182.05 446.40,181.28 444.79,180.51 444.31,179.41 443.82,178.30 444.41,176.31 445.00,174.32 446.19,173.37 447.37,172.42 449.01,171.50 450.65,170.57 451.99,169.69 453.32,168.80 455.39,167.44 457.46,166.09 459.53,164.57 461.59,163.04 464.14,161.11 466.70,159.19 469.48,156.88 472.27,154.58 474.92,152.18 477.56,149.77 481.50,145.62 485.45,141.48 488.43,138.10 491.41,134.73 493.54,132.01 495.68,129.29 496.90,127.61 498.12,125.93 499.13,124.22 500.13,122.50 500.87,120.91 501.61,119.32 502.22,117.92 502.83,116.52 503.09,115.47 503.36,114.42 503.40,112.55 503.43,110.68 502.32,109.35 501.20,108.02 499.05,106.70 496.91,105.38 495.69,104.72 494.48,104.06 493.38,103.46 492.28,102.85 490.57,101.81 488.85,100.77 487.40,100.02 485.96,99.27 484.83,98.80 483.70,98.32 482.69,97.94 481.68,97.56 480.07,96.87 478.47,96.17 477.23,95.72 475.98,95.26 474.92,94.62 473.86,93.98 473.30,93.05 472.74,92.12 472.64,90.64 472.54,89.15 472.80,87.31 473.06,85.48 473.40,84.30 473.74,83.11 474.22,80.83 474.70,78.54 475.00,76.98 475.30,75.43 475.47,73.82 475.65,72.22 475.73,70.67 475.82,69.12 475.77,67.54 475.73,65.95 475.17,64.44 474.62,62.93 473.67,61.31 472.73,59.70 471.27,58.18 469.82,56.65 467.95,55.27 466.09,53.89 462.77,52.00 459.46,50.12 456.00,48.93 452.54,47.74 450.00,46.95 447.45,46.15 445.55,45.72 443.64,45.29 442.04,45.18 440.43,45.06 439.34,45.09 438.26,45.12 436.64,45.24 435.02,45.36 434.57,45.41 434.12,45.46 433.84,45.43 433.57,45.39 433.32,45.29 433.06,45.19 432.84,45.03 432.62,44.87 432.44,44.66 432.26,44.45 432.13,44.21 432.01,43.96 431.95,43.69 431.89,43.43 431.89,43.15 431.89,42.88 431.96,42.61 432.03,42.35 432.17,42.11 432.30,41.86 432.48,41.66 432.67,41.46 432.90,41.31 433.12,41.15 433.38,41.06 433.64,40.97 433.91,40.94 434.19,40.91 433.50,39.72 432.82,38.53 432.63,37.21 432.43,35.88 431.83,34.12 431.23,32.36 428.04,27.53 424.84,22.70 421.45,17.71 418.06,12.72 411.63,4.71 405.19,-3.29 401.24,-7.95 397.28,-12.61 393.14,-16.49 389.00,-20.38 385.01,-23.71 381.02,-27.05 377.06,-29.69 373.11,-32.33 369.77,-34.06 366.43,-35.79 364.36,-36.50 362.29,-37.21 360.74,-37.07 359.19,-36.92 357.60,-36.39 356.00,-35.85 355.14,-35.18 354.28,-34.52 353.15,-33.71 352.01,-32.89 351.21,-32.14 350.41,-31.39 349.33,-30.44 348.25,-29.50 347.30,-28.37 346.35,-27.24 345.49,-26.56 344.63,-25.88 342.83,-25.66 341.02,-25.45 339.58,-25.46 338.13,-25.47 333.36,-25.63 328.58,-25.80 323.76,-25.93 318.94,-26.06 313.44,-26.15 307.95,-26.25 301.82,-26.32 295.69,-26.40 289.30,-26.45 282.90,-26.50 276.39,-26.54 269.88,-26.58 262.95,-26.61 256.03,-26.64 251.41,-26.50 246.80,-26.37 241.73,-26.13 236.66,-25.88 231.39,-25.59 226.12,-25.30 221.43,-24.64 216.75,-23.99 212.82,-23.24 208.90,-22.48 205.57,-21.55 202.24,-20.63 199.37,-19.66 196.51,-18.68 194.81,-17.92 193.10,-17.16 191.51,-16.31 189.91,-15.46 188.55,-14.58 187.18,-13.71 185.29,-12.19 183.39,-10.68 181.78,-8.54 180.18,-6.41 179.26,-4.68 178.35,-2.95 177.73,-1.22 177.12,0.51 176.66,2.13 176.19,3.74 175.74,5.45 175.30,7.16 175.09,8.31 174.88,9.45 174.56,10.81 174.24,12.17 173.78,13.43 173.32,14.68 172.96,15.68 172.61,16.69 172.10,17.71 171.58,18.72 170.66,19.88 169.74,21.03 168.86,21.84 167.98,22.64 166.52,23.34 165.06,24.03 163.29,24.41 161.52,24.80 157.07,25.13 152.61,25.46 148.50,25.54 144.39,25.63 139.18,25.63 133.97,25.62 129.82,25.60 125.66,25.57 121.88,25.21 118.10,24.85 115.06,24.54 112.01,24.22 109.26,23.93 106.51,23.64 104.67,23.57 102.84,23.50 100.98,23.35 99.12,23.21 97.34,23.16 95.56,23.12 93.95,23.14 92.34,23.17 90.97,23.23 89.60,23.29 88.49,23.36 87.37,23.44 85.41,23.57 83.45,23.70 82.09,23.89 80.72,24.09 79.53,24.31 78.34,24.53 76.31,24.94 74.27,25.36 71.95,25.70 69.63,26.03 68.50,26.17 67.36,26.31 65.88,26.37 64.40,26.42 63.04,26.53 61.68,26.64 59.72,26.61 57.77,26.57 55.92,26.52 54.06,26.47 52.03,26.38 49.99,26.28 47.89,26.18 45.78,26.08 44.35,26.14 42.92,26.19 41.29,25.97 39.65,25.74 38.18,25.55 36.72,25.35 35.43,25.07 34.13,24.78 32.99,24.31 31.84,23.83 30.53,23.31 29.21,22.79 28.28,22.08 27.35,21.36 26.06,20.36 24.77,19.36 23.19,18.72 21.61,18.08 20.23,17.43 18.84,16.78 17.00,15.68 15.17,14.58 14.18,13.95 13.20,13.31 11.74,12.32 10.29,11.32 9.28,10.64 8.28,9.96 7.30,9.20 6.32,8.43 4.93,7.52 3.54,6.60 2.44,5.52 1.34,4.45 0.02,3.13 -1.30,1.81 -2.12,0.98 -2.94,0.15 -3.42,-0.36 -3.91,-0.89 -4.17,-1.22 -4.42,-1.55 -4.59,-1.93 -4.76,-2.31 -4.83,-2.72 -4.90,-3.12 -4.88,-3.54 -4.85,-3.95 -4.72,-4.35 -4.60,-4.74 -4.38,-5.10 -4.17,-5.45 -3.87,-5.74 -3.58,-6.04 -3.22,-6.25 -2.86,-6.46 -2.47,-6.58 -2.07,-6.71 -1.65,-6.73 -1.24,-6.75 -0.83,-6.68 -0.42,-6.60 -0.05,-6.43 0.32,-6.25 0.65,-6.00 0.97,-5.74 1.91,-3.50 2.85,-1.26 2.98,-0.77 3.10,-0.28 3.07,0.21 3.03,0.72 2.84,1.18 2.64,1.65 2.31,2.03 1.98,2.41 1.54,2.66 1.10,2.91 0.61,3.01 0.11,3.11 -0.38,3.05 -0.88,2.99 -1.34,2.77 -1.79,2.55 -2.15,2.20 -2.51,1.84 -2.74,1.39 -2.97,0.94 -3.04,0.44 -3.12,-0.05 -3.03,-0.54 -2.94,-1.04 -2.69,-1.48 -2.45,-1.93 -2.08,-2.27 -1.70,-2.61 -1.24,-2.81 -0.78,-3.02 -0.28,-3.06 0.22,-3.11 0.71,-2.99 1.20,-2.87 1.63,-2.61 2.06,-2.34 2.38,-1.95 2.70,-1.56 2.88,-1.09 3.05,-0.61 3.07,-0.11 3.09,0.39 2.95,0.87 2.81,1.35 2.51,1.77 2.22,2.18 1.82,2.48 1.41,2.78 0.93,2.93 0.45,3.08 -0.05,3.07 -0.55,3.07 -1.03,2.90 -1.50,2.73 -1.90,2.41 -2.30,2.10 -2.57,1.68 -2.85,1.26 -2.85,1.26 -2.85,1.26 -3.38,0.18 -3.91,-0.89 -4.17,-1.22 -4.42,-1.55 -4.59,-1.93 -4.76,-2.31 -4.83,-2.72 -4.90,-3.12 -4.88,-3.54 -4.85,-3.95 -4.72,-4.35 -4.60,-4.74 -4.38,-5.10 -4.17,-5.45 -3.87,-5.74 -3.58,-6.04 -3.22,-6.25 -2.86,-6.46 -2.47,-6.58 -2.07,-6.71 -1.65,-6.73 -1.24,-6.75 -0.83,-6.68 -0.42,-6.60 -0.05,-6.43 0.32,-6.25 0.65,-6.00 0.97,-5.74 1.44,-5.16 1.91,-4.58 2.76,-3.68 3.61,-2.77 4.87,-1.59 6.14,-0.41 7.37,0.68 8.59,1.78 9.83,2.82 11.07,3.86 11.94,4.57 12.80,5.29 14.06,6.24 15.31,7.19 16.74,8.12 18.16,9.05 19.92,10.04 21.68,11.04 22.96,11.68 24.23,12.33 25.63,13.01 27.04,13.69 27.88,14.33 28.73,14.98 29.79,15.95 30.86,16.91 31.70,17.87 32.55,18.83 33.94,19.62 35.32,20.40 36.35,20.74 37.37,21.07 38.86,21.33 40.35,21.58 41.64,21.85 42.92,22.11 44.35,22.16 45.77,22.21 47.87,22.11 49.97,22.00 51.98,21.88 53.99,21.76 55.80,21.66 57.60,21.55 59.36,21.39 61.12,21.23 62.63,21.04 64.14,20.86 65.40,20.78 66.67,20.71 67.95,20.55 69.23,20.38 71.16,20.14 73.09,19.89 75.21,19.53 77.33,19.16 78.69,19.09 80.05,19.01 81.75,19.01 83.46,19.01 85.43,19.15 87.39,19.29 88.52,19.38 89.64,19.46 91.02,19.55 92.41,19.64 94.05,19.72 95.70,19.81 97.56,19.92 99.43,20.03 101.23,20.24 103.03,20.45 104.90,20.60 106.78,20.76 109.54,21.00 112.29,21.24 115.32,21.48 118.36,21.73 122.00,21.99 125.64,22.25 129.78,22.15 133.92,22.05 139.06,21.88 144.20,21.71 148.17,21.40 152.15,21.10 156.29,20.51 160.44,19.91 161.75,19.61 163.06,19.31 164.54,18.59 166.03,17.87 167.23,16.40 168.43,14.94 168.91,13.95 169.39,12.97 169.89,12.03 170.38,11.08 170.81,9.78 171.24,8.47 171.64,7.36 172.04,6.25 172.57,4.49 173.09,2.73 173.69,1.10 174.29,-0.53 175.02,-2.43 175.75,-4.33 176.77,-6.25 177.79,-8.18 179.60,-10.62 181.40,-13.05 183.46,-14.79 185.52,-16.53 187.04,-17.34 188.56,-18.15 190.28,-18.97 192.01,-19.78 193.83,-20.49 195.65,-21.20 198.59,-22.20 201.52,-23.20 204.95,-24.16 208.38,-25.12 212.38,-25.90 216.37,-26.68 221.17,-27.36 225.96,-28.03 231.24,-28.35 236.51,-28.66 241.61,-28.94 246.70,-29.22 251.37,-29.39 256.03,-29.57 262.95,-29.59 269.88,-29.62 276.39,-29.66 282.90,-29.70 289.30,-29.75 295.69,-29.81 301.82,-29.88 307.95,-29.95 313.44,-30.05 318.94,-30.15 323.76,-30.28 328.58,-30.41 333.34,-30.58 338.10,-30.76 339.51,-30.78 340.91,-30.81 342.37,-31.05 343.83,-31.29 344.68,-32.03 345.52,-32.77 346.67,-33.68 347.83,-34.60 348.89,-35.35 349.95,-36.10 351.21,-36.82 352.46,-37.54 353.77,-38.18 355.08,-38.83 357.08,-39.37 359.08,-39.92 361.10,-39.87 363.12,-39.82 365.41,-39.05 367.71,-38.27 371.19,-36.50 374.68,-34.72 378.79,-32.02 382.90,-29.32 386.99,-25.97 391.08,-22.63 395.40,-18.67 399.72,-14.72 403.79,-10.10 407.86,-5.47 414.50,2.54 421.13,10.56 424.70,15.45 428.27,20.34 431.91,25.42 435.55,30.49 436.65,32.70 437.75,34.91 438.07,37.48 438.39,40.05 438.26,41.36 438.13,42.67 437.49,43.83 436.85,44.99 435.48,45.23 434.12,45.46 433.84,45.43 433.57,45.39 433.32,45.29 433.06,45.19 432.84,45.03 432.62,44.87 432.44,44.66 432.26,44.45 432.13,44.21 432.01,43.96 431.95,43.69 431.89,43.43 431.89,43.15 431.89,42.88 431.96,42.61 432.03,42.35 432.17,42.11 432.30,41.87 432.48,41.66 432.67,41.46 432.89,41.31 433.12,41.15 433.38,41.06 433.64,40.97 433.91,40.94 434.18,40.91 434.64,40.98 435.10,41.04 436.81,41.27 438.53,41.49 439.66,41.68 440.79,41.87 442.55,42.14 444.31,42.41 446.30,42.88 448.30,43.36 450.90,44.11 453.50,44.87 457.24,46.10 460.99,47.33 464.51,49.22 468.03,51.11 470.21,52.57 472.38,54.03 474.24,55.75 476.10,57.47 477.44,59.35 478.79,61.23 479.71,63.39 480.64,65.55 480.82,67.40 481.00,69.25 481.00,70.88 481.01,72.51 480.99,74.36 480.97,76.21 480.82,77.87 480.68,79.54 480.48,80.94 480.29,82.35 480.05,83.58 479.81,84.81 479.41,86.49 479.02,88.18 479.03,89.36 479.05,90.54 480.02,91.07 480.99,91.60 482.29,92.36 483.58,93.12 484.61,93.61 485.64,94.11 486.81,94.69 487.99,95.28 489.46,96.02 490.93,96.75 492.87,97.60 494.80,98.45 495.83,99.07 496.86,99.69 498.17,100.40 499.47,101.11 500.88,101.92 502.29,102.73 503.49,103.57 504.69,104.41 505.61,105.38 506.53,106.35 507.17,108.66 507.81,110.96 507.66,112.17 507.51,113.38 507.21,114.53 506.92,115.68 506.39,116.86 505.86,118.03 505.10,119.37 504.34,120.70 503.46,122.32 502.59,123.95 501.51,125.77 500.43,127.59 499.19,129.32 497.96,131.06 495.81,133.87 493.66,136.69 490.69,140.15 487.72,143.61 483.77,147.89 479.82,152.18 477.21,154.72 474.59,157.27 471.87,159.74 469.15,162.21 466.76,164.29 464.37,166.38 462.42,168.19 460.48,170.00 458.62,171.68 456.76,173.36 455.39,174.52 454.02,175.68 452.15,176.35 450.28,177.03 449.35,176.25 448.42,175.47 449.58,175.74 450.74,176.02 452.23,176.43 453.71,176.85 455.35,177.22 456.99,177.59 458.58,177.98 460.18,178.37 461.65,178.82 463.12,179.28 464.21,179.73 465.30,180.18 466.31,181.00 467.33,181.82 468.26,183.16 469.20,184.49 469.38,186.08 469.55,187.66 469.44,189.30 469.32,190.94 469.25,192.08 469.18,193.21 469.10,194.60 469.02,196.00 468.96,198.23 468.90,200.46 468.56,201.48 468.22,202.50 467.77,203.98 467.33,205.46 466.83,206.93 466.33,208.40 465.76,209.74 465.18,211.08 464.45,212.55 463.72,214.02 462.90,215.34 462.08,216.66 461.09,218.03 460.10,219.40 459.06,220.74 458.03,222.09 457.24,223.08 456.45,224.08 454.49,226.12 452.53,228.16 451.34,229.21 450.16,230.27 448.76,231.25 447.35,232.23 446.26,232.85 445.17,233.47 443.78,234.33 442.40,235.20 440.69,236.14 438.98,237.09 437.09,238.06 435.19,239.04 433.58,239.58 431.97,240.13 430.67,240.33 429.38,240.54 428.18,240.51 426.97,240.48 425.77,240.44 424.56,240.40 423.32,240.35 422.09,240.31 420.80,240.25 419.51,240.19 418.08,240.10 416.64,240.02 415.31,239.85 413.97,239.68 412.68,239.38 411.38,239.08 409.51,238.80 407.64,238.52 405.16,238.18 402.69,237.84 401.19,237.39 399.68,236.95 398.15,236.49 396.62,236.03 395.03,235.55 393.44,235.06 391.81,234.57 390.19,234.08 388.73,233.72 387.28,233.36 385.06,233.16 382.85,232.96 381.78,232.92 380.71,232.88 379.12,232.92 377.53,232.96 376.26,232.97 374.98,232.98 373.89,233.01 372.81,233.05 370.05,233.36 367.29,233.68 365.94,233.96 364.60,234.25 363.19,234.72 361.78,235.20 360.13,235.85 358.48,236.51 357.33,236.95 356.19,237.39 354.75,238.02 353.32,238.66 351.95,239.27 350.58,239.89 349.28,240.50 347.98,241.10 346.65,241.74 345.31,242.37 344.00,243.08 342.69,243.79 341.03,244.81 339.36,245.83 336.77,247.39 334.17,248.95 333.11,249.51 332.05,250.06 330.90,250.53 329.76,251.00 328.22,251.74 326.68,252.49 325.62,252.86 324.56,253.23 323.41,253.63 322.27,254.03 321.02,254.57 319.77,255.11 318.46,255.62 317.15,256.13 315.88,256.52 314.61,256.91 313.17,257.42 311.73,257.93 310.42,258.31 309.11,258.68 307.33,259.23 305.54,259.78 303.53,260.30 301.51,260.83 299.16,261.48 296.81,262.14 294.30,262.68 291.78,263.21 288.80,263.82 285.81,264.43 281.69,265.21 277.57,265.99 273.77,266.50 269.96,267.01 267.44,267.17 264.92,267.33 262.53,267.35 260.14,267.36 257.94,267.39 255.75,267.41 253.52,267.45 251.28,267.48 248.95,267.53 246.62,267.57 244.57,267.61 242.52,267.64 240.63,267.64 238.73,267.64 236.73,267.68 234.72,267.71 232.92,267.70 231.12,267.68 229.34,267.65 227.55,267.63 225.80,267.58 224.06,267.53 222.40,267.44 220.74,267.34 218.85,267.25 216.96,267.15 215.06,266.98 213.17,266.82 211.05,266.83 208.94,266.83 205.97,266.84 203.00,266.85 200.91,266.85 198.82,266.85 196.83,266.82 194.83,266.79 192.60,266.79 190.36,266.79 188.03,266.79 185.69,266.79 183.12,266.79 180.55,266.79 177.94,266.79 175.32,266.80 172.62,266.80 169.91,266.81 166.97,266.83 164.04,266.84 161.13,266.88 158.21,266.92 155.35,267.01 152.49,267.10 149.65,267.32 146.82,267.53 144.23,267.67 141.63,267.81 138.89,268.15 136.16,268.48 133.60,268.92 131.05,269.35 128.57,269.68 126.09,270.00 123.59,270.42 121.10,270.85 118.75,271.15 116.40,271.44 113.73,271.83 111.06,272.21 108.30,272.41 105.53,272.61 101.98,272.75 98.42,272.89 95.97,272.89 93.52,272.89 91.19,272.88 88.86,272.88 86.31,272.87 83.76,272.87 81.19,272.85 78.61,272.83 76.00,272.78 73.39,272.74 70.69,272.63 67.98,272.51 65.14,272.26 62.29,272.00 59.59,271.74 56.90,271.49 53.98,271.23 51.06,270.97 48.18,270.72 45.31,270.47 42.53,270.22 39.76,269.98 37.23,269.74 34.70,269.51 32.18,269.29 29.67,269.07 27.20,268.85 24.73,268.64 22.35,268.44 19.97,268.23 17.83,268.05 15.69,267.86 13.61,267.64 11.53,267.42 9.07,267.15 6.61,266.87 5.11,266.53 3.60,266.18 2.39,265.89 1.18,265.59 0.02,265.22 -1.13,264.85 -2.56,264.36 -3.99,263.86 -5.26,263.31 -6.54,262.77 -7.86,262.12 -9.19,261.48 -10.35,260.85 -11.51,260.21 -13.31,259.22 -15.12,258.22 -16.74,257.17 -18.37,256.11 -20.20,255.04 -22.03,253.97 -23.71,252.74 -25.39,251.51 -27.09,250.19 -28.79,248.88 -30.42,247.58 -32.04,246.29 -33.33,245.13 -34.63,243.97 -35.88,242.84 -37.12,241.70 -38.02,240.68 -38.92,239.66 -40.10,238.13 -41.27,236.60 -42.15,235.68 -43.03,234.76 -43.98,233.56 -44.94,232.35 -44.89,231.28 -44.83,230.20 -44.68,228.95 -44.52,227.71 -44.41,226.55 -44.29,225.40 -44.17,223.94 -44.04,222.48 -43.90,220.66 -43.77,218.84 -43.61,216.65 -43.45,214.45 -43.40,212.13 -43.35,209.82 -43.22,205.96 -43.09,202.11 -42.79,197.69 -42.49,193.26 -42.20,188.72 -41.91,184.17 -41.63,179.35 -41.35,174.53 -41.14,170.52 -40.93,166.51 -40.75,160.50 -40.58,154.49 -40.62,148.38 -40.65,142.28 -40.71,136.02 -40.76,129.77 -40.84,123.15 -40.92,116.53 -41.02,109.06 -41.13,101.58 -41.29,97.99 -41.45,94.39 -41.68,91.82 -41.91,89.24 -42.29,86.96 -42.66,84.67 -42.71,82.87 -42.75,81.07 -43.13,79.95 -43.50,78.84 -43.50,77.40 -43.49,75.96 -42.69,74.88 -41.89,73.81 -41.16,72.37 -40.43,70.94 -39.43,69.46 -38.43,67.98 -37.90,66.94 -37.38,65.90 -36.72,64.61 -36.07,63.33 -35.29,62.12 -34.52,60.92 -33.82,59.55 -33.12,58.18 -31.96,55.83 -30.80,53.48 -29.41,50.94 -28.02,48.40 -26.44,45.50 -24.86,42.59 -22.99,39.45 -21.12,36.30 -18.91,32.54 -16.69,28.78 -14.23,24.28 -11.77,19.78 -9.17,15.48 -6.57,11.18 -5.42,9.13 -4.27,7.09 -3.50,5.27 -2.74,3.45 -2.12,1.48 -1.49,-0.49 -1.41,-0.66 -1.33,-0.83 -1.21,-0.98 -1.09,-1.13 -0.94,-1.24 -0.79,-1.36 -0.62,-1.43 -0.44,-1.51 -0.26,-1.54 -0.07,-1.57 0.11,-1.56 0.30,-1.54 0.48,-1.48 0.66,-1.42 0.82,-1.32 0.98,-1.22 1.12,-1.09 1.25,-0.95 1.35,-0.79 1.44,-0.62 1.50,-0.44 1.55,-0.26 1.56,-0.07 1.57,0.11 1.53,0.30 1.49,0.49 1.49,0.49 L 1.49,0.49 Z"></path></g></svg>