<svg version="1.1" xmlns="http://www.w3.org/2000/svg" viewBox="0 0 581.55078125 346.40234375" width="1163.1015625" height="692.8046875">
  <!-- svg-source:excalidraw -->
  
  <defs>
    <style class="style-fonts">
      
    </style>
    
  </defs>
  <g transform="translate(57.25 41.73046875) rotate(0 233.525390625 131.470703125)" stroke="none"><path d="M2.33 1.64 C2.08 1.22, 3.04 -3.77, -0.88 -2.73 C-4.81 -1.7, -16.04 5.68, -21.21 7.86 C-26.38 10.04, -29.76 10.19, -31.9 10.34 C-34.03 10.49, -33.74 8.87, -34.01 8.76 C-34.28 8.66, -34.72 10.45, -33.52 9.73 C-32.32 9, -30.27 5.98, -26.8 4.41 C-23.32 2.83, -15.79 0.05, -12.66 0.26 C-9.53 0.47, -8.72 3.76, -8.02 5.67 C-7.32 7.57, -8.39 8.13, -8.47 11.69 C-8.55 15.25, -7.2 22.12, -8.51 27.02 C-9.83 31.93, -14.41 37.99, -16.37 41.12 C-18.32 44.24, -20.05 45.55, -20.26 45.8 C-20.48 46.05, -18.57 43.21, -17.68 42.61 C-16.79 42, -17.05 42.64, -14.91 42.18 C-12.77 41.73, -7.84 38.42, -4.85 39.9 C-1.85 41.37, 1.33 48.26, 3.06 51.05 C4.79 53.84, 5 53.67, 5.54 56.65 C6.07 59.63, 6.53 66.19, 6.27 68.95 C6.01 71.7, 5.58 70.77, 4 73.16 C2.42 75.54, -0.73 81.07, -3.18 83.24 C-5.63 85.42, -8.04 85.63, -10.7 86.19 C-13.36 86.75, -17.86 84.47, -19.13 86.61 C-20.4 88.75, -17.57 95.03, -18.33 99.04 C-19.1 103.06, -21.35 106.34, -23.73 110.68 C-26.11 115.02, -30.07 121.56, -32.61 125.09 C-35.15 128.61, -36.92 129.51, -38.97 131.83 C-41.02 134.14, -43.96 138.77, -44.92 139 C-45.88 139.22, -46.27 134.71, -44.74 133.18 C-43.22 131.65, -38.72 130.98, -35.78 129.84 C-32.83 128.7, -28.84 125.46, -27.07 126.34 C-25.29 127.23, -25.29 131.11, -25.13 135.14 C-24.96 139.17, -25.34 143.22, -26.08 150.52 C-26.82 157.81, -27.23 171.42, -29.59 178.93 C-31.94 186.43, -37.54 191.65, -40.2 195.52 C-42.85 199.39, -46.15 201.24, -45.51 202.15 C-44.87 203.05, -40.2 200.92, -36.36 200.95 C-32.51 200.98, -26.54 201.71, -22.44 202.34 C-18.34 202.98, -14.66 204.21, -11.75 204.76 C-8.85 205.31, -8.01 203.62, -4.99 205.64 C-1.96 207.65, 2.96 211.95, 6.38 216.86 C9.8 221.77, 14.4 228.75, 15.55 235.1 C16.71 241.44, 13.58 249.32, 13.32 254.95 C13.06 260.58, 15.6 263.72, 14 268.89 C12.41 274.05, 6.99 281.44, 3.75 285.94 C0.5 290.43, -3.42 294.27, -5.47 295.88 C-7.51 297.49, -8.8 296.77, -8.54 295.59 C-8.28 294.41, -5.95 290.7, -3.92 288.79 C-1.89 286.89, -1.23 285.89, 3.63 284.16 C8.49 282.44, 17.53 279.53, 25.22 278.44 C32.91 277.35, 44.29 276.69, 49.74 277.61 C55.2 278.54, 55.56 281.63, 57.94 283.98 C60.31 286.33, 63.08 291.01, 63.99 291.72 C64.9 292.44, 62.81 288.61, 63.4 288.29 C63.99 287.98, 64.52 291.63, 67.52 289.83 C70.52 288.03, 73.07 282.1, 81.4 277.5 C89.74 272.89, 110.01 264.7, 117.5 262.19 C124.99 259.68, 123.68 262.37, 126.36 262.44 C129.05 262.5, 132.28 261.53, 133.61 262.6 C134.94 263.66, 132.64 268.5, 134.34 268.84 C136.04 269.17, 135.19 266.38, 143.8 264.59 C152.41 262.81, 172.3 258.82, 186.02 258.11 C199.73 257.4, 217.16 259.07, 226.07 260.32 C234.99 261.57, 236.47 264.02, 239.48 265.62 C242.49 267.21, 243.12 268.11, 244.13 269.87 C245.14 271.64, 245.28 274.77, 245.53 276.19 C245.78 277.6, 246.79 277.49, 245.64 278.38 C244.48 279.28, 238.01 282.52, 238.6 281.56 C239.2 280.59, 245.91 274.25, 249.2 272.58 C252.5 270.9, 253.31 272.65, 258.36 271.5 C263.42 270.35, 272.94 267.07, 279.54 265.69 C286.14 264.3, 294.8 263.22, 297.96 263.18 C301.13 263.14, 297.83 264.46, 298.52 265.45 C299.22 266.45, 301.46 268.1, 302.12 269.14 C302.79 270.17, 301.85 271.21, 302.51 271.65 C303.18 272.09, 300.12 276.32, 306.12 271.78 C312.12 267.24, 329.19 251.96, 338.5 244.42 C347.8 236.88, 356.37 229.21, 361.96 226.53 C367.55 223.85, 369.33 228.21, 372.03 228.34 C374.73 228.46, 377.17 226.97, 378.16 227.27 C379.15 227.57, 377.85 229.06, 377.96 230.13 C378.08 231.19, 376.41 233.55, 378.87 233.68 C381.34 233.81, 386.09 233.29, 392.74 230.9 C399.39 228.52, 412.68 223.06, 418.78 219.39 C424.87 215.72, 429.21 209.35, 429.32 208.89 C429.43 208.43, 420.22 216.05, 419.43 216.62 C418.65 217.2, 418.86 216, 424.64 212.34 C430.41 208.68, 444.77 201.15, 454.08 194.67 C463.38 188.19, 475.71 176.74, 480.46 173.47 C485.21 170.21, 482.55 175.47, 482.56 175.07 C482.56 174.68, 476.46 177.41, 480.49 171.1 C484.52 164.8, 501.06 145.89, 506.73 137.24 C512.39 128.6, 513.39 123.04, 514.48 119.23 C515.57 115.42, 513.88 115.6, 513.26 114.41 C512.64 113.21, 512.81 112.17, 510.76 112.06 C508.71 111.94, 504.36 113.41, 500.99 113.73 C497.61 114.05, 492.28 114.46, 490.52 113.96 C488.76 113.46, 487.16 116.74, 490.41 110.74 C493.66 104.75, 506.19 85.08, 510.02 77.99 C513.85 70.9, 512.67 70.53, 513.38 68.22 C514.09 65.91, 517.33 64.29, 514.28 64.12 C511.22 63.95, 499.17 66.71, 495.05 67.18 C490.94 67.66, 490.34 67.58, 489.57 66.96 C488.8 66.35, 490.61 66.87, 490.44 63.48 C490.26 60.08, 487.65 52.8, 488.52 46.62 C489.39 40.43, 498.92 29.19, 495.64 26.35 C492.36 23.5, 473.81 32.42, 468.83 29.55 C463.84 26.67, 471.83 12.6, 465.72 9.1 C459.61 5.59, 438.08 9.41, 432.17 8.5 C426.27 7.6, 430.58 7.39, 430.29 3.66 C430 -0.06, 434.47 -10.4, 430.42 -13.85 C426.36 -17.3, 413.77 -15.49, 405.97 -17.04 C398.17 -18.58, 388.71 -21.4, 383.61 -23.12 C378.52 -24.83, 378.32 -25.6, 375.39 -27.33 C372.46 -29.06, 368.96 -34.05, 366.05 -33.51 C363.14 -32.98, 361.41 -26.91, 357.93 -24.12 C354.45 -21.33, 349.47 -18.8, 345.15 -16.77 C340.83 -14.74, 336.31 -13.65, 332.02 -11.92 C327.73 -10.19, 324.6 -7.27, 319.41 -6.39 C314.22 -5.51, 303.99 -5.22, 300.87 -6.66 C297.75 -8.11, 299.64 -11.52, 300.69 -15.05 C301.73 -18.58, 305.54 -25.98, 307.15 -27.85 C308.76 -29.72, 311.09 -28.19, 310.35 -26.25 C309.61 -24.32, 306.44 -19.43, 302.7 -16.23 C298.96 -13.04, 295.71 -10.79, 287.91 -7.1 C280.11 -3.41, 263.63 3, 255.89 5.9 C248.15 8.8, 248.63 10, 241.46 10.3 C234.3 10.61, 218.37 7.85, 212.88 7.73 C207.4 7.62, 209.4 10.24, 208.56 9.59 C207.73 8.94, 208.64 6.38, 207.87 3.81 C207.1 1.23, 205.29 -4.03, 203.95 -5.87 C202.61 -7.7, 202.13 -8.14, 199.86 -7.22 C197.59 -6.3, 195.03 -3.03, 190.32 -0.34 C185.6 2.35, 177.42 6.33, 171.56 8.92 C165.71 11.5, 161.35 14.36, 155.18 15.19 C149.01 16.02, 139.14 14.22, 134.52 13.91 C129.9 13.6, 129.66 13.55, 127.46 13.32 C125.25 13.09, 122.96 13.08, 121.3 12.54 C119.65 12, 121.42 10.2, 117.54 10.07 C113.66 9.94, 106.18 11.11, 98.05 11.76 C89.92 12.42, 79.44 13.6, 68.75 14.01 C58.06 14.42, 41.32 14.58, 33.91 14.22 C26.5 13.87, 25.62 13.25, 24.29 11.86 C22.96 10.48, 25.71 6.45, 25.93 5.92 C26.15 5.39, 26.94 8.21, 25.63 8.68 C24.32 9.15, 22.5 9.99, 18.05 8.74 C13.6 7.49, 1.79 2.95, -1.07 1.2" stroke="none" stroke-width="0" fill="#15aabf" fill-rule="evenodd"></path><path fill="#1e1e1e" d="M 0.41,2.07 Q 0.41,2.07 -0.84,2.37 -2.10,2.68 -4.25,3.37 -6.39,4.07 -8.60,4.89 -10.81,5.71 -13.01,6.59 -15.21,7.47 -16.83,8.14 -18.46,8.82 -20.03,9.39 -21.60,9.96 -23.12,10.47 -24.64,10.97 -25.93,11.45 -27.23,11.93 -28.47,12.21 -29.71,12.49 -31.61,12.09 -33.51,11.69 -34.01,10.62 -34.51,9.55 -34.38,8.47 -34.25,7.38 -33.54,6.35 -32.83,5.33 -30.77,3.80 -28.70,2.27 -27.55,1.80 -26.41,1.32 -24.88,0.93 -23.36,0.53 -22.00,0.23 -20.64,-0.05 -19.59,-0.22 -18.53,-0.39 -17.34,-0.47 -16.15,-0.55 -14.24,-0.62 -12.33,-0.69 -11.12,-0.30 -9.91,0.07 -9.02,0.68 -8.12,1.29 -7.10,3.20 -6.07,5.10 -5.61,6.38 -5.15,7.66 -4.94,9.29 -4.72,10.91 -4.70,12.63 -4.68,14.36 -4.72,16.12 -4.76,17.88 -4.87,19.87 -4.97,21.86 -5.23,24.02 -5.48,26.18 -6.23,28.50 -6.97,30.81 -7.88,33.01 -8.79,35.20 -9.27,36.56 -9.76,37.92 -10.51,39.47 -11.27,41.01 -12.05,42.32 -12.83,43.63 -13.45,44.55 -14.07,45.47 -14.89,46.62 -15.72,47.77 -17.83,47.80 -19.95,47.83 -20.24,45.90 -20.54,43.96 -19.79,43.02 -19.05,42.09 -17.39,41.06 -15.73,40.04 -13.64,39.50 -11.54,38.95 -10.25,38.84 -8.95,38.73 -7.88,38.68 -6.82,38.63 -5.61,38.63 -4.40,38.63 -2.91,39.17 -1.41,39.70 -0.14,40.69 1.12,41.68 2.20,42.96 3.28,44.24 4.59,46.15 5.90,48.06 6.45,49.33 7.00,50.60 7.43,51.62 7.86,52.63 8.21,53.93 8.57,55.23 8.66,57.83 8.76,60.43 8.78,62.36 8.81,64.29 8.62,65.97 8.44,67.66 7.95,69.33 7.45,71.01 6.49,72.75 5.52,74.48 4.84,75.64 4.16,76.80 3.18,78.01 2.20,79.22 1.17,80.34 0.14,81.45 -0.89,82.44 -1.94,83.43 -2.95,84.32 -3.97,85.21 -4.99,85.98 -6.01,86.74 -6.97,87.40 -7.94,88.06 -8.97,88.63 -10.01,89.20 -11.53,89.84 -13.05,90.49 -14.31,90.88 -15.58,91.26 -15.20,93.29 -14.82,95.31 -15.63,97.37 -16.45,99.44 -17.48,101.63 -18.51,103.83 -19.79,106.33 -21.08,108.83 -22.61,111.44 -24.14,114.05 -25.78,116.90 -27.42,119.76 -29.26,122.41 -31.10,125.06 -32.98,127.51 -34.85,129.97 -36.29,131.63 -37.73,133.30 -38.71,134.43 -39.70,135.56 -40.68,136.69 -41.65,137.83 -41.87,138.08 -42.10,138.34 -42.31,138.47 -42.53,138.60 -42.77,138.68 -43.02,138.76 -43.27,138.78 -43.53,138.80 -43.78,138.76 -44.03,138.71 -44.26,138.61 -44.50,138.51 -44.70,138.35 -44.90,138.20 -45.06,138.00 -45.22,137.80 -45.33,137.57 -45.44,137.34 -45.49,137.09 -45.54,136.83 -45.52,136.58 -45.51,136.32 -45.44,136.08 -45.36,135.83 -45.23,135.61 -45.10,135.39 -44.93,135.21 -44.75,135.03 -45.14,136.08 -45.53,137.12 -45.38,135.13 -45.23,133.14 -44.60,132.27 -43.97,131.40 -42.33,129.96 -40.68,128.52 -39.34,127.72 -38.00,126.93 -36.84,126.46 -35.69,125.98 -33.56,125.51 -31.43,125.03 -29.42,125.03 -27.41,125.03 -26.05,125.73 -24.70,126.43 -23.86,127.61 -23.02,128.79 -22.60,130.08 -22.19,131.38 -22.05,132.92 -21.90,134.47 -21.95,136.35 -22.00,138.23 -22.13,140.26 -22.25,142.29 -22.38,144.61 -22.52,146.93 -22.94,149.73 -23.36,152.52 -24.33,156.53 -25.31,160.55 -26.16,163.48 -27.02,166.42 -28.05,169.62 -29.09,172.82 -30.37,176.00 -31.64,179.18 -33.91,183.65 -36.18,188.12 -37.47,190.44 -38.76,192.76 -39.78,194.50 -40.81,196.24 -41.48,197.55 -42.15,198.86 -43.06,200.14 -43.97,201.41 -45.60,200.81 -47.23,200.21 -45.49,199.52 -43.76,198.83 -42.11,198.54 -40.46,198.25 -38.20,198.25 -35.94,198.25 -32.51,198.30 -29.07,198.35 -26.58,198.40 -24.08,198.46 -20.07,199.26 -16.06,200.07 -12.12,201.91 -8.18,203.74 -5.64,205.54 -3.11,207.34 -0.69,209.79 1.71,212.23 5.60,218.48 9.49,224.72 11.27,228.64 13.06,232.57 14.01,236.54 14.96,240.51 15.52,244.42 16.09,248.33 16.33,252.23 16.56,256.14 16.50,259.78 16.43,263.41 15.57,266.87 14.71,270.32 13.35,273.61 11.99,276.89 10.52,279.62 9.04,282.35 7.83,284.04 6.62,285.73 5.32,287.25 4.03,288.77 2.90,290.07 1.78,291.36 0.74,292.44 -0.30,293.52 -1.17,294.28 -2.04,295.03 -3.31,295.79 -4.58,296.55 -5.87,296.27 -7.15,295.99 -7.86,294.70 -8.58,293.41 -8.37,292.20 -8.16,290.98 -6.83,289.38 -5.49,287.77 -3.94,286.65 -2.38,285.52 -0.32,284.42 1.72,283.33 4.39,282.25 7.06,281.17 9.92,280.28 12.79,279.39 15.74,278.72 18.70,278.06 21.98,277.78 25.27,277.50 28.60,277.40 31.94,277.30 35.05,277.27 38.16,277.24 40.98,277.38 43.81,277.52 46.58,278.19 49.35,278.86 51.68,279.86 54.02,280.87 55.44,281.67 56.86,282.48 58.22,283.42 59.57,284.36 60.71,285.35 61.84,286.35 62.94,287.49 64.05,288.63 65.08,289.73 66.10,290.84 66.26,291.08 66.42,291.31 66.55,291.56 66.68,291.81 66.75,292.08 66.82,292.35 66.82,292.63 66.82,292.91 66.75,293.18 66.69,293.45 66.56,293.70 66.43,293.95 66.24,294.16 66.06,294.37 65.83,294.53 65.60,294.69 65.33,294.79 65.07,294.88 64.80,294.92 64.52,294.95 64.24,294.92 63.96,294.89 63.70,294.79 63.44,294.69 63.21,294.53 62.98,294.37 62.79,294.16 62.61,293.95 62.84,292.63 63.07,291.30 63.23,289.50 63.40,287.70 65.03,286.33 66.66,284.97 68.71,283.66 70.77,282.34 73.49,280.83 76.21,279.32 81.03,276.90 85.86,274.48 92.38,271.76 98.90,269.04 103.70,267.05 108.50,265.07 111.27,264.11 114.03,263.16 116.71,262.45 119.39,261.75 121.55,261.21 123.72,260.66 125.56,260.35 127.41,260.03 128.88,259.84 130.36,259.64 131.96,259.40 133.56,259.17 135.08,260.05 136.60,260.93 137.03,262.30 137.47,263.68 137.60,264.74 137.74,265.81 138.63,265.09 139.52,264.36 142.56,264.34 145.61,264.33 149.64,263.82 153.68,263.31 158.84,262.31 164.00,261.32 169.70,260.51 175.41,259.70 181.65,259.16 187.90,258.61 194.36,258.40 200.83,258.18 205.03,258.10 209.23,258.02 213.82,257.99 218.41,257.96 222.66,258.47 226.90,258.98 230.56,260.03 234.22,261.08 236.16,261.96 238.09,262.83 240.56,264.38 243.03,265.94 244.32,266.99 245.62,268.04 246.47,269.52 247.31,271.01 247.58,273.53 247.85,276.05 246.76,277.43 245.67,278.81 244.81,279.53 243.96,280.24 242.85,280.97 241.74,281.70 241.50,281.82 241.26,281.94 240.97,282.05 240.67,282.17 240.36,282.21 240.05,282.24 239.74,282.21 239.43,282.17 239.13,282.06 238.84,281.95 238.58,281.77 238.32,281.60 238.11,281.36 237.90,281.13 237.76,280.85 237.61,280.57 237.53,280.27 237.46,279.96 237.46,279.65 237.46,279.34 237.53,279.03 237.60,278.73 237.75,278.45 237.89,278.17 238.10,277.93 238.31,277.70 238.57,277.52 238.82,277.34 240.71,276.01 242.59,274.69 244.29,273.78 245.99,272.86 248.33,271.91 250.67,270.95 253.13,270.01 255.58,269.07 258.39,268.22 261.20,267.37 264.08,266.57 266.97,265.77 269.94,265.13 272.90,264.49 275.89,264.07 278.89,263.65 281.97,263.48 285.05,263.31 287.40,263.24 289.74,263.18 291.42,263.07 293.11,262.95 294.37,263.04 295.64,263.12 296.78,263.50 297.93,263.87 299.40,265.21 300.87,266.56 301.42,267.50 301.97,268.44 302.29,269.67 302.61,270.89 302.00,269.96 301.40,269.02 303.17,267.92 304.93,266.81 307.01,265.30 309.09,263.79 314.19,260.09 319.30,256.39 322.65,253.98 326.00,251.58 329.32,249.22 332.64,246.85 336.22,244.43 339.80,242.00 343.19,239.63 346.57,237.26 349.59,235.32 352.61,233.38 355.44,231.64 358.27,229.89 360.23,228.99 362.18,228.09 363.82,227.30 365.46,226.52 367.05,225.88 368.64,225.24 369.93,224.87 371.22,224.51 372.34,224.31 373.45,224.11 374.52,223.96 375.58,223.82 377.19,225.34 378.79,226.87 379.22,228.44 379.65,230.01 380.78,230.00 381.91,229.99 383.05,230.04 384.18,230.09 386.20,230.00 388.21,229.92 390.49,229.23 392.78,228.54 394.66,227.67 396.55,226.80 398.98,225.66 401.41,224.52 404.27,222.90 407.14,221.27 409.93,219.66 412.72,218.05 415.25,216.33 417.79,214.60 419.28,213.50 420.76,212.40 422.34,211.37 423.91,210.34 425.06,209.43 426.22,208.53 427.46,207.49 428.70,206.45 428.96,206.28 429.22,206.11 429.46,205.99 429.70,205.88 429.96,205.82 430.22,205.77 430.49,205.78 430.75,205.79 431.01,205.87 431.26,205.94 431.49,206.07 431.72,206.20 431.91,206.39 432.11,206.57 432.25,206.79 432.39,207.02 432.47,207.27 432.56,207.52 432.58,207.79 432.60,208.05 432.56,208.31 432.52,208.57 432.41,208.82 432.31,209.06 432.15,209.27 431.99,209.49 431.79,209.65 431.58,209.82 430.10,210.93 428.62,212.05 427.71,212.70 426.79,213.36 425.45,214.40 424.12,215.44 423.39,216.08 422.66,216.73 422.36,216.88 422.06,217.04 421.73,217.12 421.40,217.19 421.06,217.19 420.72,217.19 420.39,217.10 420.06,217.02 419.76,216.86 419.46,216.70 419.21,216.47 418.96,216.24 418.77,215.96 418.58,215.68 418.46,215.36 418.34,215.04 418.31,214.70 418.27,214.37 418.31,214.03 418.36,213.69 418.48,213.38 418.60,213.06 418.80,212.78 419.00,212.51 419.25,212.28 419.51,212.06 420.63,211.86 421.75,211.66 422.63,211.02 423.52,210.39 425.05,209.48 426.59,208.58 429.73,206.60 432.88,204.62 438.54,200.96 444.19,197.29 449.61,193.88 455.02,190.46 458.88,188.10 462.74,185.74 465.11,184.27 467.48,182.80 469.61,181.49 471.74,180.19 473.57,179.11 475.40,178.03 476.52,177.26 477.64,176.50 479.00,175.57 480.36,174.63 480.75,174.33 481.13,174.02 481.37,173.90 481.61,173.79 481.87,173.73 482.13,173.67 482.39,173.68 482.66,173.69 482.91,173.76 483.17,173.83 483.40,173.96 483.63,174.09 483.82,174.27 484.02,174.46 484.16,174.68 484.30,174.90 484.39,175.15 484.48,175.40 484.50,175.67 484.53,175.93 484.49,176.19 484.45,176.45 484.35,176.70 484.24,176.94 484.09,177.16 483.93,177.37 483.73,177.54 483.52,177.71 482.67,178.13 481.81,178.54 481.54,178.63 481.27,178.71 480.98,178.73 480.70,178.75 480.42,178.70 480.14,178.65 479.88,178.53 479.62,178.41 479.39,178.24 479.17,178.06 478.99,177.84 478.82,177.61 478.70,177.35 478.59,177.09 478.53,176.81 478.48,176.53 478.50,176.25 478.52,175.96 478.60,175.69 478.69,175.42 478.83,175.18 478.98,174.93 479.18,174.73 479.38,174.53 479.63,174.38 479.87,174.24 479.11,174.98 478.35,175.73 479.06,173.81 479.77,171.90 481.09,170.02 482.41,168.13 484.19,165.52 485.97,162.90 487.64,160.61 489.32,158.32 491.23,155.51 493.13,152.71 495.39,149.38 497.65,146.05 499.81,142.77 501.96,139.49 503.89,136.10 505.81,132.71 506.85,130.74 507.88,128.77 508.87,126.71 509.86,124.64 510.61,122.89 511.36,121.14 511.74,119.46 512.12,117.78 512.24,116.38 512.36,114.98 509.36,115.17 506.36,115.35 503.85,115.47 501.35,115.59 499.45,115.88 497.56,116.17 496.22,116.49 494.88,116.81 493.79,117.10 492.70,117.39 491.37,117.78 490.04,118.18 488.80,117.46 487.57,116.75 487.13,115.71 486.70,114.67 486.97,112.80 487.24,110.92 488.50,108.47 489.76,106.02 491.52,103.18 493.29,100.35 494.75,98.07 496.21,95.80 498.05,92.97 499.89,90.14 501.64,87.19 503.39,84.24 504.65,82.23 505.91,80.22 507.45,77.62 509.00,75.02 510.08,72.59 511.17,70.16 511.52,68.93 511.87,67.69 509.59,67.90 507.32,68.10 506.07,68.12 504.82,68.14 503.44,68.15 502.06,68.16 500.62,68.17 499.17,68.18 497.87,68.20 496.57,68.23 495.37,68.16 494.16,68.09 492.30,67.69 490.43,67.30 489.37,66.48 488.32,65.67 487.70,64.40 487.08,63.14 486.91,61.65 486.74,60.17 486.74,58.54 486.74,56.90 487.32,53.57 487.90,50.24 488.85,47.07 489.79,43.90 490.49,41.58 491.18,39.26 491.66,37.55 492.14,35.84 492.37,34.61 492.60,33.38 492.77,31.87 492.94,30.36 491.84,30.92 490.75,31.48 488.20,31.29 485.65,31.11 483.51,30.97 481.37,30.83 479.07,30.73 476.78,30.63 474.76,30.67 472.75,30.72 471.47,30.84 470.20,30.97 468.53,30.99 466.86,31.00 465.94,30.33 465.01,29.67 464.61,28.53 464.21,27.39 464.09,26.26 463.96,25.12 463.92,23.80 463.88,22.48 463.84,21.39 463.80,20.31 463.92,18.87 464.04,17.43 464.18,16.27 464.32,15.11 464.50,13.24 464.68,11.38 463.76,10.51 462.85,9.65 461.49,9.53 460.12,9.40 457.24,9.18 454.37,8.95 451.88,8.79 449.40,8.63 447.65,8.61 445.91,8.58 444.32,8.59 442.72,8.60 441.19,8.62 439.65,8.64 438.47,8.69 437.29,8.74 435.41,8.74 433.54,8.73 432.52,8.26 431.49,7.79 430.64,6.75 429.79,5.72 429.40,4.51 429.01,3.29 428.89,2.07 428.76,0.84 428.71,-0.33 428.67,-1.52 428.68,-2.95 428.69,-4.38 428.67,-5.51 428.66,-6.65 428.74,-8.26 428.82,-9.87 426.83,-10.34 424.85,-10.82 422.91,-11.09 420.96,-11.37 418.35,-11.72 415.73,-12.07 412.94,-12.43 410.14,-12.79 406.97,-13.31 403.79,-13.83 400.71,-14.55 397.63,-15.27 394.63,-16.05 391.63,-16.84 388.66,-17.66 385.69,-18.47 382.93,-19.42 380.17,-20.37 377.93,-21.32 375.69,-22.26 374.23,-22.91 372.77,-23.56 371.38,-24.31 369.99,-25.06 368.85,-25.64 367.72,-26.22 366.02,-27.40 364.33,-28.57 363.22,-27.21 362.12,-25.85 360.26,-24.66 358.39,-23.47 354.15,-20.90 349.90,-18.32 344.95,-15.86 339.99,-13.40 335.90,-11.73 331.81,-10.05 328.06,-9.01 324.30,-7.97 321.85,-7.43 319.40,-6.88 317.08,-6.52 314.76,-6.15 312.53,-5.87 310.30,-5.58 308.64,-5.37 306.98,-5.16 305.74,-5.00 304.50,-4.84 302.95,-4.65 301.41,-4.47 299.80,-5.84 298.20,-7.22 297.96,-8.45 297.73,-9.68 297.73,-12.12 297.73,-14.56 298.35,-16.21 298.98,-17.85 299.73,-19.04 300.48,-20.24 301.24,-21.27 301.99,-22.31 303.14,-23.61 304.28,-24.91 305.24,-25.90 306.19,-26.90 307.38,-27.75 308.57,-28.60 308.61,-28.60 308.66,-28.59 308.97,-28.71 309.28,-28.83 309.61,-28.87 309.94,-28.91 310.27,-28.87 310.59,-28.83 310.90,-28.72 311.21,-28.60 311.49,-28.41 311.76,-28.23 311.98,-27.98 312.20,-27.73 312.36,-27.44 312.51,-27.15 312.59,-26.83 312.67,-26.51 312.68,-26.17 312.68,-25.84 312.60,-25.52 312.52,-25.20 312.37,-24.91 312.22,-24.61 312.00,-24.36 311.78,-24.11 311.51,-23.93 311.24,-23.74 309.77,-22.36 308.30,-20.98 306.44,-19.56 304.59,-18.14 301.84,-16.17 299.09,-14.21 295.45,-11.90 291.80,-9.59 287.60,-7.31 283.39,-5.04 278.67,-2.73 273.95,-0.42 269.00,1.72 264.05,3.86 259.10,5.52 254.15,7.18 250.55,8.04 246.94,8.89 240.64,9.60 234.34,10.31 229.97,10.60 225.60,10.90 222.49,11.02 219.38,11.14 217.58,11.07 215.78,11.00 213.93,10.43 212.09,9.86 210.57,8.97 209.06,8.08 207.98,7.13 206.90,6.17 206.07,5.21 205.23,4.25 204.65,3.15 204.06,2.06 203.68,1.03 203.30,0.00 202.97,-1.75 202.65,-3.51 202.53,-4.85 202.41,-6.18 202.34,-7.03 202.26,-7.88 202.30,-8.23 202.34,-8.57 202.46,-8.89 202.58,-9.22 202.78,-9.51 202.97,-9.79 203.23,-10.02 203.49,-10.26 203.79,-10.42 204.10,-10.58 204.44,-10.67 204.77,-10.75 205.12,-10.75 205.46,-10.76 205.80,-10.68 206.14,-10.59 206.45,-10.44 206.75,-10.28 207.02,-10.05 207.28,-9.82 207.48,-9.54 207.67,-9.25 207.80,-8.93 207.92,-8.61 207.97,-8.26 208.01,-7.92 207.44,-6.76 206.86,-5.61 205.86,-4.69 204.85,-3.77 203.27,-2.77 201.68,-1.77 200.09,-0.90 198.49,-0.02 196.42,0.96 194.36,1.96 191.89,3.11 189.42,4.27 186.55,5.54 183.68,6.81 180.72,7.95 177.76,9.09 174.23,10.09 170.69,11.08 165.77,12.49 160.85,13.89 157.47,14.63 154.08,15.36 148.68,15.84 143.27,16.32 140.32,16.51 137.36,16.70 133.98,16.78 130.59,16.85 128.37,16.53 126.15,16.21 124.58,15.84 123.01,15.46 121.92,15.02 120.83,14.57 119.58,13.51 118.33,12.45 117.81,11.37 117.29,10.29 117.10,9.25 116.90,8.20 116.93,7.90 116.95,7.60 117.05,7.31 117.14,7.03 117.31,6.77 117.47,6.52 117.69,6.31 117.91,6.10 118.17,5.95 118.43,5.80 118.72,5.71 119.01,5.63 119.31,5.62 119.62,5.61 119.91,5.67 120.21,5.73 120.48,5.86 120.75,5.99 120.99,6.18 121.22,6.37 121.40,6.61 121.59,6.86 121.70,7.14 121.82,7.41 121.87,7.71 121.92,8.01 120.50,9.33 119.09,10.64 117.46,11.35 115.84,12.07 114.52,12.46 113.20,12.85 111.56,13.23 109.92,13.61 107.69,13.94 105.47,14.26 102.81,14.65 100.15,15.04 96.15,15.36 92.15,15.68 87.97,15.96 83.79,16.24 79.21,16.53 74.64,16.81 71.21,16.92 67.78,17.02 63.52,17.05 59.26,17.09 52.57,16.86 45.89,16.64 41.78,16.26 37.67,15.88 34.62,15.14 31.58,14.40 29.98,13.99 28.39,13.58 26.71,12.64 25.03,11.70 24.53,10.66 24.03,9.61 24.31,7.84 24.59,6.06 25.92,5.97 27.25,5.87 27.84,7.34 28.42,8.81 27.53,9.86 26.64,10.92 25.52,11.37 24.41,11.83 23.29,11.97 22.18,12.12 20.61,12.17 19.05,12.23 17.79,11.99 16.54,11.76 15.48,11.43 14.42,11.09 12.36,10.02 10.31,8.94 8.38,7.99 6.45,7.04 4.91,6.28 3.37,5.53 0.90,4.09 -1.56,2.66 -1.94,2.34 -2.32,2.02 -2.59,1.59 -2.85,1.17 -2.96,0.68 -3.08,0.20 -3.03,-0.29 -2.98,-0.79 -2.77,-1.24 -2.57,-1.70 -2.23,-2.06 -1.89,-2.43 -1.45,-2.67 -1.01,-2.91 -0.52,-3.00 -0.03,-3.08 0.45,-3.01 0.95,-2.93 1.39,-2.70 1.84,-2.47 2.18,-2.11 2.53,-1.76 2.75,-1.30 2.96,-0.85 3.02,-0.36 3.08,0.13 2.98,0.62 2.88,1.11 2.62,1.54 2.37,1.97 1.99,2.29 1.62,2.62 1.15,2.81 0.69,3.00 0.19,3.03 -0.29,3.07 -0.78,2.94 -1.26,2.81 -1.68,2.54 -2.09,2.26 -2.40,1.87 -2.71,1.47 -2.87,1.00 -3.04,0.53 -3.04,0.03 -3.05,-0.46 -2.89,-0.94 -2.74,-1.41 -2.44,-1.81 -2.14,-2.21 -1.73,-2.50 -1.32,-2.78 -0.84,-2.92 -0.36,-3.06 0.13,-3.04 0.63,-3.02 1.09,-2.84 1.56,-2.66 1.56,-2.66 1.56,-2.66 2.99,-1.71 4.42,-0.76 6.01,0.06 7.61,0.89 9.33,1.81 11.05,2.72 12.33,3.31 13.61,3.89 14.95,4.66 16.28,5.42 17.67,5.88 19.06,6.35 20.53,6.39 22.00,6.43 23.31,6.79 24.61,7.15 25.07,8.32 25.53,9.49 26.87,9.13 28.22,8.77 28.77,9.70 29.33,10.63 30.77,11.19 32.22,11.74 35.07,12.43 37.92,13.11 41.95,13.46 45.98,13.80 52.60,13.99 59.21,14.17 63.43,14.08 67.66,14.00 71.03,13.82 74.41,13.64 78.96,13.26 83.51,12.87 87.64,12.46 91.77,12.04 95.58,11.56 99.38,11.08 101.93,10.45 104.48,9.82 106.53,9.20 108.57,8.59 110.09,8.12 111.62,7.65 113.80,6.97 115.97,6.29 117.43,5.95 118.89,5.60 117.90,6.90 116.90,8.20 116.93,7.90 116.95,7.60 117.05,7.31 117.14,7.03 117.31,6.77 117.47,6.52 117.69,6.31 117.90,6.10 118.17,5.95 118.43,5.80 118.72,5.71 119.01,5.63 119.31,5.62 119.62,5.61 119.91,5.67 120.21,5.73 120.48,5.86 120.75,5.99 120.99,6.18 121.22,6.37 121.40,6.61 121.59,6.86 121.70,7.14 121.82,7.41 121.87,7.71 121.92,8.01 121.90,8.16 121.89,8.30 121.86,9.43 121.84,10.57 122.90,11.53 123.96,12.49 125.25,13.01 126.54,13.53 128.53,13.82 130.53,14.11 133.85,14.02 137.17,13.92 140.09,13.70 143.02,13.49 148.23,13.00 153.44,12.51 156.72,11.75 160.00,10.98 164.89,9.50 169.79,8.02 173.13,6.99 176.47,5.95 179.28,4.72 182.09,3.49 184.81,2.08 187.53,0.67 189.81,-0.66 192.08,-2.00 193.92,-3.24 195.75,-4.48 197.14,-5.44 198.53,-6.40 199.69,-7.27 200.84,-8.13 201.99,-9.04 203.13,-9.95 202.70,-8.91 202.26,-7.88 202.30,-8.22 202.34,-8.57 202.46,-8.89 202.58,-9.22 202.78,-9.51 202.97,-9.79 203.23,-10.02 203.49,-10.26 203.79,-10.42 204.10,-10.58 204.44,-10.67 204.77,-10.75 205.12,-10.75 205.46,-10.76 205.80,-10.68 206.14,-10.59 206.45,-10.44 206.75,-10.28 207.02,-10.05 207.28,-9.82 207.47,-9.54 207.67,-9.25 207.80,-8.93 207.92,-8.61 207.97,-8.26 208.01,-7.92 208.00,-7.74 207.98,-7.56 207.90,-6.36 207.82,-5.17 207.78,-3.88 207.74,-2.60 207.94,-1.15 208.14,0.28 208.90,1.89 209.66,3.49 210.33,4.33 211.00,5.16 212.09,5.99 213.19,6.82 214.62,7.41 216.05,8.00 217.66,8.22 219.27,8.43 222.34,8.30 225.41,8.16 229.71,7.85 234.02,7.55 240.15,6.84 246.28,6.13 249.74,5.27 253.21,4.42 258.02,2.76 262.83,1.09 267.68,-1.08 272.53,-3.26 277.14,-5.62 281.74,-7.99 285.76,-10.31 289.78,-12.64 293.20,-15.02 296.63,-17.41 299.10,-19.47 301.58,-21.54 303.19,-23.19 304.81,-24.83 306.73,-26.71 308.66,-28.59 308.97,-28.71 309.28,-28.83 309.61,-28.87 309.94,-28.91 310.27,-28.87 310.59,-28.83 310.90,-28.72 311.21,-28.60 311.49,-28.41 311.76,-28.23 311.98,-27.98 312.20,-27.73 312.36,-27.44 312.51,-27.15 312.59,-26.83 312.67,-26.51 312.68,-26.18 312.68,-25.84 312.60,-25.52 312.52,-25.20 312.37,-24.91 312.22,-24.61 312.00,-24.36 311.78,-24.11 311.51,-23.93 311.24,-23.74 310.53,-23.50 309.82,-23.27 309.00,-22.48 308.19,-21.69 307.21,-20.42 306.23,-19.15 305.52,-18.23 304.82,-17.30 303.83,-15.68 302.84,-14.06 302.72,-13.00 302.61,-11.93 302.09,-10.28 301.57,-8.63 302.95,-8.51 304.34,-8.39 305.54,-8.34 306.74,-8.29 308.33,-8.33 309.92,-8.37 312.10,-8.68 314.28,-9.00 316.50,-9.39 318.72,-9.78 321.08,-10.37 323.44,-10.96 326.98,-12.02 330.53,-13.08 334.45,-14.81 338.37,-16.55 343.10,-19.07 347.83,-21.59 351.85,-24.28 355.87,-26.97 357.37,-28.20 358.88,-29.44 360.16,-30.72 361.44,-32.00 362.81,-32.66 364.18,-33.33 365.74,-32.62 367.29,-31.91 368.49,-30.71 369.70,-29.51 370.74,-28.78 371.79,-28.06 373.02,-27.23 374.25,-26.40 375.51,-25.64 376.77,-24.87 378.93,-24.00 381.09,-23.12 383.77,-22.25 386.45,-21.37 389.42,-20.63 392.38,-19.89 395.35,-19.21 398.32,-18.52 401.30,-17.96 404.28,-17.39 407.38,-17.05 410.47,-16.72 413.27,-16.60 416.07,-16.48 418.64,-16.44 421.20,-16.40 423.47,-16.48 425.73,-16.55 427.35,-16.36 428.96,-16.17 430.41,-15.81 431.85,-15.45 432.89,-14.49 433.92,-13.53 434.26,-11.52 434.61,-9.51 434.42,-8.09 434.23,-6.67 434.22,-5.55 434.22,-4.44 434.27,-2.00 434.33,0.42 434.34,2.12 434.35,3.82 435.82,4.01 437.29,4.20 438.47,4.26 439.66,4.31 441.19,4.33 442.73,4.35 444.33,4.37 445.93,4.38 447.67,4.37 449.42,4.36 451.93,4.23 454.43,4.10 457.44,3.96 460.44,3.81 462.16,3.86 463.88,3.91 465.56,4.32 467.24,4.73 468.45,5.91 469.66,7.10 469.95,9.45 470.23,11.80 470.11,12.88 470.00,13.96 469.64,15.93 469.27,17.89 469.14,20.14 469.00,22.38 469.01,23.60 469.02,24.83 469.54,25.99 470.07,27.15 471.33,27.19 472.59,27.24 474.68,27.09 476.78,26.94 479.08,26.84 481.38,26.75 483.53,26.63 485.68,26.51 488.31,26.36 490.94,26.21 492.25,26.27 493.55,26.34 494.91,26.75 496.26,27.17 496.90,29.10 497.54,31.04 497.05,32.70 496.57,34.36 496.18,35.62 495.79,36.89 495.31,38.54 494.83,40.19 494.34,42.56 493.84,44.93 493.22,47.89 492.59,50.84 492.38,53.80 492.17,56.76 492.26,58.21 492.35,59.66 492.75,61.22 493.14,62.78 494.86,63.10 496.58,63.42 497.89,63.45 499.19,63.48 500.64,63.50 502.10,63.52 503.51,63.55 504.92,63.59 506.22,63.66 507.52,63.73 508.99,63.85 510.45,63.96 512.74,65.18 515.02,66.41 514.97,67.63 514.92,68.85 514.33,70.08 513.74,71.30 512.61,73.88 511.48,76.46 509.97,79.12 508.45,81.77 507.27,83.78 506.08,85.79 504.38,88.83 502.67,91.88 500.95,94.75 499.23,97.62 497.93,99.95 496.62,102.28 495.13,105.06 493.64,107.84 492.84,109.78 492.05,111.73 491.56,113.31 491.07,114.89 490.22,114.26 489.36,113.62 490.64,113.49 491.93,113.35 493.07,113.22 494.20,113.08 495.59,112.91 496.98,112.73 499.02,112.36 501.05,111.98 503.76,111.68 506.48,111.37 509.16,111.35 511.84,111.32 513.31,111.85 514.78,112.38 515.38,113.45 515.98,114.52 515.54,116.54 515.10,118.56 514.55,120.45 514.01,122.33 513.18,124.08 512.35,125.82 511.36,127.94 510.37,130.06 509.34,132.08 508.31,134.11 506.38,137.60 504.45,141.10 502.34,144.43 500.22,147.75 498.04,151.12 495.86,154.50 494.03,157.40 492.20,160.30 490.69,162.62 489.19,164.93 487.60,167.65 486.02,170.36 484.46,172.86 482.89,175.36 482.35,176.95 481.81,178.54 481.54,178.63 481.27,178.71 480.98,178.73 480.70,178.75 480.42,178.70 480.14,178.65 479.88,178.53 479.62,178.41 479.39,178.24 479.17,178.06 478.99,177.84 478.82,177.61 478.70,177.35 478.59,177.09 478.53,176.81 478.48,176.53 478.50,176.25 478.52,175.96 478.60,175.69 478.69,175.42 478.83,175.18 478.98,174.93 479.18,174.73 479.38,174.53 479.63,174.38 479.87,174.24 480.50,174.13 481.13,174.02 481.37,173.90 481.61,173.79 481.87,173.73 482.13,173.67 482.39,173.68 482.66,173.69 482.91,173.76 483.17,173.83 483.40,173.96 483.63,174.09 483.82,174.27 484.02,174.46 484.16,174.68 484.30,174.90 484.39,175.15 484.48,175.40 484.50,175.67 484.53,175.93 484.49,176.19 484.45,176.45 484.35,176.70 484.24,176.94 484.09,177.16 483.93,177.37 483.73,177.54 483.52,177.71 482.89,177.96 482.26,178.22 480.78,178.81 479.29,179.40 478.09,179.95 476.89,180.51 475.11,181.61 473.33,182.70 471.25,184.06 469.16,185.42 466.83,186.98 464.49,188.53 460.72,190.98 456.95,193.43 451.65,196.97 446.36,200.51 440.84,204.35 435.33,208.19 432.32,210.44 429.31,212.68 427.76,213.82 426.21,214.96 424.43,215.85 422.66,216.73 422.36,216.88 422.06,217.04 421.73,217.12 421.40,217.19 421.06,217.19 420.72,217.19 420.39,217.10 420.06,217.02 419.76,216.86 419.46,216.70 419.21,216.47 418.96,216.24 418.77,215.96 418.58,215.68 418.46,215.36 418.34,215.04 418.31,214.70 418.27,214.37 418.31,214.03 418.36,213.69 418.48,213.38 418.60,213.06 418.80,212.78 419.00,212.51 419.25,212.28 419.51,212.06 419.75,211.86 419.98,211.66 421.15,210.96 422.31,210.27 424.00,209.22 425.68,208.17 427.45,207.14 429.22,206.11 429.46,205.99 429.70,205.88 429.96,205.82 430.22,205.77 430.49,205.78 430.75,205.79 431.01,205.87 431.26,205.94 431.49,206.07 431.72,206.20 431.91,206.39 432.10,206.57 432.25,206.79 432.39,207.02 432.47,207.27 432.56,207.52 432.58,207.79 432.60,208.05 432.56,208.31 432.52,208.57 432.41,208.82 432.31,209.06 432.15,209.27 431.99,209.49 431.79,209.65 431.58,209.82 431.27,209.92 430.96,210.02 429.61,210.72 428.27,211.42 426.96,212.26 425.65,213.09 424.11,214.02 422.58,214.95 421.04,216.00 419.50,217.06 416.91,218.89 414.32,220.73 411.57,222.43 408.82,224.12 405.92,225.91 403.02,227.69 400.69,228.98 398.36,230.26 396.31,231.45 394.26,232.64 391.57,233.74 388.87,234.84 386.43,235.33 383.98,235.83 382.61,235.78 381.24,235.74 379.03,235.05 376.82,234.36 375.65,232.71 374.48,231.06 374.67,229.63 374.86,228.19 373.40,228.17 371.94,228.15 370.84,228.26 369.75,228.37 368.22,228.84 366.70,229.31 365.03,229.99 363.37,230.67 361.57,231.49 359.77,232.31 356.99,234.07 354.21,235.83 351.28,237.79 348.34,239.74 344.98,242.19 341.62,244.63 338.15,247.11 334.67,249.60 331.45,252.07 328.23,254.54 325.00,257.10 321.77,259.65 316.91,263.50 312.04,267.34 310.00,269.25 307.95,271.17 306.24,272.39 304.53,273.61 302.97,274.03 301.40,274.45 299.79,273.75 298.18,273.05 297.70,271.37 297.21,269.69 296.77,268.57 296.32,267.44 294.74,266.75 293.16,266.06 291.50,266.01 289.84,265.97 287.53,266.06 285.23,266.16 282.28,266.36 279.32,266.56 276.45,267.02 273.59,267.47 270.74,268.17 267.89,268.86 265.08,269.75 262.28,270.64 259.67,271.58 257.06,272.52 254.75,273.61 252.44,274.71 250.45,275.79 248.45,276.87 246.83,278.00 245.22,279.13 244.15,279.75 243.09,280.37 242.18,281.16 241.26,281.94 240.97,282.05 240.67,282.17 240.36,282.21 240.05,282.24 239.74,282.21 239.43,282.17 239.13,282.06 238.84,281.95 238.58,281.77 238.32,281.60 238.11,281.36 237.90,281.13 237.76,280.85 237.61,280.57 237.53,280.27 237.46,279.96 237.46,279.65 237.46,279.34 237.53,279.03 237.60,278.73 237.75,278.45 237.89,278.17 238.10,277.93 238.31,277.70 238.57,277.52 238.82,277.34 240.01,276.90 241.20,276.46 242.58,275.70 243.95,274.94 244.04,273.70 244.13,272.47 243.78,271.37 243.43,270.28 242.50,269.27 241.56,268.26 239.23,266.81 236.90,265.36 235.18,264.53 233.46,263.69 230.02,262.70 226.57,261.71 222.50,261.24 218.43,260.76 213.87,260.82 209.30,260.88 205.12,261.01 200.94,261.14 194.56,261.41 188.18,261.69 182.04,262.30 175.90,262.92 170.30,263.83 164.71,264.74 159.48,265.90 154.25,267.07 150.04,267.81 145.83,268.55 142.64,268.85 139.45,269.16 136.64,269.04 133.82,268.92 133.14,267.12 132.46,265.31 132.98,264.29 133.50,263.26 132.05,263.15 130.60,263.04 129.21,263.05 127.81,263.05 126.12,263.22 124.42,263.38 122.28,263.96 120.14,264.53 117.59,265.24 115.04,265.96 112.37,266.94 109.71,267.93 104.95,270.00 100.19,272.06 93.84,274.84 87.48,277.62 82.84,280.12 78.20,282.63 75.75,284.23 73.29,285.83 71.57,287.26 69.84,288.68 68.47,290.14 67.09,291.60 66.63,292.73 66.18,293.85 66.30,292.58 66.42,291.31 66.55,291.56 66.68,291.81 66.75,292.08 66.82,292.35 66.82,292.63 66.82,292.91 66.75,293.18 66.69,293.45 66.56,293.70 66.43,293.95 66.24,294.16 66.06,294.37 65.83,294.53 65.60,294.69 65.33,294.79 65.07,294.88 64.80,294.92 64.52,294.95 64.24,294.92 63.96,294.89 63.70,294.79 63.44,294.69 63.21,294.53 62.98,294.37 62.79,294.16 62.61,293.95 62.51,293.67 62.41,293.39 61.79,292.32 61.16,291.26 60.20,290.13 59.23,289.00 58.37,288.03 57.51,287.07 56.33,286.08 55.14,285.09 54.04,284.23 52.93,283.36 50.81,282.45 48.69,281.53 46.18,280.93 43.67,280.32 40.94,280.22 38.21,280.11 35.13,280.19 32.05,280.27 28.81,280.42 25.56,280.58 22.52,280.90 19.47,281.23 16.69,281.97 13.91,282.71 11.26,283.69 8.61,284.67 6.27,285.81 3.94,286.96 2.21,288.18 0.49,289.40 -0.66,290.29 -1.82,291.17 -3.64,291.74 -5.46,292.31 -4.07,291.62 -2.68,290.93 -1.60,290.06 -0.52,289.18 0.66,288.02 1.86,286.86 3.13,285.47 4.40,284.07 5.56,282.58 6.72,281.09 8.14,278.48 9.55,275.87 10.85,272.77 12.15,269.67 12.96,266.51 13.78,263.35 13.84,259.83 13.90,256.30 13.66,252.51 13.42,248.71 12.87,244.93 12.32,241.14 11.44,237.42 10.56,233.70 8.84,229.95 7.11,226.19 3.40,220.21 -0.31,214.23 -2.56,211.99 -4.80,209.74 -7.13,208.13 -9.47,206.51 -13.08,204.87 -16.69,203.23 -20.38,202.56 -24.07,201.90 -26.54,201.99 -29.02,202.09 -32.37,202.24 -35.72,202.39 -37.68,202.62 -39.65,202.85 -41.06,203.10 -42.46,203.35 -44.42,203.72 -46.37,204.10 -47.49,202.92 -48.62,201.73 -47.70,200.45 -46.78,199.17 -45.87,198.17 -44.96,197.17 -44.12,195.97 -43.28,194.76 -42.25,193.08 -41.22,191.40 -39.99,189.12 -38.75,186.83 -36.58,182.46 -34.41,178.10 -33.23,175.00 -32.05,171.91 -31.12,168.74 -30.18,165.57 -29.46,162.67 -28.74,159.78 -27.97,155.93 -27.19,152.08 -27.00,149.51 -26.81,146.95 -26.97,144.65 -27.12,142.34 -27.28,140.37 -27.45,138.39 -27.70,135.70 -27.95,133.00 -28.67,131.77 -29.40,130.55 -30.83,130.59 -32.27,130.64 -33.80,131.00 -35.33,131.36 -37.20,132.53 -39.08,133.71 -40.41,134.54 -41.74,135.37 -41.92,136.85 -42.10,138.34 -42.31,138.47 -42.53,138.60 -42.77,138.68 -43.02,138.76 -43.27,138.78 -43.52,138.80 -43.78,138.76 -44.03,138.71 -44.26,138.61 -44.50,138.51 -44.70,138.35 -44.90,138.20 -45.06,138.00 -45.22,137.80 -45.33,137.57 -45.44,137.34 -45.49,137.09 -45.54,136.83 -45.52,136.58 -45.51,136.32 -45.44,136.08 -45.36,135.84 -45.23,135.61 -45.10,135.39 -44.93,135.21 -44.75,135.03 -44.46,134.85 -44.18,134.67 -43.13,133.94 -42.07,133.20 -41.03,132.30 -39.99,131.39 -38.66,129.76 -37.33,128.13 -35.56,125.69 -33.80,123.25 -32.14,120.67 -30.48,118.09 -28.98,115.17 -27.48,112.24 -26.20,109.66 -24.92,107.08 -23.95,104.60 -22.97,102.13 -22.32,99.89 -21.66,97.66 -21.26,96.16 -20.85,94.66 -20.76,93.53 -20.67,92.41 -20.55,90.42 -20.43,88.43 -19.79,87.52 -19.16,86.60 -18.18,86.04 -17.20,85.48 -16.06,85.35 -14.93,85.22 -13.66,84.84 -12.39,84.46 -10.66,83.54 -8.93,82.62 -8.04,82.03 -7.15,81.45 -6.18,80.65 -5.21,79.86 -4.27,79.03 -3.33,78.20 -2.37,77.19 -1.41,76.18 -0.60,75.25 0.21,74.32 0.89,73.32 1.56,72.33 2.27,70.98 2.99,69.64 3.38,68.35 3.78,67.07 3.96,65.80 4.14,64.54 3.96,62.75 3.77,60.96 3.13,57.90 2.50,54.85 1.70,52.92 0.90,51.00 -0.08,49.48 -1.07,47.96 -1.80,47.11 -2.54,46.26 -3.55,45.37 -4.57,44.49 -6.53,44.54 -8.48,44.60 -10.36,44.84 -12.23,45.09 -13.29,45.34 -14.35,45.59 -15.49,45.27 -16.63,44.95 -17.59,44.46 -18.55,43.97 -17.40,42.69 -16.24,41.41 -15.47,40.33 -14.70,39.25 -13.96,37.87 -13.21,36.48 -12.61,35.23 -12.01,33.98 -11.29,31.88 -10.57,29.78 -10.09,27.84 -9.62,25.90 -9.61,23.89 -9.60,21.89 -9.73,19.93 -9.86,17.97 -9.96,16.28 -10.06,14.59 -10.18,13.10 -10.30,11.61 -10.75,9.61 -11.21,7.61 -11.85,6.31 -12.49,5.01 -14.19,5.00 -15.89,5.00 -17.69,5.09 -19.49,5.19 -20.70,5.46 -21.91,5.72 -23.87,6.28 -25.83,6.84 -27.37,7.90 -28.92,8.95 -30.03,8.64 -31.14,8.34 -29.80,8.19 -28.47,8.05 -27.11,7.67 -25.76,7.30 -24.25,6.89 -22.75,6.48 -21.24,6.02 -19.72,5.57 -18.12,4.99 -16.53,4.41 -14.36,3.40 -12.19,2.39 -9.98,1.38 -7.78,0.37 -5.38,-0.63 -2.99,-1.65 -1.70,-1.86 -0.41,-2.07 -0.16,-2.09 0.09,-2.11 0.34,-2.07 0.59,-2.02 0.82,-1.92 1.06,-1.82 1.26,-1.67 1.46,-1.52 1.62,-1.32 1.78,-1.12 1.89,-0.89 2.00,-0.66 2.05,-0.41 2.10,-0.16 2.09,0.08 2.08,0.34 2.01,0.58 1.94,0.83 1.81,1.05 1.68,1.27 1.51,1.45 1.33,1.64 1.11,1.77 0.90,1.91 0.65,1.99 0.41,2.07 0.41,2.07 L 0.41,2.07 Z"></path></g></svg>