<svg version="1.1" xmlns="http://www.w3.org/2000/svg" viewBox="0 0 588.3828125 305.6328125" width="1176.765625" height="611.265625">
  <!-- svg-source:excalidraw -->
  
  <defs>
    <style class="style-fonts">
      
    </style>
    
  </defs>
  <g transform="translate(59.8828125 73.4140625) rotate(0 234.30859375 79.40234375)" stroke="none"><path d="M0.16 0.22 C0.2 -1.07, -0.14 -7.53, 0.51 -9.49 C1.16 -11.45, 1.95 -9.67, 4.04 -11.54 C6.14 -13.41, 10.09 -18.1, 13.08 -20.71 C16.06 -23.31, 18.31 -26.23, 21.97 -27.17 C25.63 -28.11, 29.33 -26.08, 35.06 -26.35 C40.78 -26.62, 52.25 -28.57, 56.31 -28.82 C60.37 -29.07, 58.09 -28.52, 59.41 -27.86 C60.73 -27.2, 62.92 -26.21, 64.22 -24.85 C65.53 -23.48, 66.36 -22.27, 67.23 -19.67 C68.09 -17.06, 69.6 -11.01, 69.41 -9.22 C69.21 -7.44, 66.3 -8.26, 66.06 -8.94 C65.82 -9.62, 67.42 -12.06, 67.96 -13.3 C68.49 -14.53, 67.46 -14.94, 69.28 -16.34 C71.1 -17.74, 75.12 -18.73, 78.88 -21.7 C82.65 -24.67, 86.31 -29.9, 91.87 -34.16 C97.43 -38.43, 106.27 -44.31, 112.24 -47.28 C118.22 -50.25, 120.91 -50.12, 127.74 -51.96 C134.57 -53.8, 142.82 -57.03, 153.23 -58.34 C163.65 -59.65, 183.28 -59.59, 190.2 -59.83 C197.13 -60.07, 192.36 -60.97, 194.77 -59.77 C197.18 -58.56, 201.85 -54.1, 204.67 -52.6 C207.5 -51.11, 209.33 -52.46, 211.73 -50.81 C214.12 -49.15, 217.35 -45.2, 219.02 -42.67 C220.69 -40.14, 221.24 -37.06, 221.75 -35.63 C222.27 -34.19, 221.98 -34.3, 222.12 -34.06 C222.26 -33.82, 222.03 -33.8, 222.61 -34.18 C223.19 -34.56, 221.81 -34.13, 225.57 -36.35 C229.33 -38.58, 237.12 -44.1, 245.17 -47.54 C253.21 -50.97, 264.24 -54.64, 273.85 -56.97 C283.46 -59.3, 296.24 -60.85, 302.82 -61.54 C309.4 -62.22, 306.32 -60.38, 313.33 -61.08 C320.34 -61.77, 338.61 -65.77, 344.87 -65.71 C351.14 -65.66, 348.62 -61.73, 350.9 -60.76 C353.19 -59.8, 357.1 -60.91, 358.57 -59.93 C360.05 -58.96, 359.55 -57.03, 359.75 -54.89 C359.95 -52.76, 356.01 -46.75, 359.78 -47.13 C363.55 -47.5, 374.65 -55.21, 382.39 -57.15 C390.13 -59.09, 396.97 -57.9, 406.2 -58.78 C415.43 -59.67, 431.61 -62.41, 437.78 -62.47 C443.95 -62.52, 441.34 -61.07, 443.21 -59.11 C445.09 -57.15, 448.08 -54.49, 449.03 -50.69 C449.97 -46.89, 448.86 -41.02, 448.88 -36.33 C448.89 -31.64, 442.21 -27.79, 449.11 -22.55 C456.01 -17.32, 481.06 -8.98, 490.28 -4.92 C499.49 -0.86, 500.79 -1.67, 504.41 1.82 C508.03 5.3, 509.46 12.55, 512.01 16 C514.57 19.46, 518.72 18.14, 519.74 22.55 C520.76 26.96, 519.93 36.98, 518.15 42.44 C516.37 47.91, 511.76 50.28, 509.06 55.33 C506.35 60.39, 505.2 67.98, 501.93 72.78 C498.67 77.58, 489.02 81.46, 489.46 84.13 C489.9 86.8, 500.66 88.35, 504.58 88.8 C508.5 89.24, 511.53 86.26, 512.98 86.78 C514.43 87.3, 513.45 90.35, 513.29 91.91 C513.13 93.47, 512.32 95.39, 512.02 96.16 C511.71 96.93, 511.97 95.25, 511.45 96.52 C510.93 97.79, 510.89 101.31, 508.92 103.78 C506.95 106.26, 503.25 107.91, 499.62 111.37 C495.99 114.84, 491.45 121.58, 487.14 124.59 C482.83 127.59, 480.69 126.43, 473.78 129.4 C466.86 132.37, 452.14 139.45, 445.63 142.39 C439.12 145.33, 437.86 146.3, 434.72 147.06 C431.57 147.81, 435.05 140.95, 426.77 146.9 C418.49 152.85, 396.95 173.83, 385.03 182.77 C373.11 191.71, 364.71 195.85, 355.26 200.53 C345.8 205.22, 337.17 208.14, 328.32 210.89 C319.46 213.64, 308.63 215.64, 302.14 217.03 C295.64 218.42, 294.55 218.55, 289.37 219.23 C284.18 219.92, 275.31 221.48, 271 221.16 C266.7 220.84, 265.54 218.52, 263.54 217.33 C261.54 216.15, 259.68 216.09, 259.02 214.05 C258.35 212.02, 259.77 207.38, 259.54 205.1 C259.3 202.82, 258.82 200.81, 257.6 200.38 C256.37 199.94, 259.61 200.69, 252.17 202.48 C244.73 204.27, 226.58 207.93, 212.96 211.12 C199.34 214.32, 183.23 220.21, 170.46 221.65 C157.69 223.1, 148.77 219.68, 136.34 219.78 C123.9 219.89, 105.32 222.64, 95.87 222.3 C86.42 221.96, 84.23 219.14, 79.65 217.75 C75.06 216.36, 72.37 216, 68.36 213.97 C64.36 211.94, 58.51 208.1, 55.62 205.58 C52.72 203.05, 52.43 202.17, 50.99 198.83 C49.55 195.49, 48.02 189.32, 46.97 185.54 C45.91 181.77, 45.57 179.95, 44.65 176.19 C43.72 172.44, 42.37 165.65, 41.41 163 C40.44 160.34, 41.45 159.98, 38.86 160.28 C36.26 160.58, 31.58 162.36, 25.85 164.77 C20.11 167.18, 11.7 172.14, 4.42 174.76 C-2.85 177.39, -12.45 179.95, -17.8 180.52 C-23.16 181.1, -24.42 178.38, -27.73 178.21 C-31.04 178.04, -35.43 180.15, -37.65 179.5 C-39.87 178.85, -39.96 175.88, -41.06 174.31 C-42.15 172.75, -43.41 172.13, -44.2 170.11 C-44.99 168.09, -44.49 166.86, -45.82 162.2 C-47.16 157.53, -51.2 153.22, -52.19 142.12 C-53.17 131.01, -53 105.39, -51.73 95.57 C-50.46 85.75, -46.19 85.79, -44.56 83.21 C-42.93 80.63, -41.59 80.3, -41.98 80.09 C-42.37 79.88, -46.06 82.28, -46.91 81.95 C-47.75 81.62, -47.11 84.11, -47.05 78.12 C-46.99 72.12, -47.33 52.41, -46.56 45.98 C-45.79 39.56, -43.62 41.43, -42.43 39.56 C-41.24 37.7, -45.24 38.35, -39.43 34.78 C-33.61 31.21, -13.6 22.04, -7.54 18.15 C-1.47 14.25, -4.97 13.83, -3.02 11.43 C-1.06 9.04, 3.12 5.36, 4.2 3.77 C5.27 2.18, 4.31 2.59, 3.43 1.89 C2.55 1.18, -0.45 0.27, -1.07 -0.44" stroke="none" stroke-width="0" fill="#fd7e14" fill-rule="evenodd"></path><path fill="#1e1e1e" d="M -1.80,0 Q -1.80,0 -1.87,-1.41 -1.93,-2.82 -1.63,-4.81 -1.32,-6.80 -0.63,-8.68 0.05,-10.57 0.61,-11.76 1.17,-12.94 2.54,-14.40 3.90,-15.86 6.28,-18.13 8.65,-20.39 10.44,-21.74 12.22,-23.08 14.30,-24.23 16.39,-25.38 18.79,-26.30 21.20,-27.23 25.24,-28.06 29.28,-28.90 32.47,-29.24 35.67,-29.57 38.50,-29.71 41.33,-29.85 44.00,-29.90 46.66,-29.96 49.26,-29.97 51.86,-29.99 54.08,-29.73 56.31,-29.48 58.39,-28.84 60.48,-28.19 61.82,-27.54 63.17,-26.88 64.46,-26.16 65.74,-25.43 66.80,-24.50 67.85,-23.57 68.72,-22.42 69.58,-21.26 70.14,-20.14 70.70,-19.01 71.08,-17.97 71.45,-16.93 71.66,-15.83 71.87,-14.72 72.05,-13.08 72.22,-11.44 71.68,-9.58 71.13,-7.72 69.15,-6.87 67.17,-6.02 66.14,-6.52 65.11,-7.01 64.64,-8.14 64.17,-9.26 64.52,-11.56 64.87,-13.86 66.65,-15.75 68.42,-17.65 70.66,-19.59 72.91,-21.53 75.87,-23.92 78.83,-26.31 82.57,-28.99 86.31,-31.68 91.00,-34.44 95.69,-37.20 100.70,-40.16 105.72,-43.12 111.50,-45.87 117.28,-48.62 123.57,-50.85 129.87,-53.08 136.38,-54.66 142.89,-56.23 153.30,-57.33 163.72,-58.42 171.58,-58.88 179.44,-59.33 184.26,-59.38 189.08,-59.42 193.75,-58.53 198.41,-57.65 202.47,-56.23 206.54,-54.81 208.92,-53.56 211.30,-52.32 213.50,-50.90 215.70,-49.48 217.52,-47.86 219.34,-46.24 220.52,-45.06 221.71,-43.87 222.56,-42.61 223.42,-41.34 223.96,-40.22 224.50,-39.10 225.07,-37.50 225.65,-35.90 225.84,-34.83 226.02,-33.76 225.50,-32.31 224.98,-30.85 222.60,-30.82 220.22,-30.79 219.91,-31.88 219.61,-32.97 220.05,-34.23 220.50,-35.48 222.35,-36.92 224.20,-38.35 227.75,-40.32 231.29,-42.29 234.89,-43.94 238.49,-45.60 245.60,-48.28 252.71,-50.97 258.24,-52.79 263.77,-54.62 270.30,-56.47 276.83,-58.33 283.81,-59.77 290.78,-61.21 297.92,-62.25 305.06,-63.29 309.57,-63.72 314.09,-64.16 319.14,-64.34 324.20,-64.52 328.84,-64.59 333.48,-64.66 337.40,-64.68 341.32,-64.71 344.55,-64.27 347.77,-63.84 350.61,-62.64 353.44,-61.43 355.65,-59.72 357.85,-58.00 359.06,-56.93 360.26,-55.87 361.01,-54.96 361.75,-54.04 362.53,-52.80 363.30,-51.56 366.16,-52.73 369.02,-53.90 372.19,-54.84 375.36,-55.79 379.24,-56.70 383.13,-57.60 390.41,-58.90 397.68,-60.19 402.26,-60.72 406.84,-61.25 411.62,-61.47 416.39,-61.68 420.63,-61.76 424.87,-61.83 427.53,-61.86 430.18,-61.88 432.77,-61.89 435.37,-61.89 437.63,-61.49 439.90,-61.09 441.60,-60.64 443.31,-60.19 444.62,-59.57 445.93,-58.96 447.21,-57.88 448.49,-56.81 449.39,-55.54 450.29,-54.28 450.85,-52.94 451.41,-51.61 451.53,-48.95 451.65,-46.28 451.66,-44.19 451.67,-42.10 451.69,-40.16 451.71,-38.23 451.66,-36.66 451.62,-35.08 451.16,-32.97 450.71,-30.86 450.45,-29.12 450.20,-27.38 450.22,-25.60 450.23,-23.82 452.13,-22.94 454.03,-22.05 456.24,-20.84 458.45,-19.64 461.52,-18.26 464.60,-16.89 468.12,-15.42 471.63,-13.96 474.49,-12.56 477.34,-11.17 480.84,-9.50 484.34,-7.84 487.91,-5.91 491.47,-3.98 494.86,-1.95 498.26,0.06 500.35,1.56 502.43,3.07 505.56,5.58 508.69,8.09 510.36,9.61 512.03,11.13 514.11,14.58 516.19,18.03 517.25,21.52 518.30,25.02 518.74,27.99 519.18,30.97 519.37,34.21 519.55,37.45 518.58,41.04 517.61,44.64 516.16,48.19 514.71,51.75 513.39,54.38 512.07,57.01 510.07,60.30 508.06,63.59 506.26,66.73 504.45,69.88 503.04,71.88 501.62,73.89 500.35,75.80 499.08,77.72 498.10,79.31 497.11,80.90 496.29,82.10 495.47,83.30 494.66,84.64 493.84,85.98 493.48,84.94 493.11,83.90 495.76,83.91 498.42,83.92 499.76,83.95 501.09,83.98 502.61,84.12 504.12,84.25 505.56,84.54 506.99,84.82 508.30,85.17 509.61,85.51 510.64,85.84 511.68,86.18 512.62,86.70 513.57,87.22 514.79,88.85 516.01,90.49 516.23,91.63 516.45,92.76 516.20,94.56 515.95,96.37 514.69,98.49 513.44,100.62 511.29,102.79 509.14,104.97 506.78,107.24 504.42,109.51 501.67,112.00 498.92,114.49 495.75,117.15 492.59,119.80 487.59,123.32 482.60,126.83 478.42,129.51 474.24,132.18 468.34,135.37 462.43,138.56 458.14,140.72 453.84,142.87 450.51,144.24 447.18,145.61 445.23,146.31 443.27,147.02 441.43,147.72 439.58,148.42 438.07,148.92 436.56,149.43 435.23,149.81 433.89,150.20 432.16,150.56 430.42,150.91 428.83,150.75 427.25,150.58 427.27,150.58 427.30,150.58 427.07,150.41 426.83,150.24 426.65,150.01 426.47,149.79 426.35,149.53 426.22,149.27 426.16,148.98 426.11,148.70 426.12,148.41 426.13,148.12 426.21,147.84 426.29,147.57 426.44,147.32 426.58,147.07 426.78,146.86 426.98,146.65 427.23,146.50 427.47,146.34 427.74,146.25 428.02,146.16 428.31,146.14 428.59,146.11 428.88,146.16 429.16,146.21 429.43,146.32 429.70,146.43 429.42,148.83 429.15,151.22 427.73,152.37 426.31,153.51 423.99,155.24 421.66,156.97 418.12,159.62 414.57,162.27 409.88,165.69 405.18,169.11 399.55,173.26 393.92,177.41 387.25,181.77 380.58,186.14 373.64,190.25 366.71,194.37 359.66,198.16 352.61,201.95 345.65,205.31 338.70,208.67 331.90,211.17 325.10,213.67 318.75,215.54 312.40,217.41 305.68,218.54 298.96,219.66 293.87,220.14 288.79,220.62 284.14,220.82 279.48,221.02 276.44,220.97 273.39,220.92 270.73,220.33 268.07,219.74 266.21,218.88 264.36,218.01 263.00,217.07 261.65,216.13 260.60,214.97 259.56,213.81 258.81,212.56 258.07,211.31 257.26,208.74 256.46,206.17 256.03,204.43 255.61,202.69 253.92,203.42 252.23,204.15 249.53,204.65 246.83,205.16 240.39,206.94 233.94,208.72 227.73,210.45 221.51,212.19 215.04,213.75 208.56,215.31 201.62,216.62 194.68,217.92 187.58,219.12 180.47,220.31 172.87,221.04 165.26,221.77 157.50,222.30 149.73,222.82 141.87,223.04 134.01,223.26 126.14,223.35 118.26,223.44 111.10,223.26 103.94,223.08 97.37,221.98 90.80,220.88 86.54,219.82 82.27,218.76 77.81,217.18 73.34,215.59 67.86,212.38 62.38,209.17 58.71,206.14 55.04,203.11 52.04,198.71 49.04,194.30 47.13,188.95 45.22,183.60 44.42,180.65 43.62,177.71 43.27,175.36 42.93,173.01 42.72,171.15 42.51,169.28 42.35,167.80 42.19,166.32 41.96,164.59 41.74,162.86 39.47,163.81 37.21,164.77 34.30,165.84 31.39,166.90 27.61,168.22 23.83,169.55 17.94,171.46 12.05,173.37 6.71,174.74 1.37,176.10 -3.39,177.20 -8.16,178.30 -12.17,178.93 -16.19,179.55 -19.86,179.97 -23.52,180.40 -26.57,180.57 -29.61,180.75 -32.05,180.55 -34.49,180.35 -37.20,178.88 -39.91,177.41 -41.90,175.13 -43.88,172.86 -45.42,169.59 -46.96,166.32 -47.99,162.07 -49.02,157.83 -49.65,152.89 -50.28,147.96 -50.54,142.39 -50.81,136.83 -50.92,131.02 -51.03,125.22 -51.08,121.06 -51.12,116.90 -51.14,112.01 -51.16,107.13 -51.17,104.20 -51.18,101.27 -50.86,98.01 -50.53,94.75 -49.73,91.21 -48.92,87.67 -48.37,85.64 -47.83,83.61 -47.42,82.22 -47.01,80.83 -46.52,79.74 -46.02,78.65 -46.01,78.61 -46.00,78.57 -45.83,78.41 -45.67,78.26 -45.47,78.15 -45.27,78.04 -45.05,77.98 -44.83,77.92 -44.61,77.91 -44.38,77.91 -44.16,77.96 -43.94,78.00 -43.74,78.10 -43.53,78.20 -43.36,78.35 -43.19,78.49 -43.05,78.68 -42.92,78.86 -42.84,79.07 -42.75,79.28 -42.72,79.50 -42.68,79.73 -42.70,79.95 -42.73,80.18 -42.80,80.39 -42.88,80.60 -43.00,80.79 -43.12,80.98 -44.18,81.35 -45.24,81.71 -46.22,81.16 -47.21,80.62 -47.87,77.77 -48.52,74.91 -48.58,73.03 -48.63,71.14 -48.59,69.10 -48.56,67.05 -48.63,65.66 -48.70,64.26 -48.72,62.62 -48.74,60.98 -48.65,58.59 -48.55,56.20 -48.54,54.32 -48.53,52.45 -48.61,51.25 -48.69,50.05 -48.37,48.58 -48.06,47.10 -47.60,45.90 -47.14,44.70 -46.22,43.21 -45.29,41.72 -44.26,40.51 -43.24,39.31 -42.22,38.22 -41.20,37.14 -39.93,36.10 -38.67,35.06 -37.21,34.02 -35.74,32.97 -34.19,31.91 -32.64,30.85 -30.84,29.86 -29.04,28.87 -27.39,27.96 -25.74,27.04 -23.73,25.88 -21.72,24.73 -20.15,23.72 -18.58,22.71 -17.20,21.76 -15.82,20.81 -14.72,20.03 -13.62,19.25 -12.64,18.56 -11.65,17.88 -10.50,16.84 -9.34,15.79 -8.39,14.88 -7.43,13.97 -6.61,12.99 -5.80,12.01 -5.12,11.19 -4.44,10.36 -3.41,9.13 -2.38,7.91 -1.37,6.81 -0.36,5.71 0.37,4.87 1.12,4.03 -0.12,3.30 -1.37,2.58 -1.75,2.30 -2.13,2.01 -2.39,1.61 -2.66,1.22 -2.79,0.76 -2.91,0.31 -2.88,-0.16 -2.86,-0.63 -2.68,-1.07 -2.50,-1.51 -2.20,-1.87 -1.89,-2.23 -1.48,-2.48 -1.07,-2.72 -0.61,-2.82 -0.15,-2.92 0.31,-2.87 0.79,-2.82 1.22,-2.62 1.65,-2.42 1.99,-2.09 2.33,-1.76 2.56,-1.35 2.78,-0.93 2.85,-0.46 2.93,0.00 2.85,0.47 2.77,0.94 2.55,1.36 2.33,1.78 1.98,2.10 1.64,2.43 1.20,2.62 0.77,2.82 0.30,2.87 -0.16,2.92 -0.62,2.82 -1.09,2.72 -1.49,2.47 -1.90,2.23 -2.21,1.86 -2.51,1.50 -2.69,1.06 -2.86,0.62 -2.89,0.14 -2.91,-0.32 -2.78,-0.78 -2.65,-1.23 -2.39,-1.63 -2.12,-2.02 -1.74,-2.30 -1.36,-2.59 -0.91,-2.74 -0.46,-2.89 0.00,-2.89 0.48,-2.89 0.93,-2.74 1.38,-2.58 1.37,-2.58 1.37,-2.58 4.39,-0.77 7.40,1.04 7.79,3.02 8.18,5.00 7.50,6.23 6.82,7.46 5.96,8.27 5.10,9.08 4.05,10.19 3.00,11.31 2.16,12.16 1.32,13.00 0.27,14.13 -0.77,15.26 -1.65,16.02 -2.52,16.79 -3.51,17.58 -4.50,18.36 -5.52,19.01 -6.54,19.66 -7.98,20.57 -9.43,21.49 -10.46,22.05 -11.50,22.60 -12.65,23.24 -13.80,23.88 -15.23,24.78 -16.66,25.68 -18.25,26.71 -19.83,27.74 -21.81,29.08 -23.79,30.42 -25.39,31.38 -27.00,32.35 -28.56,33.33 -30.12,34.32 -31.58,35.45 -33.04,36.59 -34.39,37.64 -35.73,38.70 -36.79,39.53 -37.84,40.36 -38.83,41.37 -39.82,42.39 -40.66,43.25 -41.49,44.11 -42.26,45.32 -43.03,46.54 -43.86,48.32 -44.70,50.09 -44.78,51.27 -44.86,52.45 -44.84,54.32 -44.83,56.19 -44.73,58.58 -44.63,60.97 -44.64,62.59 -44.64,64.22 -44.69,65.60 -44.73,66.99 -44.63,68.97 -44.53,70.96 -44.42,72.72 -44.31,74.48 -44.10,76.15 -43.90,77.83 -44.95,78.20 -46.00,78.57 -45.83,78.41 -45.67,78.26 -45.47,78.15 -45.27,78.04 -45.05,77.98 -44.83,77.92 -44.61,77.91 -44.38,77.91 -44.16,77.96 -43.94,78.00 -43.74,78.10 -43.53,78.20 -43.36,78.35 -43.19,78.49 -43.05,78.68 -42.92,78.86 -42.84,79.07 -42.75,79.28 -42.72,79.50 -42.68,79.73 -42.70,79.95 -42.73,80.18 -42.80,80.39 -42.87,80.60 -43.00,80.79 -43.12,80.98 -43.60,81.47 -44.08,81.96 -44.67,83.14 -45.25,84.32 -45.80,86.29 -46.36,88.26 -47.14,91.64 -47.92,95.01 -48.23,98.14 -48.55,101.26 -48.54,104.19 -48.53,107.12 -48.51,111.99 -48.49,116.87 -48.44,121.02 -48.40,125.17 -48.28,130.94 -48.17,136.70 -47.91,142.16 -47.65,147.62 -47.05,152.42 -46.45,157.21 -45.50,161.21 -44.55,165.21 -43.19,168.17 -41.83,171.14 -40.19,173.12 -38.55,175.10 -36.36,176.38 -34.18,177.67 -31.98,177.83 -29.78,177.99 -26.82,177.80 -23.85,177.61 -20.25,177.16 -16.65,176.72 -12.75,176.06 -8.84,175.41 -4.12,174.26 0.58,173.11 5.80,171.69 11.01,170.27 16.81,168.26 22.60,166.26 26.28,164.80 29.95,163.34 32.82,162.06 35.69,160.78 38.06,159.82 40.44,158.86 42.64,159.40 44.85,159.94 45.31,161.37 45.77,162.79 45.62,164.49 45.46,166.19 45.42,167.62 45.38,169.06 45.46,170.84 45.53,172.63 45.85,174.82 46.16,177.02 46.93,179.87 47.70,182.72 49.47,187.78 51.24,192.84 53.99,196.97 56.75,201.10 60.24,203.99 63.73,206.89 68.98,209.99 74.24,213.09 78.58,214.63 82.91,216.17 87.08,217.21 91.24,218.24 97.63,219.31 104.01,220.38 111.12,220.54 118.23,220.70 126.08,220.59 133.93,220.49 141.73,220.24 149.53,220.00 157.26,219.44 164.98,218.88 172.47,218.11 179.96,217.35 187.02,216.09 194.08,214.83 200.91,213.45 207.75,212.07 214.12,210.39 220.49,208.72 226.65,206.81 232.82,204.90 239.29,202.87 245.76,200.83 248.40,200.01 251.03,199.20 253.03,198.68 255.03,198.16 257.05,198.55 259.07,198.94 259.74,200.51 260.42,202.09 260.58,203.75 260.75,205.41 261.15,207.47 261.55,209.53 261.97,210.57 262.40,211.62 263.04,212.62 263.68,213.62 264.67,214.55 265.66,215.48 267.16,216.32 268.67,217.17 271.06,217.72 273.44,218.28 276.40,218.32 279.37,218.36 283.95,218.16 288.54,217.96 293.53,217.48 298.51,217.01 305.07,215.91 311.63,214.81 317.89,212.95 324.15,211.09 330.82,208.63 337.48,206.16 344.37,202.80 351.25,199.44 358.22,195.64 365.20,191.85 372.05,187.72 378.90,183.59 385.44,179.21 391.99,174.84 397.56,170.60 403.13,166.36 407.70,162.85 412.27,159.33 415.66,156.55 419.05,153.78 421.14,151.89 423.24,150.00 424.57,148.74 425.90,147.48 426.60,149.03 427.30,150.58 427.07,150.41 426.83,150.24 426.65,150.01 426.47,149.79 426.35,149.53 426.22,149.27 426.16,148.98 426.11,148.70 426.12,148.41 426.13,148.12 426.21,147.84 426.29,147.57 426.44,147.32 426.58,147.07 426.78,146.86 426.98,146.65 427.23,146.50 427.47,146.34 427.74,146.25 428.02,146.16 428.31,146.14 428.59,146.11 428.88,146.16 429.16,146.21 429.43,146.32 429.70,146.43 429.90,146.53 430.10,146.64 431.61,146.65 433.13,146.66 434.42,146.48 435.71,146.29 437.15,145.99 438.59,145.70 440.46,145.04 442.33,144.37 444.23,143.71 446.12,143.06 449.35,141.71 452.57,140.36 456.81,138.19 461.05,136.02 466.83,132.85 472.62,129.67 476.70,126.98 480.78,124.29 485.61,120.80 490.43,117.30 493.45,114.61 496.47,111.91 499.05,109.36 501.62,106.80 503.78,104.42 505.93,102.03 507.53,100.12 509.12,98.20 509.81,96.81 510.49,95.41 510.61,93.51 510.73,91.61 509.50,90.89 508.28,90.18 507.12,89.82 505.96,89.46 504.80,89.16 503.64,88.86 502.27,88.71 500.89,88.55 499.46,88.46 498.03,88.36 496.45,88.24 494.87,88.11 492.63,87.45 490.39,86.79 490.57,85.09 490.76,83.40 491.83,82.33 492.91,81.26 493.82,80.29 494.73,79.32 495.81,77.80 496.89,76.27 498.18,74.32 499.47,72.37 500.82,70.47 502.17,68.57 503.99,65.39 505.82,62.21 507.77,59.02 509.72,55.83 510.99,53.29 512.27,50.75 513.67,47.34 515.07,43.93 515.99,40.74 516.91,37.55 516.73,34.45 516.56,31.35 516.15,28.56 515.74,25.77 514.81,22.58 513.88,19.38 512.04,16.25 510.19,13.11 508.59,11.67 506.98,10.23 503.90,7.78 500.82,5.33 498.82,3.92 496.82,2.50 493.46,0.54 490.10,-1.41 486.58,-3.25 483.07,-5.09 479.53,-6.70 475.99,-8.30 473.19,-9.56 470.39,-10.82 466.80,-12.17 463.20,-13.52 459.95,-14.77 456.70,-16.01 454.44,-16.97 452.18,-17.92 450.28,-18.76 448.37,-19.60 447.24,-20.94 446.11,-22.28 446.16,-24.05 446.21,-25.83 446.42,-26.88 446.64,-27.92 446.93,-29.73 447.22,-31.54 447.53,-33.44 447.85,-35.34 448.01,-36.76 448.17,-38.18 448.13,-40.07 448.08,-41.97 447.95,-43.99 447.81,-46.01 447.33,-49.09 446.86,-52.18 446.39,-53.14 445.92,-54.09 445.04,-55.03 444.17,-55.96 443.27,-56.62 442.37,-57.28 440.89,-57.84 439.41,-58.40 437.40,-58.76 435.38,-59.12 432.80,-59.09 430.23,-59.05 427.58,-58.99 424.94,-58.93 420.75,-58.80 416.55,-58.67 411.89,-58.40 407.23,-58.12 402.77,-57.51 398.30,-56.90 391.17,-55.50 384.03,-54.10 380.33,-53.06 376.63,-52.02 373.68,-50.90 370.73,-49.78 368.85,-48.83 366.97,-47.87 365.48,-47.23 364.00,-46.59 362.66,-46.62 361.33,-46.65 360.43,-47.65 359.52,-48.64 359.36,-49.79 359.19,-50.94 358.63,-52.33 358.07,-53.72 357.13,-54.82 356.20,-55.92 354.28,-57.46 352.37,-59.00 349.88,-60.09 347.39,-61.18 344.36,-61.59 341.34,-62.00 337.44,-61.96 333.53,-61.92 328.92,-61.83 324.31,-61.74 319.34,-61.53 314.37,-61.33 309.93,-60.87 305.49,-60.40 298.45,-59.32 291.41,-58.25 284.56,-56.76 277.72,-55.28 271.29,-53.35 264.86,-51.42 259.45,-49.49 254.04,-47.56 247.16,-44.77 240.28,-41.98 236.96,-40.20 233.64,-38.42 230.51,-36.33 227.38,-34.24 226.04,-33.80 224.70,-33.36 222.95,-33.46 221.19,-33.56 221.23,-34.84 221.26,-36.13 220.85,-37.89 220.44,-39.65 219.94,-40.76 219.44,-41.87 218.51,-43.07 217.58,-44.27 215.92,-45.77 214.25,-47.26 212.16,-48.61 210.07,-49.97 207.86,-51.13 205.65,-52.29 201.78,-53.65 197.90,-55.01 193.50,-55.86 189.10,-56.71 184.35,-56.65 179.60,-56.60 171.80,-56.12 164.01,-55.65 153.79,-54.56 143.57,-53.47 137.21,-51.89 130.86,-50.32 124.73,-48.10 118.60,-45.88 112.98,-43.13 107.37,-40.38 102.41,-37.33 97.46,-34.28 92.99,-31.50 88.53,-28.71 85.02,-25.96 81.51,-23.21 78.81,-20.71 76.12,-18.21 74.28,-16.20 72.44,-14.20 70.91,-12.35 69.39,-10.51 68.19,-11.59 66.99,-12.68 66.97,-14.15 66.95,-15.63 66.53,-17.30 66.11,-18.98 64.97,-20.72 63.82,-22.47 62.67,-23.30 61.52,-24.14 60.57,-24.86 59.62,-25.59 57.81,-26.20 55.99,-26.81 53.93,-27.05 51.88,-27.28 49.30,-27.25 46.73,-27.22 44.10,-27.14 41.48,-27.07 38.73,-26.91 35.98,-26.75 32.93,-26.39 29.88,-26.03 26.10,-25.22 22.31,-24.41 20.14,-23.51 17.97,-22.61 16.15,-21.52 14.34,-20.43 12.80,-19.12 11.27,-17.80 9.05,-15.43 6.83,-13.05 5.21,-11.14 3.59,-9.23 3.01,-7.73 2.42,-6.22 2.18,-4.52 1.93,-2.82 1.87,-1.41 1.80,0 1.78,0.21 1.75,0.43 1.67,0.63 1.59,0.83 1.47,1.01 1.35,1.19 1.18,1.34 1.02,1.48 0.83,1.58 0.64,1.68 0.42,1.74 0.21,1.79 -0.00,1.79 -0.21,1.79 -0.42,1.74 -0.64,1.68 -0.83,1.58 -1.02,1.48 -1.18,1.34 -1.35,1.19 -1.47,1.01 -1.59,0.83 -1.67,0.63 -1.75,0.43 -1.78,0.21 -1.80,-0.00 -1.80,-0.00 L -1.80,0 Z"></path></g></svg>